<svg xmlns="http://www.w3.org/2000/svg" width="18" height="18" viewBox="0 0 18 18">
  <g id="Group_16147" data-name="Group 16147" transform="translate(-20 -386)">
    <circle id="Ellipse_154" data-name="Ellipse 154" cx="9" cy="9" r="9" transform="translate(20 386)" fill="#ff5733"/>
    <path id="mobile-alt-solid" d="M5.688,0H1A1,1,0,0,0,0,1V9.7a1,1,0,0,0,1,1H5.688a1,1,0,0,0,1-1V1A1,1,0,0,0,5.688,0ZM3.346,10.038a.669.669,0,1,1,.669-.669A.669.669,0,0,1,3.346,10.038ZM5.688,7.78a.252.252,0,0,1-.251.251H1.255A.252.252,0,0,1,1,7.78V1.255A.252.252,0,0,1,1.255,1H5.437a.252.252,0,0,1,.251.251Z" transform="translate(25.654 389.646)" fill="#fff"/>
  </g>
</svg>
