<svg id="dollar-symbol" xmlns="http://www.w3.org/2000/svg" width="19.046" height="19.046" viewBox="0 0 19.046 19.046">
  <path id="Path_2569" data-name="Path 2569" d="M9.523,0a9.523,9.523,0,1,0,9.523,9.523A9.523,9.523,0,0,0,9.523,0ZM10.1,13.765v1.1a.3.3,0,0,1-.306.3H9.058a.3.3,0,0,1-.311-.3V13.862a6.308,6.308,0,0,1-1.875-.371.589.589,0,0,1-.361-.7l.12-.467a.589.589,0,0,1,.783-.4,4.728,4.728,0,0,0,1.693.329c.79,0,1.331-.305,1.331-.86,0-.527-.443-.86-1.47-1.206C7.485,9.689,6.47,9,6.47,7.651A2.565,2.565,0,0,1,8.808,5.184V4.179a.331.331,0,0,1,.32-.326h.735a.314.314,0,0,1,.3.326v.908a5.472,5.472,0,0,1,1.5.25.591.591,0,0,1,.391.706l-.105.418a.588.588,0,0,1-.761.411,4.244,4.244,0,0,0-1.4-.232c-.9,0-1.192.388-1.192.777,0,.458.485.748,1.663,1.192,1.649.582,2.312,1.345,2.312,2.592A2.656,2.656,0,0,1,10.1,13.765Z" fill="#ff5733"/>
</svg>
