<svg xmlns="http://www.w3.org/2000/svg" width="18.333" height="17.128" viewBox="0 0 18.333 17.128">
  <g id="Group_16145" data-name="Group 16145" transform="translate(-1170.337 -663.285)">
    <path id="Path_2931" data-name="Path 2931" d="M1188.67,665.667v9.567a2.861,2.861,0,0,1-.187.806,2.67,2.67,0,0,1-2.18,1.505,16.34,16.34,0,0,1-1.714.033q-2.878.007-5.756,0a.976.976,0,0,0-.638.224q-1.543,1.206-3.1,2.4a.9.9,0,0,1-.41.207.664.664,0,0,1-.766-.691c0-.484,0-.967,0-1.451,0-.731.049-.68-.673-.685a3.076,3.076,0,0,1-1.553-.341,2.663,2.663,0,0,1-1.264-1.494,2.325,2.325,0,0,1-.085-.739c0-3.051.013-6.1-.008-9.152a2.62,2.62,0,0,1,2.409-2.539c.4-.017.809-.027,1.214-.027q5.908,0,11.815,0a3.071,3.071,0,0,1,1.506.312,2.7,2.7,0,0,1,1.261,1.363A3.872,3.872,0,0,1,1188.67,665.667Z" fill="#ff5733"/>
  </g>
</svg>
