<svg xmlns="http://www.w3.org/2000/svg" width="22.382" height="21.934" viewBox="0 0 22.382 21.934">
  <g id="Group_16139" data-name="Group 16139" transform="translate(-707.206 212.314)">
    <g id="Group_16141" data-name="Group 16141" transform="translate(707.206 -212.314)">
      <path id="Path_2938" data-name="Path 2938" d="M725.857-209.2c.388-.392.765-.776,1.146-1.156.36-.359.711-.266.852.225q.842,2.936,1.683,5.872a.522.522,0,0,1-.075.575.529.529,0,0,1-.576.073q-2.924-.838-5.85-1.67c-.528-.151-.618-.492-.233-.879s.764-.761,1.146-1.141a8.159,8.159,0,0,0-9.047-1.716,8.308,8.308,0,0,0-4.79,9.758,8.332,8.332,0,0,0,8.682,6.216,8.354,8.354,0,0,0,7.72-8.951l2.605.747a10.888,10.888,0,0,1-7.337,10.25,10.977,10.977,0,0,1-13-4.7,10.924,10.924,0,0,1,2-13.747,10.643,10.643,0,0,1,7.57-2.871A10.874,10.874,0,0,1,725.857-209.2Z" transform="translate(-707.206 212.314)" fill="#fff"/>
    </g>
    <path id="Path_2939" data-name="Path 2939" d="M816.417-151.72a.125.125,0,0,0-.015-.047l-.8-1.444a.123.123,0,0,0-.169-.044.123.123,0,0,0-.044.169l.694,1.26h-3.7c-.2-.152-1.4-1.088-1.056-2.289.461-1.619,2.374-1.385,2.672-1.339a.115.115,0,0,0,.125,0,.12.12,0,0,0,.044-.166l-1.77-3.071a.123.123,0,0,0-.105-.061.119.119,0,0,0-.105.061l-4,6.921a.123.123,0,0,0-.015.079.124.124,0,0,0,.015.047l.8,1.444a.123.123,0,0,0,.169.044.123.123,0,0,0,.044-.169l-.694-1.26h3.7c.2.152,1.4,1.088,1.056,2.29-.461,1.619-2.374,1.385-2.672,1.339a.115.115,0,0,0-.125,0,.121.121,0,0,0-.044.166l1.77,3.068a.123.123,0,0,0,.1.061.119.119,0,0,0,.105-.061l4-6.921A.138.138,0,0,0,816.417-151.72Z" transform="translate(-94.04 -49.883)" fill="#fff"/>
  </g>
</svg>
