<svg xmlns="http://www.w3.org/2000/svg" width="18.333" height="18.33" viewBox="0 0 18.333 18.33">
  <g id="Group_16143" data-name="Group 16143" transform="translate(-16.386 940.36)">
    <path id="Path_2942" data-name="Path 2942" d="M26.092-922.03H25.018c-.058-.01-.116-.024-.174-.031-.336-.045-.676-.071-1.009-.135a9,9,0,0,1-5.069-2.845,8.918,8.918,0,0,1-2.239-4.6c-.058-.339-.094-.682-.14-1.023v-1.074c.011-.063.024-.126.032-.19.044-.331.071-.665.134-.992A8.844,8.844,0,0,1,19.31-937.9a8.948,8.948,0,0,1,7.959-2.3,8.683,8.683,0,0,1,5.034,2.8,8.933,8.933,0,0,1,2.328,7.43,8.877,8.877,0,0,1-2.892,5.525,8.911,8.911,0,0,1-4.623,2.266C26.777-922.112,26.434-922.076,26.092-922.03ZM20.73-933.838a3.6,3.6,0,0,0,.363,1.658,9.878,9.878,0,0,0,2.131,3.088,9.609,9.609,0,0,0,4.145,2.578,2.429,2.429,0,0,0,1.774-.149,4.009,4.009,0,0,0,1.06-.868.409.409,0,0,0,0-.677q-.795-.8-1.594-1.6a.412.412,0,0,0-.679,0c-.291.292-.576.588-.868.879a.835.835,0,0,1-1.163.089,12.066,12.066,0,0,1-2.673-2.62.832.832,0,0,1,.082-1.2c.3-.3.6-.6.9-.9a.4.4,0,0,0,.005-.653q-.807-.813-1.62-1.62a.4.4,0,0,0-.64,0c-.168.161-.331.327-.494.493A2.388,2.388,0,0,0,20.73-933.838Z" fill="#ff5733"/>
  </g>
</svg>
