<svg xmlns="http://www.w3.org/2000/svg" width="18.341" height="18.349" viewBox="0 0 18.341 18.349">
  <g id="Group_3" data-name="Group 3" transform="translate(-0.001 0.019)">
    <path id="Path_1" data-name="Path 1" d="M15.917,2.96A8.679,8.679,0,0,0,10.883.16a8.946,8.946,0,0,0-7.959,2.3A8.844,8.844,0,0,0,.167,7.44C.1,7.767.077,8.1.033,8.432.025,8.5.012,8.559,0,8.622V9.7c.046.341.082.684.14,1.023a8.915,8.915,0,0,0,2.239,4.6,9,9,0,0,0,5.069,2.845c.333.064.673.09,1.009.135.058.007.116.021.174.031H9.706c.342-.046.685-.082,1.024-.149a8.909,8.909,0,0,0,4.623-2.266,8.877,8.877,0,0,0,2.892-5.525A8.934,8.934,0,0,0,15.917,2.96Z" fill="#ff5733"/>
    <g id="Group_2" data-name="Group 2">
      <path id="Path_2" data-name="Path 2" d="M12.3,4.048c.157.13.168.2.054.384Q11.24,6.2,10.12,7.964l-.081.132c.04.041.086.023.127.023h2.193a.327.327,0,0,1,.174.027c.123.07.139.206.031.335-.272.327-.546.651-.82.976L6.2,16.041a1.666,1.666,0,0,1-.144.159.182.182,0,0,1-.24.024.189.189,0,0,1-.082-.239c.068-.173.142-.345.214-.517Q6.954,13.083,7.958,10.7c.017-.039.032-.08.055-.138H7.877q-.94,0-1.883,0c-.249,0-.333-.133-.223-.353q1.5-2.992,2.991-5.984a.407.407,0,0,1,.154-.174Z" fill="#fff" stroke="#fff" stroke-miterlimit="10" stroke-width="0.5"/>
    </g>
  </g>
</svg>
