<svg xmlns="http://www.w3.org/2000/svg" width="19.046" height="19.064" viewBox="0 0 19.046 19.064">
  <path id="Path_2930" data-name="Path 2930" d="M1452.6,810.362c.049-.2.128-.557.221-.907a1.245,1.245,0,0,0-.339-1.273c-.176-.179-.36-.351-.527-.539a1.616,1.616,0,0,1-.006-2.158c.179-.2.381-.386.568-.583a1.22,1.22,0,0,0,.319-1.189c-.06-.251-.136-.5-.194-.749a1.613,1.613,0,0,1,1.057-1.895c.256-.086.521-.146.781-.222a1.211,1.211,0,0,0,.879-.884c.057-.2.108-.409.165-.613a1.66,1.66,0,0,1,2.094-1.195l.555.148a1.252,1.252,0,0,0,1.272-.341c.147-.143.288-.293.436-.435a1.667,1.667,0,0,1,2.384.019c.127.126.255.251.378.38a1.294,1.294,0,0,0,1.357.368,4.893,4.893,0,0,1,.926-.2,1.609,1.609,0,0,1,1.652,1.188c.066.222.121.447.183.669a1.211,1.211,0,0,0,.892.894c.229.064.459.123.687.189a1.626,1.626,0,0,1,1.139,1.936c-.056.245-.127.486-.188.73a1.217,1.217,0,0,0,.323,1.206c.169.177.35.343.515.523a1.624,1.624,0,0,1,.007,2.248c-.165.181-.345.347-.516.523a1.223,1.223,0,0,0-.328,1.222c.06.237.129.472.184.71a1.625,1.625,0,0,1-1.145,1.95c-.228.067-.459.125-.687.19a1.205,1.205,0,0,0-.88.881c-.065.229-.121.46-.188.689a1.624,1.624,0,0,1-1.966,1.142c-.225-.053-.447-.117-.671-.175a1.236,1.236,0,0,0-1.24.327c-.172.165-.334.34-.508.5a1.615,1.615,0,0,1-2.258,0c-.164-.154-.319-.317-.479-.475a1.281,1.281,0,0,0-1.29-.349,5.321,5.321,0,0,1-1.044.205,1.6,1.6,0,0,1-1.565-1.146c-.074-.24-.13-.485-.2-.727a1.206,1.206,0,0,0-.867-.871c-.253-.075-.511-.133-.762-.214A1.675,1.675,0,0,1,1452.6,810.362Zm7.221-2.137c-.078-.074-.112-.1-.145-.137q-.975-.976-1.951-1.952a.63.63,0,0,0-.891-.052.636.636,0,0,0,.01.963q1.2,1.211,2.412,2.417a.657.657,0,0,0,1.076,0l2.931-2.936q1-1,2.006-2.008a.648.648,0,0,0,.209-.664.633.633,0,0,0-1.1-.241q-2.211,2.211-4.417,4.426A1.709,1.709,0,0,0,1459.818,808.225Z" transform="translate(-1451.535 -797.035)" fill="#ff5733"/>
</svg>
