<svg xmlns="http://www.w3.org/2000/svg" width="36.6" height="36.6" viewBox="0 0 36.6 36.6">
  <g id="圖層_2" transform="translate(-123.699 -55)">
    <g id="flash" transform="translate(124.499 55.8)">
      <path id="Path_27667" d="M139.1,68.7l3.2-4s.5-.8.9-.5c.4.2.2.8.2.8l-1.7,5.9h4.1a.55.55,0,0,1,.5.3c.1.3-.2.7-.2.7l-6.5,8.3s-.4.5-.8.3c-.2-.1-.3-.5-.1-1s1.7-5.6,1.7-5.6h-4.2s-.4-.1-.4-.4a.764.764,0,0,1,.2-.5Z" transform="translate(-123.499 -54.799)" fill="#ea5839"/>
      <ellipse id="Ellipse_1304" cx="17.5" cy="17.5" rx="17.5" ry="17.5" fill="none" stroke="#040000" stroke-miterlimit="10" stroke-width="1.6"/>
    </g>
  </g>
</svg>
