<svg xmlns="http://www.w3.org/2000/svg" width="35.576" height="35.618" viewBox="0 0 35.576 35.618">
  <g id="圖層_5" transform="translate(-181.584 -54.999)">
    <g id="dollar" transform="translate(181.873 55.29)">
      <g id="Group_16110">
        <path id="Path_27631" d="M186.083,84.9c-.1,1.2-.3,2.3-.4,3.5q-.148.6-.593.6c-.3,0-.494-.3-.494-.7.2-1.5.3-3.1.494-4.6.1-.5.2-.7.692-.6,1.582.2,3.064.3,4.646.5a.458.458,0,0,1,.494.6c0,.3-.3.5-.692.4-.988-.1-1.878-.2-2.867-.3h-.494a15.275,15.275,0,0,1,1.285,1.2,16.527,16.527,0,0,0,26.1-18.6c0-.1-.1-.2-.1-.3-.1-.4-.1-.7.3-.8a.5.5,0,0,1,.692.4,22.687,22.687,0,0,1,.791,2.4,17.736,17.736,0,0,1-12.751,21.5c-.2,0-.4.1-.593.1a17.142,17.142,0,0,1-16.31-4.9.522.522,0,0,0-.2-.4Z" transform="translate(-181.47 -55.653)" fill="#040000" stroke="#040000" stroke-width="0.5"/>
        <path id="Path_27632" d="M211.844,60.7c.1-1.2.3-2.4.4-3.6q.148-.6.593-.6c.3,0,.494.3.4.7l-.494,4.7a.558.558,0,0,1-.494.6h-.1c-1.581-.2-3.163-.3-4.744-.5a.47.47,0,0,1-.494-.5v-.1c0-.3.3-.5.692-.4l2.965.3h.4c-.1-.1-.2-.2-.2-.3a16.479,16.479,0,0,0-27.972,8.5,17.356,17.356,0,0,0,.692,9c0,.1.1.2.1.4a.518.518,0,0,1-.3.7h0a.414.414,0,0,1-.593-.3v-.1a20.432,20.432,0,0,1-.89-3.3,17.609,17.609,0,0,1,3.459-14.3,16.615,16.615,0,0,1,11.169-6.5,17.323,17.323,0,0,1,15.321,5.3C211.647,60.6,211.745,60.7,211.844,60.7Z" transform="translate(-181.47 -54.888)" fill="#040000" stroke="#040000" stroke-width="0.5"/>
      </g>
      <g id="Group_16111" transform="translate(13.064 9.208)">
        <path id="Path_27633" d="M188.1,58.5a.3.3,0,0,1-.4,0,3.583,3.583,0,0,0-2.4-.9c-1.3,0-2.1.6-2.1,1.7,0,2.6,6.1,2,6.1,6.1a3.492,3.492,0,0,1-3.2,3.5c-.1,0-.2.1-.2.3v1a.319.319,0,0,1-.3.3h-1a.319.319,0,0,1-.3-.3h0v-1c0-.1-.1-.2-.2-.3a8.3,8.3,0,0,1-3.4-1.3.6.6,0,0,1-.1-.4l.7-1a.6.6,0,0,1,.4-.1,5.1,5.1,0,0,0,3.1,1.1c1.5,0,2.3-.7,2.3-1.8,0-2.9-6.1-2.4-6.1-6.2a3.453,3.453,0,0,1,3.1-3.4c.1,0,.2-.1.2-.3v-1a.319.319,0,0,1,.3-.3h1a.319.319,0,0,1,.3.3h0v1c0,.1.1.2.2.3a5.263,5.263,0,0,1,2.7,1.3.3.3,0,0,1,0,.4h0Z" transform="translate(-180.6 -54.2)" fill="#ea5839" stroke="#ea5839" stroke-width="0.5"/>
      </g>
    </g>
  </g>
</svg>
