<svg xmlns="http://www.w3.org/2000/svg" width="36.6" height="36.6" viewBox="0 0 36.6 36.6">
  <g id="圖層_7" transform="translate(-181.3 -131.4)">
    <path id="Path_27673" data-name="Path 27673" d="M184.3,157.8h0a2.22,2.22,0,0,1-2.2-2.2V150a2.22,2.22,0,0,1,2.2-2.2h0a2.22,2.22,0,0,1,2.2,2.2v5.7A2.2,2.2,0,0,1,184.3,157.8Z" transform="translate(0 0.318)" fill="none" stroke="#000" stroke-width="1.6"/>
    <path id="Path_27674" data-name="Path 27674" d="M214.9,157.8h0a2.22,2.22,0,0,1-2.2-2.2V150a2.22,2.22,0,0,1,2.2-2.2h0a2.22,2.22,0,0,1,2.2,2.2v5.7A2.2,2.2,0,0,1,214.9,157.8Z" transform="translate(0 0.318)" fill="none" stroke="#000" stroke-width="1.6"/>
    <path id="Path_27675" data-name="Path 27675" d="M205.3,166.7h-3.1a1.752,1.752,0,0,1-1.7-1.7h0a1.752,1.752,0,0,1,1.7-1.7h3.1A1.752,1.752,0,0,1,207,165h0A1.626,1.626,0,0,1,205.3,166.7Z" transform="translate(0 0.5)" fill="none" stroke="#000" stroke-width="1.6"/>
    <path id="Path_27676" data-name="Path 27676" d="M184.2,148.2c0-9.4,7.6-16,15.2-16a15.509,15.509,0,0,1,15.8,16" fill="none" stroke="#000" stroke-width="1.6"/>
    <path id="Path_27677" data-name="Path 27677" d="M214.9,157.8v3.4a3.585,3.585,0,0,1-3.6,3.6h-4.1" transform="translate(0 0.5)" fill="none" stroke="#000" stroke-width="1.6"/>
    <path id="Path_27678" data-name="Path 27678" d="M192.7,147.007v5.979a2.272,2.272,0,0,0,.7,1.876,3.742,3.742,0,0,0,1.876.7c.586,0,1.758-.352,1.758,1.29v2.931l3.517-3.4a2.364,2.364,0,0,1,1.524-.938h5.744a2.287,2.287,0,0,0,2.345-2.579v-8.089a2.277,2.277,0,0,0-2.579-2.579H195.163a2.283,2.283,0,0,0-2.462,2.345C192.7,147.241,192.7,147.007,192.7,147.007Z" transform="translate(-1.739 0.296)" fill="none" stroke="#000" stroke-linecap="round" stroke-linejoin="round" stroke-width="1.6"/>
    <ellipse id="Ellipse_1305" data-name="Ellipse 1305" cx="1.29" cy="1.29" rx="1.29" ry="1.29" transform="translate(194.361 147.954)" fill="#ea5839"/>
    <ellipse id="Ellipse_1306" data-name="Ellipse 1306" cx="1.29" cy="1.29" rx="1.29" ry="1.29" transform="translate(198.7 147.954)" fill="#ea5839"/>
    <ellipse id="Ellipse_1307" data-name="Ellipse 1307" cx="1.29" cy="1.29" rx="1.29" ry="1.29" transform="translate(203.153 147.954)" fill="#ea5839"/>
  </g>
</svg>
