<svg xmlns="http://www.w3.org/2000/svg" width="32.669" height="36.611" viewBox="0 0 32.669 36.611">
  <g id="圖層_6" transform="translate(-126.689 -131.556)">
    <g id="book" transform="translate(127.496 132.362)">
      <path id="Path_27668" d="M126.7,163.541v-29.79c0-2.15,2.608-2.15,2.608-2.15s22.067-.1,24.776,0c2.608.1,2.608,3.071,2.608,3.071v22.42c0,3.788-4.012,3.276-4.012,3.276H130.01a3.067,3.067,0,0,0-3.21,2.969c-.1.1-.1.1-.1.2a2.905,2.905,0,0,0,2.708,2.969h0s23.472.1,25.879,0a2.25,2.25,0,0,0,2.407-2.047" transform="translate(-126.695 -131.556)" fill="none" stroke="#040000" stroke-linecap="round" stroke-miterlimit="10" stroke-width="1.6"/>
      <g id="Group_16120" transform="translate(9.951 6.873)">
        <path id="Path_27669" d="M125.2,136.1v-.6c0-.3.1-.5.1-.7a2.614,2.614,0,0,1,.3-.8c.2-.4.4-.7.6-1.1a4.071,4.071,0,0,1,1.4-1.2,8.651,8.651,0,0,1,1.7-.7l.5-.1h.9a4.707,4.707,0,0,1,1.6.4,3.045,3.045,0,0,1,1.3.9,5.424,5.424,0,0,1,1.5,3.7,3.139,3.139,0,0,1-.7,2.1c-.5.6-1,1.2-1.5,1.7l-.3.3-.2.3c-.2.3-.5.5-.6.9a1.978,1.978,0,0,0-.2,1.1v.9h-2.9v-1l.1-.4a1.884,1.884,0,0,1,.2-.8l.3-.8a1.069,1.069,0,0,1,.3-.5l.3-.3.6-.6.3-.3.3-.3c.2-.1.3-.3.5-.4a2.181,2.181,0,0,0,.4-.5,1.746,1.746,0,0,0,.4-1.2,2.456,2.456,0,0,0-.5-1.5,2.175,2.175,0,0,0-3,0,2.976,2.976,0,0,0-.5,1.5Zm3.4,8.6h2.9v2.8h-2.9Z" transform="translate(-125.2 -130.9)" fill="#ea5839"/>
      </g>
    </g>
  </g>
</svg>
