<svg xmlns="http://www.w3.org/2000/svg" width="31.6" height="36.6" viewBox="0 0 31.6 36.6">
  <g id="圖層_1" transform="translate(-70.3 -131.4)">
    <g id="Group_16123" transform="translate(79.303 142.091)">
      <g id="id-card_1_">
        <path id="Path_27613" d="M74.3,143.1c1.2,0,2.5-.1,3.7,0a3.98,3.98,0,0,1,3.6,3.8v1.7a.806.806,0,0,1-1.6.2v-1.6a2.438,2.438,0,0,0-2.3-2.5H71.2a2.372,2.372,0,0,0-2.5,2.3v1.6a.806.806,0,0,1-1.6.2v-2.1a3.877,3.877,0,0,1,4.1-3.5,10.859,10.859,0,0,1,3.1-.1Z" transform="translate(-67.1 -133.4)" fill="#ea5839" stroke="#ea5839" stroke-width="0.25"/>
        <path id="Path_27614" d="M78.3,137.4a4,4,0,1,1-4-4A4.012,4.012,0,0,1,78.3,137.4Zm-4-2.4a2.456,2.456,0,0,0-2.4,2.5,2.5,2.5,0,0,0,2.4,2.4,2.451,2.451,0,0,0,0-4.9Z" transform="translate(-67.1 -133.4)" fill="#ea5839" stroke="#ea5839" stroke-width="0.25"/>
      </g>
    </g>
    <path id="Path_27672" data-name="Path 27672" d="M71.1,164.751v-30.1c0-1.327.825-2.449,1.856-2.449H99.244c1.031,0,1.856,1.122,1.856,2.449v30.1c0,1.327-.825,2.449-1.856,2.449H72.956C71.925,167.2,71.1,166.078,71.1,164.751Z" transform="translate(0 0)" fill="none" stroke="#040000" stroke-width="1.6"/>
  </g>
</svg>
