<?xml version="1.0" encoding="utf-8"?>
<!-- Generator: Adobe Illustrator 24.1.1, SVG Export Plug-In . SVG Version: 6.00 Build 0)  -->
<svg version="1.1" id="圖層_1" xmlns="http://www.w3.org/2000/svg" xmlns:xlink="http://www.w3.org/1999/xlink" x="0px" y="0px"
	 viewBox="0 0 104.4 44.7" style="enable-background:new 0 0 104.4 44.7;" xml:space="preserve">
<style type="text/css">
	.st0{fill:url(#SVGID_1_);}
	.st1{fill:#FFFFFF;stroke:url(#SVGID_2_);stroke-miterlimit:10;}
	.st2{fill:#FFFFFF;}
</style>
<g>
	<linearGradient id="SVGID_1_" gradientUnits="userSpaceOnUse" x1="9.6607" y1="22.3395" x2="104.407" y2="22.3395">
		<stop  offset="0" style="stop-color:#FF5733"/>
		<stop  offset="0.4573" style="stop-color:#F54F68"/>
		<stop  offset="0.8094" style="stop-color:#EE4A8A"/>
		<stop  offset="1" style="stop-color:#EC4897"/>
	</linearGradient>
	<path class="st0" d="M98.5,44.4H9.7l4.7-21L9.7,0.3h88.8c3.3,0,5.9,3.2,5.9,7v30C104.4,41.2,101.8,44.4,98.5,44.4z"/>
	<g>
		<linearGradient id="SVGID_2_" gradientUnits="userSpaceOnUse" x1="5.512153e-02" y1="22.4511" x2="28.3066" y2="22.4511">
			<stop  offset="0" style="stop-color:#FF5733"/>
			<stop  offset="1" style="stop-color:#FD4D59"/>
		</linearGradient>
		<path class="st1" d="M11.4,25.8c-3,0-5.8,0-8.6,0c-1.9,0-2.5-0.8-2.1-2.7C2.3,16.4,3.8,9.7,5.4,3C5.9,1,6.2,0.8,8.1,0.8
			c3.1,0,6.1,0,9.2,0c1.9,0,2.5,0.8,2.1,2.7c-0.9,3.7-1.7,7.4-2.6,11.1c-0.1,0.4-0.2,0.8-0.3,1.4c1.1,0,2.1,0,3.1,0
			c2.1,0,4.2,0,6.3,0c1.8,0,2.5,1.5,1.7,3.1c-0.1,0.3-0.3,0.5-0.4,0.7c-4.8,7.5-9.6,15.1-14.3,22.6c-0.9,1.5-2,1.9-3.7,1.5
			c-1.1-0.3-1.6-1.3-1.3-2.8c0.6-2.7,1.3-5.3,1.9-8C10.2,30.8,10.8,28.4,11.4,25.8z"/>
	</g>
	<g>
		<path class="st2" d="M40,14c0.7,1.1,1.6,2.7,1.9,3.7l-1.9,1c-0.1-0.3-0.2-0.7-0.4-1.1c-3.2,0.9-3.8,1.2-4.2,1.5
			c-0.1-0.6-0.4-1.6-0.8-2.1c0.3-0.2,0.7-0.5,0.7-1V6.7h6.2v7.2h-4.1v2.4l1.4-0.4c-0.2-0.4-0.4-0.7-0.5-1L40,14z M37.3,8.5v0.8h2.1
			V8.5H37.3z M39.4,12.1v-0.9h-2.1v0.9H39.4z M47.3,14.9c0,0.9-0.1,1.4-0.6,1.7c-0.5,0.3-1.1,0.3-2,0.3c-0.1-0.5-0.3-1.4-0.5-1.9
			c0.4,0,0.8,0,1,0c0.2,0,0.2,0,0.2-0.2V8.7h-1.2v10.7h-2V6.8h5.3V14.9z"/>
		<path class="st2" d="M56.8,13c-0.6,1-1.3,1.9-2.1,2.8c0.8,0.6,1.7,1.4,2.2,1.9L55.5,19c-0.4-0.5-1.3-1.3-2.1-2
			c-1.2,1-2.5,1.8-3.8,2.5c-0.2-0.4-0.8-1.3-1.2-1.8c2.7-1.1,5.2-3,6.5-5.4L56.8,13z M55.9,10.2c-1.3,2.7-3.5,4.9-6,6.3
			c-0.2-0.4-0.8-1.3-1.2-1.7c1.2-0.5,2.3-1.2,3.2-2.1c-1.8,0.1-2.2,0.2-2.5,0.4c-0.1-0.4-0.4-1.3-0.6-1.8c0.3-0.1,0.6-0.3,0.9-0.6
			c0.2-0.2,0.6-0.6,1-1.2h-2V7.6h3.2c-0.1-0.4-0.4-0.9-0.6-1.3l1.9-0.4c0.3,0.5,0.6,1.2,0.8,1.7h2.7v1.8H53
			c-0.4,0.5-0.9,1.1-1.4,1.6l1.8-0.1c0.3-0.4,0.5-0.9,0.7-1.3L55.9,10.2z M58.9,15.5H57V7.5h1.9V15.5z M61.4,6.2v10.9
			c0,1-0.2,1.6-0.8,1.9c-0.6,0.3-1.5,0.4-2.8,0.4c-0.1-0.5-0.4-1.4-0.6-1.9c0.7,0,1.6,0,1.9,0c0.3,0,0.4-0.1,0.4-0.3V6.2H61.4z"/>
		<path class="st2" d="M73.2,14.1c0.8,1.3,2,3,2.6,4.1l-1.8,1.1c-0.5-1.1-1.7-3-2.5-4.4l1.5-0.8h-1.3c-0.5,2-1.5,4-3.9,5.3
			c-0.3-0.4-1-1.2-1.5-1.6c2-0.9,2.9-2.3,3.3-3.7H67v-1.9h2.8c0-0.4,0-0.7,0-1V10h-2.2c0.2,0.4,0.3,0.8,0.4,1.2l-1.5,0.7
			c-0.1-0.4-0.2-0.8-0.4-1.3v8.9h-2v-7.9c-0.1,0.6-0.2,1.2-0.4,1.7l-1.5-0.5c0.3-1,0.6-2.5,0.7-3.7L64.1,9V6h2v2.7l0.8-0.3
			c0.2,0.5,0.5,1,0.7,1.5V8.1h2.3V6h2.1v2.1h3v4.1h0.7v1.9H73.2z M71.9,11.2c0,0.3,0,0.7,0,1h1V10h-1V11.2z"/>
		<path class="st2" d="M89.2,17c0,1.1-0.2,1.6-0.9,2c-0.7,0.3-1.6,0.4-2.9,0.4c-0.1-0.6-0.4-1.5-0.7-2.1c0.2,0,0.4,0,0.5,0
			c-0.5-0.6-1.3-1.4-2.2-2c-0.6,1-1.5,1.9-3,2.5c-0.2-0.4-0.6-1-0.9-1.3v2.8h-2V6.6h5.6V12h-3.6v4.3c2.4-1,2.8-2.6,3-4.1H84
			c-0.1,0.5-0.2,1-0.3,1.6c1.1,0.7,2.4,1.7,3.1,2.5l-1.2,1.1c0.5,0,1,0,1.2,0c0.3,0,0.4-0.1,0.4-0.4v-5h-3.7V6.6h5.7V17z M79.2,8.1
			v0.5h1.7V8.1H79.2z M80.8,10.4V9.9h-1.7v0.5H80.8z M85.4,8.1v0.5h1.7V8.1H85.4z M87.1,10.5V9.9h-1.7v0.5H87.1z"/>
		<path class="st2" d="M37.1,28.8c-0.1,0.3-0.3,0.5-0.4,0.8h6.4v6.9c0,0.9-0.2,1.5-0.8,1.8c-0.6,0.3-1.4,0.3-2.5,0.3
			c-0.1-0.6-0.3-1.4-0.6-2c0.6,0,1.4,0,1.6,0c0.2,0,0.3-0.1,0.3-0.3v-0.5h-4.9C36,37,35.5,38,34.6,38.7c-0.3-0.4-1.1-1.3-1.5-1.6
			c1.2-1,1.3-2.5,1.3-3.8v-0.6c-0.4,0.4-0.9,0.9-1.4,1.2c-0.3-0.5-1-1.2-1.4-1.6c1.3-0.9,2.4-2.1,3.2-3.5H32v-1.9h3.7
			c0.2-0.5,0.4-1.1,0.5-1.6l2.1,0.5c-0.1,0.4-0.3,0.8-0.4,1.2h6.7v1.9H37.1z M41.1,34.2v-0.6h-4.6c0,0.2,0,0.4,0,0.6H41.1z
			 M41.1,31.4h-4.6V32h4.6V31.4z"/>
		<path class="st2" d="M53.3,25.3c0,0.6,0,1.4-0.1,2.3c0.2,2,1.1,6.9,5.9,9.1c-0.6,0.5-1.2,1.2-1.5,1.8c-2.9-1.4-4.5-3.9-5.4-6.2
			c-0.8,2.3-2.3,4.6-4.9,6.3c-0.4-0.5-1-1.2-1.7-1.7c5.6-3.1,5.3-9.1,5.3-11.6H53.3z"/>
		<path class="st2" d="M64,28.8h2.1v1.7h-1.2l0.8,0.2c-0.2,0.4-0.4,0.9-0.6,1.2h0.7v1.7H64v0.9h2.1v1.7H64v2.4h-1.9v-2.4h-2.3v-1.7
			h2.3v-0.9h-2v-1.7H61c-0.1-0.4-0.3-0.9-0.4-1.2l0.7-0.2h-1.5v-1.7h2.3v-0.7h-1.9v-1.7h1.9v-1.1H64v1.1h1.8v1.7H64V28.8z
			 M63.4,31.9c0.2-0.4,0.4-1,0.5-1.4h-1.8c0.2,0.4,0.4,0.9,0.4,1.2L62,31.9H63.4z M72.7,31.1c-0.2,1.7-0.7,3.2-1.3,4.5
			c0.5,0.5,1.1,1,1.8,1.4c-0.4,0.4-1,1.1-1.3,1.6c-0.6-0.3-1.1-0.8-1.5-1.3c-0.4,0.5-0.9,1-1.4,1.4c-0.2-0.3-0.5-0.6-0.8-0.9v0.9
			h-1.8V25.8h6v2.6c0,0.8-0.2,1.3-0.8,1.6c-0.6,0.3-1.4,0.3-2.4,0.3c-0.1-0.5-0.3-1.3-0.5-1.7c0.6,0,1.4,0,1.6,0
			c0.2,0,0.3,0,0.3-0.2v-0.8h-2.3v3.1h3l0.3-0.1L72.7,31.1z M68.2,36.8c0.4-0.3,0.7-0.7,1-1.1c-0.4-0.7-0.7-1.4-1-2.2V36.8z
			 M69.5,32.3c0.2,0.5,0.4,1,0.7,1.5c0.2-0.5,0.3-1,0.5-1.5H69.5z"/>
		<path class="st2" d="M85.4,38.6h-2.1V38h-4.7v0.5h-2v-4.2c-0.6,0.2-1.3,0.4-1.9,0.5c-0.2-0.6-0.7-1.4-1-1.9
			c1.6-0.3,3.2-0.8,4.7-1.5c-0.5-0.5-1.3-1.2-1.9-1.7c-0.4,0.2-0.7,0.4-1.1,0.6c-0.3-0.5-0.9-1.3-1.4-1.6c2.3-1,3.8-2.3,4.7-3.6
			l2.3,0.5c-0.2,0.3-0.5,0.7-0.7,1h3.6l0.3-0.1l1.4,0.8c-0.9,1.9-2.3,3.5-4,4.7h4V38.6z M78,28.7c0.7,0.5,1.6,1.2,2.2,1.8
			c0.9-0.6,1.6-1.2,2.2-2h-4.1L78,28.7z M83.3,36.2v-2.3h-4.7v2.3H83.3z"/>
		<path class="st2" d="M88.6,35.9c0-0.9,0.6-1.5,1.5-1.5c0.9,0,1.5,0.7,1.5,1.5c0,0.9-0.6,1.6-1.5,1.6
			C89.3,37.4,88.6,36.8,88.6,35.9z M88.9,28.7l-0.1-2.2h2.5l-0.1,2.2l-0.4,4.7h-1.6L88.9,28.7z"/>
	</g>
</g>
</svg>
