<?xml version="1.0" encoding="utf-8"?>
<!-- Generator: Adobe Illustrator 24.1.1, SVG Export Plug-In . SVG Version: 6.00 Build 0)  -->
<svg version="1.1" id="圖層_1" xmlns="http://www.w3.org/2000/svg" xmlns:xlink="http://www.w3.org/1999/xlink" x="0px" y="0px"
	 viewBox="0 0 412.5 20" style="enable-background:new 0 0 412.5 20;" xml:space="preserve">
<style type="text/css">
	.st0{fill:#FFE600;}
	.st1{enable-background:new    ;}
</style>
<rect class="st0" width="412.5" height="20"/>
<g id="Navbar">
	<g class="st1">
		<path d="M169.1,4.9v3.6h1.7v1.2h-1.7v3.7c0.6-0.2,1.2-0.3,1.8-0.5v1.2c-1.8,0.6-3.7,1-6,1.4l-0.2-1.3c0.3,0,0.5-0.1,0.8-0.1v-7
			h1.2v6.8c0.4-0.1,0.7-0.2,1.1-0.2V4.9C167.8,4.9,169.1,4.9,169.1,4.9z M172.5,15.5c-0.9,0-1.4-0.5-1.4-1.5V4.8h1.2v3.8l3-0.2v1.2
			l-3,0.2v4c0,0.4,0.2,0.6,0.5,0.6h1.1c0.2,0,0.3-0.1,0.4-0.3c0.1-0.2,0.1-0.9,0.2-2.1l1.2,0.4c-0.1,1.6-0.3,2.5-0.5,2.8
			s-0.5,0.4-1,0.4h-1.7V15.5z"/>
		<path d="M177.7,15.9l-0.9-0.9c0.5-1,0.7-2.3,0.7-3.9V5.2h3.8v9.4c0,0.8-0.4,1.3-1.2,1.3h-1l-0.3-1.1c0.3,0,0.6,0,0.9,0
			c0.2,0,0.4-0.2,0.4-0.6v-2.3h-1.6C178.5,13.5,178.2,14.9,177.7,15.9z M180.2,6.3h-1.6V8h1.6V6.3z M178.6,10.8h1.6V9.1h-1.6V10.8z
			 M183.2,15.9H182V5.2h5.1c0,1.6-0.1,2.7-0.2,3.2c-0.1,0.5-0.6,0.8-1.4,0.8h-1l-0.3-1.1c0.2,0,0.5,0,0.8,0s0.4,0,0.5,0
			s0.2-0.1,0.3-0.3c0.1-0.2,0.1-0.7,0.1-1.4h-2.7v3.3h4v1c-0.2,1.1-0.6,2.1-1,2.9c0.5,0.5,1,0.9,1.6,1.2l-0.6,1.1
			c-0.7-0.4-1.2-0.8-1.7-1.3c-0.5,0.5-1.1,1-1.7,1.3l-0.6-0.9L183.2,15.9L183.2,15.9z M183.2,14.9c0.6-0.3,1.1-0.7,1.5-1.2
			c-0.7-0.9-1.1-1.9-1.4-3h-0.1V14.9z M185.4,12.7c0.3-0.6,0.6-1.2,0.8-2h-1.8C184.6,11.4,184.9,12.1,185.4,12.7z"/>
		<path d="M191.2,7.4c0.3-0.3,0.7-0.7,0.9-1.1H189V5.1h4.5v1c-0.5,0.8-1,1.4-1.6,2c0.2,0.1,0.3,0.3,0.4,0.4L192,8.8h1.7v1.1
			c-0.3,0.8-0.6,1.5-1,2.2l-0.7-0.7c0.2-0.4,0.4-0.8,0.7-1.4h-0.8v4.7c0,0.8-0.4,1.2-1.1,1.2h-1.1l-0.2-1.1c0.3,0,0.7,0.1,1,0.1
			c0.2,0,0.3-0.1,0.3-0.4v-3.8c-0.4,1.3-1,2.5-1.7,3.6l-0.5-1.2c0.7-0.9,1.2-1.9,1.6-3.1h-1.3V8.8h2.4c-0.5-0.5-1.1-1-1.8-1.5
			l0.8-0.7C190.5,6.9,190.9,7.1,191.2,7.4z M199.1,14.5c-0.1,0.8-0.7,1.2-1.8,1.2c-0.2,0-0.6,0-1.1-0.1l-0.3-1
			c0.4,0,0.8,0.1,1.2,0.1c0.5,0,0.8-0.2,0.9-0.7c0-0.2,0.1-0.9,0.1-2h-1.5c-0.1,0.7-0.3,1.2-0.6,1.7c-0.5,0.8-1.3,1.6-2.5,2.2
			l-0.8-1c1-0.5,1.8-1.1,2.2-1.7c0.2-0.3,0.3-0.7,0.4-1.1h-1.7v-1.2h1.9l0.1-0.9h1.2c0,0.3,0,0.6-0.1,0.9h2.4
			C199.2,12.9,199.2,14.1,199.1,14.5z M196.3,5c-0.1,0.3-0.2,0.5-0.3,0.7h3.4v1.1h-0.8c-0.3,0.7-0.6,1.4-1.1,1.8
			c0.6,0.3,1.3,0.6,2.1,0.8l-0.8,1c-0.9-0.3-1.6-0.6-2.2-1c-0.6,0.4-1.3,0.7-2.1,1l-0.7-0.9c0.7-0.3,1.3-0.5,1.8-0.8
			c-0.4-0.3-0.6-0.6-0.9-1l0.9-0.5c0.2,0.3,0.5,0.5,0.9,0.8c0.4-0.3,0.6-0.8,0.9-1.2h-2.1c-0.4,0.6-0.8,1.1-1.4,1.5l-0.7-0.9
			c0.8-0.7,1.4-1.6,1.7-2.6L196.3,5z"/>
		<path d="M206.9,5.6h4.6v1.2h-3.1l0.8,0.3c-0.2,0.4-0.4,0.8-0.6,1.1h2.5v6.3c0,0.9-0.4,1.3-1.2,1.3h-1.2l-0.3-1h-4.6v-3.2h4.8v3.1
			h0.9c0.3,0,0.4-0.2,0.4-0.5v-5h-1.8v0.6c0,0.2,0.1,0.4,0.3,0.4h1.1v1h-1.7c-0.6,0-0.9-0.3-0.9-0.9V9.2h-1.5
			c-0.1,0.7-0.3,1.2-0.6,1.6c-0.4,0.5-1,0.8-1.8,1.1l-0.5-0.9v4.7h-1.2V8.1h2.5c-0.2-0.4-0.3-0.7-0.5-1.1l0.8-0.3H201V5.5h4.6
			c-0.1-0.3-0.2-0.5-0.3-0.8l1.4-0.2C206.7,5,206.8,5.3,206.9,5.6z M203.9,10.2c0.2-0.2,0.3-0.6,0.4-0.9h-1.8V11
			C203.2,10.8,203.6,10.5,203.9,10.2z M207.2,8.2c0.3-0.4,0.5-0.9,0.7-1.4h-3.5c0.2,0.4,0.4,0.9,0.6,1.4H207.2z M207.4,12.7H205v1.1
			h2.4V12.7z"/>
		<path d="M218.9,4.8v1.6h4v1.2h-4v1.7h4.6v1.2h-3.6c0.8,1.4,2.1,2.6,3.9,3.7l-0.9,1.1c-1.9-1.4-3.2-3-4-4.8l0,0v5.3h-1.3v-5.3l0,0
			c-0.9,1.9-2.2,3.5-4.1,4.8l-0.7-1.2c1.7-1,3-2.2,3.9-3.6H213V9.3h4.6V7.6h-3.9V6.4h3.9V4.9h1.3V4.8z"/>
		<path d="M230.3,4.8v3.6h4.4v1.2h-4.4v4.7h5.3v1.2h-10.8v-1.2h4.2V4.8C229,4.8,230.3,4.8,230.3,4.8z"/>
		<path d="M239.8,4.8v1h2.4c0,2.2-0.2,3.5-0.4,3.9c-0.3,0.4-0.7,0.6-1.4,0.6c-0.2,0-0.4,0-0.7-0.1l-0.3-1.1c0.3,0,0.5,0.1,0.7,0.1
			c0.4,0,0.6-0.1,0.7-0.4c0.1-0.2,0.1-0.9,0.2-2h-1.3c-0.2,1.6-0.9,2.9-2.1,3.7l-0.9-0.8c1-0.6,1.6-1.6,1.8-2.9H237V5.7h1.6v-1
			L239.8,4.8L239.8,4.8z M241.1,13.4c-0.9,0.9-2.1,1.7-3.5,2.4l-0.7-1c1.3-0.6,2.5-1.3,3.4-2.2L241.1,13.4z M241.6,11.2v-0.9h1.2
			v0.9h4.7v1.2h-4.7v3.5h-1.2v-3.5h-4.7v-1.2H241.6z M247.1,5.5V10H243V5.5H247.1z M247.6,14.8l-0.8,0.9c-1.1-0.9-2.2-1.7-3.4-2.3
			l0.7-0.8C245.4,13.3,246.6,14,247.6,14.8z M246,6.6h-1.8v2.2h1.8V6.6z"/>
	</g>
</g>
<path id="Path_2934" d="M32.6,0l11,20H53L41.7,0H32.6z"/>
<path id="Path_2935" d="M293.8,0l11,20h9.5L302.9,0H293.8z"/>
<path id="Path_2936" d="M51.6,0l11,20H72L60.7,0H51.6z"/>
<path id="Path_2937" d="M312.8,0l11,20h9.5L321.9,0H312.8z"/>
<path id="Path_2938" d="M70.6,0l11,20H91L79.7,0H70.6z"/>
<path id="Path_2939" d="M331.8,0l11,20h9.5L340.9,0H331.8z"/>
<path id="Path_2940" d="M89.6,0l11,20h9.5L98.7,0H89.6z"/>
<path id="Path_2941" d="M350.8,0l11,20h9.5L359.9,0H350.8z"/>
<path id="Path_2942" d="M108.6,0l11,20h9.5L117.7,0H108.6z"/>
<path id="Path_2943" d="M369.8,0l11,20h9.5L378.9,0H369.8z"/>
</svg>
