<?xml version="1.0" encoding="utf-8"?>
<!-- Generator: Adobe Illustrator 25.2.1, SVG Export Plug-In . SVG Version: 6.00 Build 0)  -->
<svg version="1.1" id="圖層_1" xmlns="http://www.w3.org/2000/svg" xmlns:xlink="http://www.w3.org/1999/xlink" x="0px" y="0px"
	 viewBox="0 0 412.5 35.5" style="enable-background:new 0 0 412.5 35.5;" xml:space="preserve">
<style type="text/css">
	.st0{fill:#FFE600;stroke:#EAEAEA;stroke-width:0.5;}
	.st1{enable-background:new    ;}
</style>
<rect class="st0" width="412.5" height="35.5"/>
<g id="Navbar">
	<g class="st1">
		<path d="M169.1,13.5v3.6h1.7v1.2h-1.7V22c0.6-0.2,1.2-0.3,1.8-0.5v1.2c-1.8,0.6-3.7,1-6,1.4l-0.2-1.3c0.3,0,0.5-0.1,0.8-0.1v-7
			h1.2v6.8c0.4-0.1,0.7-0.2,1.1-0.2v-8.8H169.1z M172.5,24.1c-0.9,0-1.4-0.5-1.4-1.5v-9.2h1.2v3.8l3-0.2v1.2l-3,0.2v4
			c0,0.4,0.2,0.6,0.5,0.6h1.1c0.2,0,0.3-0.1,0.4-0.3c0.1-0.2,0.1-0.9,0.2-2.1l1.2,0.4c-0.1,1.6-0.3,2.5-0.5,2.8
			c-0.2,0.3-0.5,0.4-1,0.4H172.5z"/>
		<path d="M177.7,24.5l-0.9-0.9c0.5-1,0.7-2.3,0.7-3.9v-5.9h3.8v9.4c0,0.8-0.4,1.3-1.2,1.3h-1l-0.3-1.1c0.3,0,0.6,0,0.9,0
			c0.2,0,0.4-0.2,0.4-0.6v-2.3h-1.6C178.5,22.1,178.2,23.5,177.7,24.5z M180.2,14.9h-1.6v1.7h1.6V14.9z M178.6,19.4h1.6v-1.7h-1.6
			V19.4z M183.2,24.5H182V13.8h5.1c0,1.6-0.1,2.7-0.2,3.2c-0.1,0.5-0.6,0.8-1.4,0.8h-1l-0.3-1.1c0.2,0,0.5,0,0.8,0
			c0.3,0,0.4,0,0.5,0c0.1,0,0.2-0.1,0.3-0.3c0.1-0.2,0.1-0.7,0.1-1.4h-2.7v3.3h4v1c-0.2,1.1-0.6,2.1-1,2.9c0.5,0.5,1,0.9,1.6,1.2
			l-0.6,1.1c-0.7-0.4-1.2-0.8-1.7-1.3c-0.5,0.5-1.1,1-1.7,1.3l-0.6-0.9V24.5z M183.2,23.5c0.6-0.3,1.1-0.7,1.5-1.2
			c-0.7-0.9-1.1-1.9-1.4-3h-0.1V23.5z M185.4,21.3c0.3-0.6,0.6-1.2,0.8-2h-1.8C184.6,20,184.9,20.7,185.4,21.3z"/>
		<path d="M191.2,16c0.3-0.3,0.7-0.7,0.9-1.1h-3.1v-1.2h4.5v1c-0.5,0.8-1,1.4-1.6,2c0.2,0.1,0.3,0.3,0.4,0.4l-0.3,0.3h1.7v1.1
			c-0.3,0.8-0.6,1.5-1,2.2L192,20c0.2-0.4,0.4-0.8,0.7-1.4h-0.8v4.7c0,0.8-0.4,1.2-1.1,1.2h-1.1l-0.2-1.1c0.3,0,0.7,0.1,1,0.1
			c0.2,0,0.3-0.1,0.3-0.4v-3.8c-0.4,1.3-1,2.5-1.7,3.6l-0.5-1.2c0.7-0.9,1.2-1.9,1.6-3.1h-1.3v-1.2h2.4c-0.5-0.5-1.1-1-1.8-1.5
			l0.8-0.7C190.5,15.5,190.9,15.7,191.2,16z M199.1,23.1c-0.1,0.8-0.7,1.2-1.8,1.2c-0.2,0-0.6,0-1.1-0.1l-0.3-1
			c0.4,0,0.8,0.1,1.2,0.1c0.5,0,0.8-0.2,0.9-0.7c0-0.2,0.1-0.9,0.1-2h-1.5c-0.1,0.7-0.3,1.2-0.6,1.7c-0.5,0.8-1.3,1.6-2.5,2.2
			l-0.8-1c1-0.5,1.8-1.1,2.2-1.7c0.2-0.3,0.3-0.7,0.4-1.1h-1.7v-1.2h1.9l0.1-0.9h1.2c0,0.3,0,0.6-0.1,0.9h2.4
			C199.2,21.5,199.2,22.7,199.1,23.1z M196.3,13.6c-0.1,0.3-0.2,0.5-0.3,0.7h3.4v1.1h-0.8c-0.3,0.7-0.6,1.4-1.1,1.8
			c0.6,0.3,1.3,0.6,2.1,0.8l-0.8,1c-0.9-0.3-1.6-0.6-2.2-1c-0.6,0.4-1.3,0.7-2.1,1l-0.7-0.9c0.7-0.3,1.3-0.5,1.8-0.8
			c-0.4-0.3-0.6-0.6-0.9-1l0.9-0.5c0.2,0.3,0.5,0.5,0.9,0.8c0.4-0.3,0.6-0.8,0.9-1.2h-2.1c-0.4,0.6-0.8,1.1-1.4,1.5l-0.7-0.9
			c0.8-0.7,1.4-1.6,1.7-2.6L196.3,13.6z"/>
		<path d="M206.9,14.2h4.6v1.2h-3.1l0.8,0.3c-0.2,0.4-0.4,0.8-0.6,1.1h2.5v6.3c0,0.9-0.4,1.3-1.2,1.3h-1.2l-0.3-1h-4.6v-3.2h4.8v3.1
			l0.9,0c0.3,0,0.4-0.2,0.4-0.5v-5h-1.8v0.6c0,0.2,0.1,0.4,0.3,0.4h1.1v1h-1.7c-0.6,0-0.9-0.3-0.9-0.9v-1.1h-1.5
			c-0.1,0.7-0.3,1.2-0.6,1.6c-0.4,0.5-1,0.8-1.8,1.1l-0.5-0.9v4.7h-1.2v-7.6h2.5c-0.2-0.4-0.3-0.7-0.5-1.1l0.8-0.3H201v-1.2h4.6
			c-0.1-0.3-0.2-0.5-0.3-0.8l1.4-0.2C206.7,13.6,206.8,13.9,206.9,14.2z M203.9,18.8c0.2-0.2,0.3-0.6,0.4-0.9h-1.8v1.7
			C203.2,19.4,203.6,19.1,203.9,18.8z M207.2,16.8c0.3-0.4,0.5-0.9,0.7-1.4h-3.5c0.2,0.4,0.4,0.9,0.6,1.4H207.2z M207.4,21.3H205
			v1.1h2.4V21.3z"/>
		<path d="M218.9,13.4V15h4v1.2h-4v1.7h4.6v1.2h-3.6c0.8,1.4,2.1,2.6,3.9,3.7l-0.9,1.1c-1.9-1.4-3.2-3-4-4.8h0v5.3h-1.3v-5.3h0
			c-0.9,1.9-2.2,3.5-4.1,4.8l-0.7-1.2c1.7-1,3-2.2,3.9-3.6H213v-1.2h4.6v-1.7h-3.9V15h3.9v-1.5H218.9z"/>
		<path d="M230.3,13.4V17h4.4v1.2h-4.4v4.7h5.3v1.2h-10.8v-1.2h4.2v-9.5H230.3z"/>
		<path d="M239.8,13.4v1h2.4c0,2.2-0.2,3.5-0.4,3.9c-0.3,0.4-0.7,0.6-1.4,0.6c-0.2,0-0.4,0-0.7-0.1l-0.3-1.1c0.3,0,0.5,0.1,0.7,0.1
			c0.4,0,0.6-0.1,0.7-0.4c0.1-0.2,0.1-0.9,0.2-2h-1.3c-0.2,1.6-0.9,2.9-2.1,3.7l-0.9-0.8c1-0.6,1.6-1.6,1.8-2.9H237v-1.1h1.6v-1
			H239.8z M241.1,22c-0.9,0.9-2.1,1.7-3.5,2.4l-0.7-1c1.3-0.6,2.5-1.3,3.4-2.2L241.1,22z M241.6,19.8v-0.9h1.2v0.9h4.7V21h-4.7v3.5
			h-1.2V21h-4.7v-1.2H241.6z M247.1,14.1v4.5H243v-4.5H247.1z M247.6,23.4l-0.8,0.9c-1.1-0.9-2.2-1.7-3.4-2.3l0.7-0.8
			C245.4,21.9,246.6,22.6,247.6,23.4z M246,15.2h-1.8v2.2h1.8V15.2z"/>
	</g>
</g>
<path id="Path_2934" d="M32.6,0.2l11,35.1H53L41.7,0.2H32.6z"/>
<path id="Path_2935" d="M293.8,0.2l11,35.1h9.5L302.9,0.2H293.8z"/>
<path id="Path_2936" d="M51.6,0.2l11,35.1H72L60.7,0.2H51.6z"/>
<path id="Path_2937" d="M312.8,0.2l11,35.1h9.5L321.9,0.2H312.8z"/>
<path id="Path_2938" d="M70.6,0.2l11,35.1H91L79.7,0.2H70.6z"/>
<path id="Path_2939" d="M331.8,0.2l11,35.1h9.5L340.9,0.2H331.8z"/>
<path id="Path_2940" d="M89.6,0.2l11,35.1h9.5L98.7,0.2H89.6z"/>
<path id="Path_2941" d="M350.8,0.2l11,35.1h9.5L359.9,0.2H350.8z"/>
<path id="Path_2942" d="M108.6,0.2l11,35.1h9.5L117.7,0.2H108.6z"/>
<path id="Path_2943" d="M369.8,0.2l11,35.1h9.5L378.9,0.2H369.8z"/>
</svg>
