<svg width="15" height="15" viewBox="0 0 15 15" fill="none" xmlns="http://www.w3.org/2000/svg">
<g id="Iconly/Bold/Work">
<g id="Work">
<path id="Vector" d="M14.8574 8.11143C14.9115 8.14181 14.9223 8.20621 14.9244 8.23076L14.925 8.24054L14.8649 12.1139C14.8649 13.659 13.6678 14.919 12.1603 14.9962L12.0135 15H2.97899C1.45245 15 0.207584 13.7883 0.131271 12.2625L0.127564 12.1139L0.0750375 8.24054C0.0750375 8.24054 0.0750375 8.1494 0.142571 8.11143C0.202601 8.07345 0.277639 8.11902 0.285143 8.12662C1.8009 9.14433 3.62431 9.82028 5.53777 10.1013C5.8079 10.1393 6.07804 9.96458 6.15308 9.69117C6.30784 9.10731 6.78577 8.71036 7.37045 8.66302L7.48874 8.65826H7.51126C8.14907 8.65826 8.68184 9.06838 8.84692 9.69117C8.92196 9.96458 9.1921 10.1393 9.46223 10.1013C11.3757 9.82028 13.1991 9.14433 14.7149 8.12662C14.7149 8.12662 14.7299 8.11902 14.7449 8.11143C14.7749 8.09624 14.8199 8.08864 14.8574 8.11143ZM7.49625 9.74433C7.21423 9.74433 6.97635 9.96131 6.93866 10.2373L6.93347 10.3139V11.2937C6.93347 11.6127 7.18859 11.8633 7.49625 11.8633C7.78514 11.8633 8.01729 11.6527 8.05398 11.3719L8.05903 11.2937V10.3139C8.05903 10.0026 7.81141 9.74433 7.49625 9.74433ZM8.46423 0C9.5898 0 10.5128 0.858223 10.6553 1.95948H12.1411C13.7169 1.95948 15 3.25821 15 4.85314C15 4.85314 14.955 5.52833 14.94 6.46857C14.9385 6.543 14.9025 6.61592 14.8432 6.65997C14.4822 6.92655 14.1521 7.1468 14.1221 7.16199C12.8764 7.99743 11.429 8.58527 9.88694 8.87768C9.78639 8.89742 9.68734 8.84502 9.63632 8.7554C9.2041 8.00654 8.3967 7.51895 7.49625 7.51895C6.6018 7.51895 5.78689 8.00123 5.34192 8.75084C5.29015 8.83894 5.1926 8.88983 5.0928 8.87084C3.56353 8.57768 2.11606 7.99059 0.877939 7.16958L0.157579 6.66832C0.0975488 6.63035 0.06003 6.56199 0.06003 6.48604C0.0375188 6.0987 0 4.85314 0 4.85314C0 3.25821 1.28314 1.95948 2.85893 1.95948H4.33717C4.47974 0.858223 5.4027 0 6.52826 0H8.46423ZM8.46423 1.13923H6.52826C6.02551 1.13923 5.5978 1.4886 5.47774 1.95948H9.51476C9.3947 1.4886 8.96698 1.13923 8.46423 1.13923Z" fill="#FF5733"/>
</g>
</g>
</svg>
