<svg width="23" height="24" viewBox="0 0 23 24" fill="none" xmlns="http://www.w3.org/2000/svg">
<g id="map-pin">
<path id="Vector" d="M20.125 10C20.125 17 11.5 23 11.5 23C11.5 23 2.875 17 2.875 10C2.875 7.61305 3.7837 5.32387 5.4012 3.63604C7.0187 1.94821 9.21251 1 11.5 1C13.7875 1 15.9813 1.94821 17.5988 3.63604C19.2163 5.32387 20.125 7.61305 20.125 10Z" fill="#7C7C7C" stroke="#7C7C7C" stroke-linecap="round" stroke-linejoin="round"/>
<path id="Vector_2" d="M11.5 13C13.0878 13 14.375 11.6569 14.375 10C14.375 8.34315 13.0878 7 11.5 7C9.91218 7 8.625 8.34315 8.625 10C8.625 11.6569 9.91218 13 11.5 13Z" fill="white" stroke="white" stroke-linecap="round" stroke-linejoin="round"/>
</g>
</svg>
