<?xml version="1.0" encoding="utf-8"?>
<!-- Generator: Adobe Illustrator 25.0.1, SVG Export Plug-In . SVG Version: 6.00 Build 0)  -->
<svg version="1.1" id="圖層_1" xmlns="http://www.w3.org/2000/svg" xmlns:xlink="http://www.w3.org/1999/xlink" x="0px" y="0px"
	 viewBox="0 0 16.7 15.4" style="enable-background:new 0 0 16.7 15.4;" xml:space="preserve">
<style type="text/css">
	.st0{fill:#FB503E;}
</style>
<g id="ph:chat-light">
	<path id="Vector" class="st0" d="M15.6,0H1.1C0.8,0,0.6,0.1,0.3,0.3C0.1,0.6,0,0.8,0,1.1v13.1c0,0.2,0.1,0.4,0.2,0.6
		c0.1,0.2,0.3,0.3,0.5,0.4c0.2,0.1,0.3,0.1,0.5,0.1c0.3,0,0.5-0.1,0.7-0.3l0,0l2.7-2.3h11c0.3,0,0.6-0.1,0.8-0.3
		c0.2-0.2,0.3-0.5,0.3-0.8V1.1c0-0.3-0.1-0.6-0.3-0.8C16.2,0.1,15.9,0,15.6,0z M15.7,11.6c0,0,0,0.1,0,0.1c0,0-0.1,0-0.1,0H4.4
		c-0.1,0-0.2,0-0.3,0.1l-2.9,2.5c0,0-0.1,0-0.1,0c0,0-0.1,0-0.1,0c0,0-0.1,0-0.1-0.1s0-0.1,0-0.1V1.1c0,0,0-0.1,0-0.1
		c0,0,0.1,0,0.1,0h14.4c0,0,0.1,0,0.1,0c0,0,0,0.1,0,0.1V11.6z"/>
	<circle id="Ellipse_190" class="st0" cx="5.9" cy="5.9" r="1"/>
	<circle id="Ellipse_191" class="st0" cx="8.9" cy="5.9" r="1"/>
	<circle id="Ellipse_192" class="st0" cx="11.9" cy="5.9" r="1"/>
</g>
</svg>
