<svg width="44" height="44" viewBox="0 0 44 44" fill="none" xmlns="http://www.w3.org/2000/svg">
<g id="simple-line-icons:check" clip-path="url(#clip0_1_1899)">
<path id="Vector" d="M22 0C9.84981 0 0 9.84981 0 22C0 34.1509 9.84981 44 22 44C34.1509 44 44 34.1509 44 22C44 9.84981 34.1509 0 22 0ZM22 41.2933C11.3857 41.2933 2.75 32.6143 2.75 21.9999C2.75 11.3856 11.3857 2.74991 22 2.74991C32.6143 2.74991 41.25 11.3856 41.25 21.9999C41.25 32.6142 32.6143 41.2933 22 41.2933ZM30.7801 13.9501L17.8722 26.939L12.0594 21.1262C11.5225 20.5893 10.6521 20.5893 10.1145 21.1262C9.57752 21.6631 9.57752 22.5335 10.1145 23.0704L16.92 29.8767C17.457 30.4129 18.3273 30.4129 18.865 29.8767C18.9268 29.8148 18.9798 29.7474 19.0279 29.6773L32.7257 15.895C33.2619 15.358 33.2619 14.4876 32.7257 13.9501C32.1881 13.4131 31.3177 13.4131 30.7801 13.9501Z" fill="url(#paint0_linear_1_1899)"/>
</g>
<defs>
<linearGradient id="paint0_linear_1_1899" x1="0" y1="22" x2="44" y2="22" gradientUnits="userSpaceOnUse">
<stop stop-color="#FB503E"/>
<stop offset="1" stop-color="#EF4B8A"/>
</linearGradient>
<clipPath id="clip0_1_1899">
<rect width="44" height="44" fill="white"/>
</clipPath>
</defs>
</svg>
