<svg width="23" height="24" viewBox="0 0 23 24" fill="none" xmlns="http://www.w3.org/2000/svg">
<g id="image">
<path id="Vector" d="M18.2083 3H4.79167C3.73312 3 2.875 3.89543 2.875 5V19C2.875 20.1046 3.73312 21 4.79167 21H18.2083C19.2669 21 20.125 20.1046 20.125 19V5C20.125 3.89543 19.2669 3 18.2083 3Z" fill="#7C7C7C" stroke="#7C7C7C" stroke-linecap="round" stroke-linejoin="round"/>
<path id="Vector_2" d="M8.14551 10C8.93942 10 9.58301 9.32843 9.58301 8.5C9.58301 7.67157 8.93942 7 8.14551 7C7.3516 7 6.70801 7.67157 6.70801 8.5C6.70801 9.32843 7.3516 10 8.14551 10Z" fill="white" stroke="white" stroke-linecap="round" stroke-linejoin="round"/>
<g id="Vector_3">
<path d="M19.1663 19.5L15.333 10L5.27051 19.5" fill="white"/>
<path d="M19.1663 19.5L15.333 10L5.27051 19.5H19.1663Z" stroke="white" stroke-linecap="round" stroke-linejoin="round"/>
</g>
</g>
</svg>
