<svg width="96" height="34" viewBox="0 0 96 34" fill="none" xmlns="http://www.w3.org/2000/svg">
<rect x="0.25" y="0.25" width="94.7318" height="32.5815" rx="16.2908" fill="white"/>
<rect x="0.25" y="0.25" width="94.7318" height="32.5815" rx="16.2908" stroke="#FFDB96" stroke-width="0.5"/>
<path d="M25.0265 22.2485H15.2053C15.0259 22.2485 14.8799 22.4038 14.8799 22.5948V22.7687C14.8799 22.9595 15.0259 23.1148 15.2053 23.1148H25.0264C25.2058 23.1148 25.3518 22.9596 25.3518 22.7687L25.3519 22.5947C25.3519 22.4038 25.2059 22.2485 25.0265 22.2485Z" fill="url(#paint0_linear_153_745)"/>
<path d="M21.4912 10.0308C21.4912 9.22385 20.8741 8.56738 20.1157 8.56738C19.3573 8.56738 18.7402 9.22389 18.7402 10.0308C18.7402 10.8377 19.3573 11.4942 20.1157 11.4942C20.8741 11.4942 21.4912 10.8377 21.4912 10.0308Z" fill="url(#paint1_linear_153_745)"/>
<path d="M25.9842 14.6162C25.5 14.7975 24.9921 14.8895 24.4715 14.8895C23.5296 14.8895 22.6252 14.5869 21.8562 14.0144C21.1505 13.489 20.6048 12.7732 20.2699 11.9365C20.2191 11.9411 20.1679 11.944 20.1161 11.944C20.0643 11.944 20.0131 11.9411 19.9624 11.9365C19.6275 12.7732 19.0817 13.489 18.3759 14.0144C17.6069 14.5869 16.7026 14.8895 15.7607 14.8895C15.24 14.8895 14.732 14.7975 14.248 14.6162C14.1045 14.8192 13.9125 14.9813 13.6904 15.0829L15.3036 21.7986H24.9286L26.5417 15.0828C26.3197 14.9813 26.1277 14.8192 25.9842 14.6162Z" fill="url(#paint2_linear_153_745)"/>
<path d="M14.1002 13.7398C14.1002 13.1822 13.6738 12.7285 13.1497 12.7285C12.6256 12.7285 12.1992 13.1822 12.1992 13.7398C12.1992 14.2973 12.6256 14.751 13.1497 14.751C13.6738 14.751 14.1002 14.2973 14.1002 13.7398Z" fill="url(#paint3_linear_153_745)"/>
<path d="M27.0823 12.7285C26.5582 12.7285 26.1318 13.1822 26.1318 13.7398C26.1318 14.2973 26.5582 14.751 27.0823 14.751C27.6064 14.751 28.0328 14.2973 28.0328 13.7398C28.0328 13.1822 27.6064 12.7285 27.0823 12.7285Z" fill="url(#paint4_linear_153_745)"/>
<path d="M37.1748 10.7559H38.0628V21.7839H37.1748V10.7559ZM36.0948 13.0719L36.7788 13.1799C36.7188 14.1519 36.4908 15.5319 36.1788 16.4079L35.4708 16.1679C35.7828 15.3639 36.0108 14.0439 36.0948 13.0719ZM38.0868 12.9639L38.7348 12.6879C39.1068 13.3959 39.5028 14.3199 39.6588 14.8719L38.9748 15.2199C38.8428 14.6439 38.4468 13.6839 38.0868 12.9639ZM39.7308 12.6759H45.6708V16.7559H44.7828V13.5279H39.7308V12.6759ZM39.0948 16.2759H46.7028V17.1399H39.0948V16.2759ZM43.1268 16.4559C43.6908 18.5319 44.9268 20.3079 46.8108 21.0039C46.5948 21.1959 46.3068 21.5799 46.1628 21.8319C44.1708 20.9679 42.9708 19.0359 42.3228 16.6239L43.1268 16.4559ZM42.0828 10.7559H42.9828V14.7639C42.9828 17.1159 42.6828 20.0079 39.3228 21.8439C39.2028 21.6519 38.9028 21.3279 38.6988 21.1479C41.9628 19.5159 42.0828 16.8639 42.0828 14.7639V10.7559ZM52.6428 15.7719H53.4828C53.2428 18.0279 52.6428 19.8639 50.1948 20.8239C50.0988 20.6079 49.8708 20.3079 49.6788 20.1519C51.9468 19.3239 52.4508 17.7039 52.6428 15.7719ZM53.3988 16.0239C53.5788 17.3319 54.0468 19.2159 56.2548 20.0799C56.0628 20.2359 55.8228 20.5479 55.7028 20.7639C53.3508 19.7799 52.8948 17.5719 52.6668 16.1079L53.3988 16.0239ZM48.6588 13.0119H51.9948V13.6839H48.6588V13.0119ZM54.1908 13.0119H57.5868V13.6839H54.1908V13.0119ZM57.1908 11.2719H58.0908V20.5959C58.0908 21.1959 57.9468 21.4839 57.5628 21.6399C57.1548 21.7839 56.4588 21.7959 55.4028 21.7959C55.3668 21.5439 55.2108 21.1239 55.0788 20.8719C55.8708 20.9079 56.6628 20.8959 56.8908 20.8839C57.1188 20.8839 57.1908 20.8119 57.1908 20.5839V11.2719ZM48.7308 11.2719H52.5708V15.5079H48.7308V14.7759H51.7188V12.0039H48.7308V11.2719ZM57.6588 11.2719V11.9919H54.5148V14.7879H57.6588V15.5079H53.6508V11.2719H57.6588ZM48.2268 11.2719H49.1148V21.8079H48.2268V11.2719ZM60.6228 17.0559H69.7068V17.8359H60.6228V17.0559ZM61.1748 18.8679H69.1668V19.6359H61.1748V18.8679ZM59.8788 20.7159H70.4028V21.5199H59.8788V20.7159ZM62.0148 14.3679V15.4479H68.2788V14.3679H62.0148ZM62.0148 12.6039V13.6719H68.2788V12.6039H62.0148ZM61.1148 11.8719H69.2028V16.1799H61.1148V11.8719ZM64.7028 17.4399H65.6268V21.1119H64.7028V17.4399ZM64.6788 10.7559L65.7468 10.8639C65.4948 11.4159 65.2068 11.9439 64.9788 12.3279L64.0908 12.1959C64.3068 11.7759 64.5588 11.1639 64.6788 10.7559ZM73.3908 14.0919H82.6788V14.9559H73.3908V14.0919ZM75.3108 20.3439H81.0348V21.1959H75.3108V20.3439ZM72.9228 11.6799L74.0748 11.9079C74.0628 12.0039 73.9908 12.0519 73.8228 12.0759V15.0639C73.8228 17.0079 73.6428 19.8279 72.2148 21.8199C72.0828 21.6159 71.7468 21.3159 71.5068 21.2079C72.7908 19.3839 72.9228 16.8999 72.9228 15.0519V11.6799ZM80.9268 10.8639L81.6828 11.5719C79.4988 12.1359 76.1988 12.5079 73.3788 12.6999C73.3548 12.4719 73.2228 12.1239 73.1388 11.9319C75.8988 11.7279 79.1268 11.3319 80.9268 10.8639ZM74.8668 16.6719H81.6348V21.7959H80.7228V17.5119H75.7308V21.8079H74.8668V16.6719Z" fill="#1E1E1E"/>
<defs>
<linearGradient id="paint0_linear_153_745" x1="20.1159" y1="22.2485" x2="20.1159" y2="23.1148" gradientUnits="userSpaceOnUse">
<stop stop-color="#FFA439"/>
<stop offset="1" stop-color="#FFD37C"/>
</linearGradient>
<linearGradient id="paint1_linear_153_745" x1="20.1157" y1="8.56738" x2="20.1157" y2="11.4942" gradientUnits="userSpaceOnUse">
<stop stop-color="#FFA439"/>
<stop offset="1" stop-color="#FFD37C"/>
</linearGradient>
<linearGradient id="paint2_linear_153_745" x1="20.1161" y1="11.9365" x2="20.1161" y2="21.7986" gradientUnits="userSpaceOnUse">
<stop stop-color="#FFA439"/>
<stop offset="1" stop-color="#FFD37C"/>
</linearGradient>
<linearGradient id="paint3_linear_153_745" x1="13.1497" y1="12.7285" x2="13.1497" y2="14.751" gradientUnits="userSpaceOnUse">
<stop stop-color="#FFA439"/>
<stop offset="1" stop-color="#FFD37C"/>
</linearGradient>
<linearGradient id="paint4_linear_153_745" x1="27.0823" y1="12.7285" x2="27.0823" y2="14.751" gradientUnits="userSpaceOnUse">
<stop stop-color="#FFA439"/>
<stop offset="1" stop-color="#FFD37C"/>
</linearGradient>
</defs>
</svg>
