<svg xmlns="http://www.w3.org/2000/svg" width="75" height="75" viewBox="0 0 75 75">
  <path id="user" d="M75,37.5A37.5,37.5,0,1,0,12.172,65.125l-.035.031,1.216,1.025c.079.067.165.121.244.187.646.536,1.316,1.045,2,1.537.221.16.442.319.667.475q1.092.753,2.239,1.429c.166.1.334.194.5.289.836.476,1.69.925,2.564,1.336.064.03.13.057.194.087a37.162,37.162,0,0,0,9.07,2.87l.251.045c.987.17,1.985.307,3,.4.123.011.245.018.37.029,1.006.083,2.024.136,3.055.136s2.029-.053,3.03-.134c.127-.011.254-.018.38-.029q1.5-.137,2.97-.391l.255-.046a37.161,37.161,0,0,0,8.941-2.8c.1-.048.209-.093.312-.142q1.262-.593,2.47-1.276.3-.17.6-.345c.734-.432,1.455-.884,2.156-1.364.252-.172.5-.353.749-.533.6-.431,1.186-.875,1.758-1.34.127-.1.263-.191.387-.3l1.248-1.042-.037-.031A37.4,37.4,0,0,0,75,37.5Zm-72.273,0a34.773,34.773,0,1,1,57.833,26,10.22,10.22,0,0,0-1.218-.732L47.8,56.99a3.023,3.023,0,0,1-1.68-2.718V50.24c.267-.33.55-.7.841-1.114a27.788,27.788,0,0,0,3.567-6.986,4.949,4.949,0,0,0,2.843-4.485V32.821a4.961,4.961,0,0,0-1.21-3.23V23.227a11,11,0,0,0-2.568-8c-2.513-2.869-6.581-4.321-12.091-4.321s-9.578,1.452-12.091,4.32a11,11,0,0,0-2.568,8V29.59a4.969,4.969,0,0,0-1.21,3.23v4.834A4.96,4.96,0,0,0,23.459,41.5a25.623,25.623,0,0,0,4.218,8.712V54.16a3.042,3.042,0,0,1-1.585,2.67L15.31,62.711a9.855,9.855,0,0,0-1.025.649A34.689,34.689,0,0,1,2.727,37.5Z" fill="#d1d1d1"/>
</svg>
