<?xml version="1.0" encoding="utf-8"?>
<!-- Generator: Adobe Illustrator 24.1.1, SVG Export Plug-In . SVG Version: 6.00 Build 0)  -->
<svg version="1.1" id="圖層_1" xmlns="http://www.w3.org/2000/svg" xmlns:xlink="http://www.w3.org/1999/xlink" x="0px" y="0px"
	 viewBox="0 0 131 56" style="enable-background:new 0 0 131 56;" xml:space="preserve">
<style type="text/css">
	.st0{fill:url(#Path_2963_1_);}
	.st1{fill:#FFFFFF;}
	.st2{enable-background:new    ;}
	.st3{fill:#017EEF;}
	.st4{fill:#017EEF;stroke:#017EEF;stroke-width:0.25;}
</style>
<g id="Group_16160" transform="translate(-53 -676)">
	
		<linearGradient id="Path_2963_1_" gradientUnits="userSpaceOnUse" x1="-22.6319" y1="844.5949" x2="-21.4389" y2="843.5089" gradientTransform="matrix(131 0 0 -56 2990 47965.0156)">
		<stop  offset="0" style="stop-color:#02D2FB"/>
		<stop  offset="1" style="stop-color:#014EE8"/>
	</linearGradient>
	<path id="Path_2963" class="st0" d="M61,676h115c4.4,0,8,3.6,8,8v40c0,4.4-3.6,8-8,8H61c-4.4,0-8-3.6-8-8v-40
		C53,679.6,56.6,676,61,676z"/>
	<path id="Path_2964" class="st1" d="M66,712h106c2.2,0,4,1.8,4,4v7c0,2.2-1.8,4-4,4H66c-2.2,0-4-1.8-4-4v-7
		C62,713.8,63.8,712,66,712z"/>
	<path id="Path_2965" class="st1" d="M69.6,690.6v-1.8c-0.1-0.5,0.3-1,0.8-1.1c0.1,0,0.1,0,0.2,0h2.5v-3.8l-3.4,0
		c-2.4-0.2-4.5,1.6-4.7,4c0,0.2,0,0.5,0,0.7v2h-2.2v4.4H65v11.1h4.4V695h3.3l0.4-4.4L69.6,690.6z"/>
	<g class="st2">
		<path class="st1" d="M84,689.2h-2.3v2.3h-1.2v-5.7h3.7v0.9h-2.5v1.5H84V689.2z"/>
		<path class="st1" d="M88.2,690.3h-2.1l-0.4,1.2h-1.2l2.1-5.7h1.1l2.1,5.7h-1.2L88.2,690.3z M86.5,689.4h1.4l-0.7-2.1L86.5,689.4z"
			/>
		<path class="st1" d="M95.6,689.6c0,0.6-0.3,1.1-0.7,1.4s-0.9,0.5-1.6,0.5c-0.7,0-1.3-0.2-1.7-0.7s-0.6-1.2-0.6-2v-0.3
			c0-0.5,0.1-1,0.3-1.4s0.5-0.7,0.8-1s0.8-0.3,1.2-0.3c0.7,0,1.2,0.2,1.6,0.5s0.6,0.8,0.7,1.5h-1.2c0-0.4-0.1-0.6-0.3-0.8
			s-0.4-0.2-0.8-0.2c-0.4,0-0.7,0.1-0.9,0.4s-0.3,0.7-0.3,1.3v0.4c0,0.6,0.1,1.1,0.3,1.3s0.5,0.4,0.9,0.4c0.4,0,0.6-0.1,0.8-0.2
			s0.3-0.4,0.3-0.8H95.6z"/>
		<path class="st1" d="M100.5,689h-2.3v1.5h2.6v0.9h-3.8v-5.7h3.8v0.9h-2.6v1.4h2.3V689z"/>
		<path class="st1" d="M102.4,691.5v-5.7h2c0.7,0,1.2,0.1,1.6,0.4s0.5,0.7,0.5,1.2c0,0.3-0.1,0.5-0.2,0.7s-0.3,0.4-0.6,0.5
			c0.3,0.1,0.5,0.2,0.7,0.4s0.3,0.5,0.3,0.8c0,0.5-0.2,1-0.5,1.2s-0.8,0.4-1.5,0.4H102.4z M103.6,688.2h0.9c0.6,0,0.9-0.2,0.9-0.7
			c0-0.3-0.1-0.4-0.2-0.6s-0.4-0.2-0.7-0.2h-0.8V688.2z M103.6,689v1.5h1c0.3,0,0.5-0.1,0.6-0.2s0.2-0.3,0.2-0.5
			c0-0.5-0.3-0.8-0.8-0.8H103.6z"/>
		<path class="st1" d="M113,688.8c0,0.6-0.1,1.1-0.3,1.5s-0.5,0.7-0.8,1s-0.8,0.3-1.3,0.3c-0.5,0-0.9-0.1-1.3-0.3s-0.7-0.5-0.9-1
			s-0.3-0.9-0.3-1.5v-0.3c0-0.6,0.1-1.1,0.3-1.5s0.5-0.8,0.9-1s0.8-0.3,1.3-0.3s0.9,0.1,1.3,0.3s0.7,0.6,0.9,1s0.3,0.9,0.3,1.5
			V688.8z M111.8,688.5c0-0.6-0.1-1-0.3-1.4s-0.5-0.5-0.9-0.5c-0.4,0-0.7,0.2-0.9,0.5s-0.3,0.8-0.3,1.3v0.3c0,0.6,0.1,1,0.3,1.4
			s0.5,0.5,0.9,0.5c0.4,0,0.7-0.2,0.9-0.5s0.3-0.8,0.3-1.3V688.5z"/>
		<path class="st1" d="M119.3,688.8c0,0.6-0.1,1.1-0.3,1.5c-0.2,0.4-0.5,0.7-0.8,1s-0.8,0.3-1.3,0.3c-0.5,0-0.9-0.1-1.3-0.3
			s-0.7-0.5-0.9-1s-0.3-0.9-0.3-1.5v-0.3c0-0.6,0.1-1.1,0.3-1.5s0.5-0.8,0.9-1s0.8-0.3,1.3-0.3s0.9,0.1,1.3,0.3s0.7,0.6,0.9,1
			c0.2,0.4,0.3,0.9,0.3,1.5V688.8z M118.1,688.5c0-0.6-0.1-1-0.3-1.4s-0.5-0.5-0.9-0.5c-0.4,0-0.7,0.2-0.9,0.5s-0.3,0.8-0.3,1.3v0.3
			c0,0.6,0.1,1,0.3,1.4s0.5,0.5,0.9,0.5c0.4,0,0.7-0.2,0.9-0.5s0.3-0.8,0.3-1.3V688.5z"/>
		<path class="st1" d="M122.8,689.2l-0.6,0.7v1.6H121v-5.7h1.2v2.6l0.5-0.7l1.4-1.9h1.4l-2,2.5l2.1,3.2h-1.4L122.8,689.2z"/>
	</g>
	<g class="st2">
		<path class="st3" d="M88.7,720.9c0,0.7-0.3,1.2-0.8,1.6c-0.5,0.4-1.1,0.6-1.8,0.6c-0.8,0-1.5-0.3-1.9-0.8
			c-0.5-0.6-0.7-1.3-0.7-2.3v-0.4c0-0.6,0.1-1.2,0.3-1.6s0.5-0.8,0.9-1.1c0.4-0.3,0.9-0.4,1.4-0.4c0.7,0,1.3,0.2,1.8,0.6
			c0.5,0.4,0.7,1,0.8,1.7h-1.3c0-0.4-0.1-0.7-0.3-0.9c-0.2-0.2-0.5-0.3-0.9-0.3c-0.4,0-0.8,0.2-1,0.5c-0.2,0.3-0.3,0.8-0.3,1.5v0.5
			c0,0.7,0.1,1.2,0.3,1.5c0.2,0.3,0.5,0.5,1,0.5c0.4,0,0.7-0.1,0.9-0.3c0.2-0.2,0.3-0.5,0.3-0.9H88.7z"/>
		<path class="st3" d="M90.3,717c0-0.2,0.1-0.3,0.2-0.5c0.1-0.1,0.3-0.2,0.5-0.2c0.2,0,0.4,0.1,0.5,0.2s0.2,0.3,0.2,0.5
			c0,0.2-0.1,0.4-0.2,0.5s-0.3,0.2-0.5,0.2s-0.4-0.1-0.5-0.2C90.4,717.4,90.3,717.2,90.3,717z M91.7,723h-1.3v-4.8h1.3V723z"/>
		<path class="st3" d="M95.1,717.1v1.2H96v0.9h-0.8v2.4c0,0.2,0,0.3,0.1,0.4s0.2,0.1,0.4,0.1c0.1,0,0.3,0,0.4,0v1
			c-0.2,0.1-0.5,0.1-0.8,0.1c-0.9,0-1.3-0.4-1.4-1.3v-2.6h-0.7v-0.9h0.7v-1.2H95.1z"/>
		<path class="st3" d="M99.3,721.2l0.9-3h1.4l-1.9,5.5l-0.1,0.3c-0.3,0.6-0.8,0.9-1.4,0.9c-0.2,0-0.4,0-0.6-0.1v-1l0.2,0
			c0.2,0,0.4,0,0.5-0.1c0.1-0.1,0.2-0.2,0.3-0.4l0.1-0.4l-1.7-4.8h1.4L99.3,721.2z"/>
		<path class="st3" d="M103.1,723v-6.4h2.2c0.8,0,1.4,0.1,1.8,0.4c0.4,0.3,0.6,0.7,0.6,1.3c0,0.3-0.1,0.6-0.2,0.8
			c-0.2,0.2-0.4,0.4-0.7,0.5c0.3,0.1,0.6,0.2,0.8,0.5c0.2,0.2,0.3,0.6,0.3,0.9c0,0.6-0.2,1.1-0.6,1.4s-1,0.5-1.7,0.5H103.1z
			 M104.4,719.3h1c0.7,0,1-0.3,1-0.8c0-0.3-0.1-0.5-0.3-0.6c-0.2-0.1-0.4-0.2-0.8-0.2h-0.9V719.3z M104.4,720.2v1.7h1.1
			c0.3,0,0.6-0.1,0.7-0.2c0.2-0.1,0.3-0.4,0.3-0.6c0-0.6-0.3-0.9-0.9-0.9H104.4z"/>
		<path class="st3" d="M112.4,723c-0.1-0.1-0.1-0.3-0.1-0.4c-0.3,0.3-0.7,0.5-1.2,0.5c-0.5,0-0.9-0.1-1.2-0.4s-0.5-0.6-0.5-1
			c0-0.5,0.2-0.9,0.6-1.2c0.4-0.3,0.9-0.4,1.6-0.4h0.6v-0.3c0-0.2-0.1-0.4-0.2-0.5c-0.1-0.1-0.3-0.2-0.5-0.2c-0.2,0-0.4,0.1-0.5,0.2
			s-0.2,0.2-0.2,0.4h-1.3c0-0.3,0.1-0.5,0.3-0.8c0.2-0.2,0.4-0.4,0.7-0.6c0.3-0.1,0.7-0.2,1-0.2c0.6,0,1.1,0.1,1.4,0.4
			c0.3,0.3,0.5,0.7,0.5,1.2v2.1c0,0.5,0.1,0.8,0.2,1v0.1H112.4z M111.3,722.1c0.2,0,0.4,0,0.5-0.1c0.2-0.1,0.3-0.2,0.4-0.3v-0.8
			h-0.5c-0.6,0-1,0.2-1,0.7l0,0.1c0,0.2,0.1,0.3,0.2,0.4S111.1,722.1,111.3,722.1z"/>
		<path class="st3" d="M116.5,718.2l0,0.5c0.3-0.4,0.8-0.6,1.4-0.6c0.5,0,0.9,0.1,1.1,0.4c0.2,0.3,0.4,0.7,0.4,1.3v3.1h-1.3v-3
			c0-0.3-0.1-0.5-0.2-0.6c-0.1-0.1-0.3-0.2-0.6-0.2c-0.4,0-0.6,0.2-0.8,0.5v3.4h-1.3v-4.8H116.5z"/>
		<path class="st3" d="M124,723c-0.1-0.1-0.1-0.3-0.1-0.4c-0.3,0.3-0.7,0.5-1.2,0.5c-0.5,0-0.9-0.1-1.2-0.4c-0.3-0.3-0.5-0.6-0.5-1
			c0-0.5,0.2-0.9,0.6-1.2c0.4-0.3,0.9-0.4,1.6-0.4h0.6v-0.3c0-0.2-0.1-0.4-0.2-0.5c-0.1-0.1-0.3-0.2-0.5-0.2c-0.2,0-0.4,0.1-0.5,0.2
			c-0.1,0.1-0.2,0.2-0.2,0.4h-1.3c0-0.3,0.1-0.5,0.3-0.8c0.2-0.2,0.4-0.4,0.7-0.6c0.3-0.1,0.7-0.2,1-0.2c0.6,0,1.1,0.1,1.4,0.4
			c0.3,0.3,0.5,0.7,0.5,1.2v2.1c0,0.5,0.1,0.8,0.2,1v0.1H124z M123,722.1c0.2,0,0.4,0,0.5-0.1c0.2-0.1,0.3-0.2,0.4-0.3v-0.8h-0.5
			c-0.6,0-1,0.2-1,0.7l0,0.1c0,0.2,0.1,0.3,0.2,0.4S122.8,722.1,123,722.1z"/>
		<path class="st3" d="M128.2,718.2l0,0.5c0.3-0.4,0.8-0.6,1.4-0.6c0.5,0,0.9,0.1,1.1,0.4s0.4,0.7,0.4,1.3v3.1h-1.3v-3
			c0-0.3-0.1-0.5-0.2-0.6c-0.1-0.1-0.3-0.2-0.6-0.2c-0.4,0-0.6,0.2-0.8,0.5v3.4H127v-4.8H128.2z"/>
		<path class="st3" d="M135.7,723c-0.1-0.1-0.1-0.3-0.1-0.4c-0.3,0.3-0.7,0.5-1.2,0.5c-0.5,0-0.9-0.1-1.2-0.4
			c-0.3-0.3-0.5-0.6-0.5-1c0-0.5,0.2-0.9,0.6-1.2c0.4-0.3,0.9-0.4,1.6-0.4h0.6v-0.3c0-0.2-0.1-0.4-0.2-0.5c-0.1-0.1-0.3-0.2-0.5-0.2
			c-0.2,0-0.4,0.1-0.5,0.2c-0.1,0.1-0.2,0.2-0.2,0.4h-1.3c0-0.3,0.1-0.5,0.3-0.8c0.2-0.2,0.4-0.4,0.7-0.6c0.3-0.1,0.7-0.2,1-0.2
			c0.6,0,1.1,0.1,1.4,0.4c0.3,0.3,0.5,0.7,0.5,1.2v2.1c0,0.5,0.1,0.8,0.2,1v0.1H135.7z M134.7,722.1c0.2,0,0.4,0,0.5-0.1
			c0.2-0.1,0.3-0.2,0.4-0.3v-0.8h-0.5c-0.6,0-1,0.2-1,0.7l0,0.1c0,0.2,0.1,0.3,0.2,0.4S134.5,722.1,134.7,722.1z"/>
	</g>
	<g class="st2">
		<path class="st3" d="M140,715.7c0.3,0,0.6,0,0.9,0.1c0.1,0,0.1,0,0.1,0.1c0,0,0,0.1-0.1,0.2c0,0.1-0.1,0.4-0.1,0.9v1.6h0l0.9,0
			c0,0,0.1,0,0.1,0s0,0,0,0.1v0.1c0.5-0.7,0.9-1.5,1.1-2.4c0.1-0.2,0.1-0.4,0.1-0.6c0.3,0.1,0.6,0.2,0.8,0.3c0.1,0,0.2,0.1,0.2,0.2
			c0,0,0,0.1-0.1,0.1c0,0-0.1,0.1-0.1,0.3c-0.3,1-0.6,1.8-1.1,2.6h2.2c0.4,0,0.7,0,0.8,0c-0.6-0.9-1-1.9-1.3-3c0,0,0,0,0-0.1
			c0,0,0-0.1,0.1-0.1l0.6-0.2c0,0,0.1,0,0.1,0c0,0,0,0,0.1,0.1c0.3,1.3,0.8,2.3,1.6,3.1c-0.2,0.1-0.4,0.3-0.5,0.5
			c-0.1,0.1-0.1,0.2-0.2,0.2c0,0,0,0,0,0v0.3c0,1.2-0.1,2.1-0.2,2.8c-0.1,0.6-0.4,0.9-0.8,0.9c-0.2,0-0.5,0.1-0.8,0.1
			c-0.1,0-0.2,0-0.3,0c0,0,0-0.1-0.1-0.2c-0.1-0.2-0.1-0.5-0.3-0.6c0.3,0,0.5,0.1,0.7,0.1c0,0,0.1,0,0.1,0c0.3,0,0.4-0.2,0.5-0.5
			c0.1-0.6,0.2-1.4,0.2-2.4h-1.2c0,0.9-0.2,1.7-0.6,2.3c-0.3,0.5-0.8,1-1.3,1.4c-0.1,0.1-0.2,0.1-0.2,0.1c0,0-0.1-0.1-0.2-0.2
			c-0.2-0.2-0.3-0.4-0.5-0.4c0.7-0.4,1.2-0.9,1.5-1.4c0.3-0.5,0.4-1.1,0.4-1.8c-0.2,0-0.4,0-0.6,0c-0.1,0-0.2,0-0.2,0
			c0,0-0.1,0-0.1,0c0,0,0,0,0-0.1v-0.4l-0.1-0.1c-0.1-0.1-0.2-0.3-0.4-0.3v0.2c0,0.1,0,0.1-0.1,0.1l-0.9,0c0.3,0.6,0.7,1.1,1.2,1.6
			c-0.2,0.2-0.3,0.4-0.3,0.6c0,0.1-0.1,0.2-0.1,0.2c0,0-0.1,0-0.1-0.1c-0.3-0.4-0.5-0.8-0.7-1.3c0,0.8,0,1.6,0,2.5
			c0,0.2,0,0.4,0,0.8c0,0.1,0,0.2,0,0.2c0,0,0,0.1,0,0.1c0,0,0,0-0.1,0h-0.7c-0.1,0-0.1,0-0.1,0c0,0,0,0,0-0.1c0,0,0-0.2,0-0.5
			c0-1,0-1.9,0-2.7c-0.3,0.7-0.6,1.4-1.1,2.1c-0.1,0.1-0.1,0.1-0.1,0.1c0,0-0.1-0.1-0.1-0.2c-0.1-0.3-0.2-0.5-0.3-0.6
			c0.6-0.8,1.1-1.7,1.5-2.6h-0.2l-0.9,0c-0.1,0-0.1,0-0.1-0.1v-0.6c0-0.1,0-0.1,0.1-0.1l0.9,0h0.3V717
			C140.1,716.4,140.1,716,140,715.7z M139.2,716.3C139.3,716.3,139.3,716.3,139.2,716.3c0.1,0,0.1,0,0.2,0.1
			c0.2,0.4,0.3,0.9,0.5,1.5c0,0,0,0,0,0.1c0,0,0,0.1-0.1,0.1l-0.4,0.2c0,0-0.1,0-0.1,0c0,0-0.1,0-0.1-0.1c-0.1-0.5-0.2-1-0.4-1.5
			c0,0,0-0.1,0-0.1c0,0,0-0.1,0.1-0.1L139.2,716.3z M141,718c0.2-0.4,0.3-0.8,0.5-1.3c0-0.2,0.1-0.3,0.1-0.4
			c0.3,0.1,0.5,0.2,0.6,0.3c0.1,0,0.1,0.1,0.1,0.1c0,0,0,0.1,0,0.1c0,0-0.1,0.1-0.1,0.2c-0.2,0.4-0.3,0.8-0.5,1.1
			c-0.1,0.1-0.1,0.2-0.1,0.2c0,0-0.1,0-0.2-0.1C141.2,718.1,141.1,718,141,718z"/>
		<path class="st3" d="M148.4,723c0.2-0.5,0.4-1.1,0.5-1.7c0-0.2,0-0.4,0-0.6c0.2,0,0.5,0.1,0.8,0.2c0.1,0,0.2,0.1,0.2,0.1
			c0,0,0,0.1-0.1,0.1c0,0.1-0.1,0.2-0.1,0.3c-0.1,0.7-0.3,1.2-0.4,1.7c-0.1,0.1-0.1,0.2-0.1,0.2c0,0-0.1,0-0.2-0.1
			C148.8,723.2,148.6,723.1,148.4,723z M151.9,718.5c0.3,0.5,0.5,1.1,0.7,1.6c0,0,0,0,0,0.1c0,0,0,0.1-0.1,0.1l-0.5,0.2
			c0,0-0.1,0-0.1,0c0,0-0.1,0-0.1-0.1c0,0,0-0.1-0.1-0.2c0-0.1,0-0.1,0-0.2l-0.7,0.1v2.6l0,1c0,0,0,0.1,0,0.1c0,0,0,0-0.1,0h-0.7
			c0,0-0.1,0-0.1,0s0,0,0-0.1l0-1v-2.5c-0.5,0-0.8,0.1-0.9,0.1c-0.1,0-0.3,0-0.3,0.1c-0.1,0-0.1,0-0.1,0c-0.1,0-0.1-0.1-0.1-0.2
			c0-0.2-0.1-0.5-0.1-0.8c0.2,0,0.4,0,0.7,0h0.2c0.1-0.2,0.3-0.4,0.5-0.6c-0.4-0.5-0.8-0.9-1.3-1.4c0,0-0.1-0.1-0.1-0.1
			c0,0,0-0.1,0.1-0.1l0.4-0.4c0,0,0.1-0.1,0.1-0.1c0,0,0,0,0.1,0.1c0,0,0.1,0.1,0.3,0.3c0.2-0.3,0.3-0.6,0.5-0.9
			c0.1-0.2,0.2-0.4,0.2-0.6c0.3,0.1,0.6,0.2,0.8,0.4c0.1,0,0.1,0.1,0.1,0.1c0,0,0,0.1-0.1,0.1c-0.1,0-0.1,0.1-0.2,0.2
			c-0.3,0.5-0.6,0.9-0.8,1.3c0.1,0.1,0.3,0.3,0.4,0.5c0.2-0.2,0.4-0.6,0.7-1.1c0.1-0.2,0.2-0.4,0.3-0.6c0.3,0.2,0.6,0.3,0.8,0.4
			c0.1,0,0.1,0.1,0.1,0.1c0,0.1,0,0.1-0.1,0.1c-0.1,0-0.2,0.2-0.3,0.4c-0.4,0.7-0.9,1.3-1.4,2l1-0.1l-0.3-0.6c0,0,0,0,0-0.1
			c0,0,0-0.1,0.1-0.1l0.4-0.2C151.7,718.5,151.8,718.5,151.9,718.5C151.8,718.5,151.8,718.5,151.9,718.5z M151.3,721.1
			C151.3,721,151.2,721,151.3,721.1c0-0.1,0-0.1,0.1-0.2l0.5-0.1c0,0,0.1,0,0.1,0c0,0,0,0,0.1,0.1c0.2,0.5,0.3,1,0.4,1.5
			c0,0,0,0,0,0.1c0,0,0,0.1-0.1,0.1l-0.5,0.2c0,0-0.1,0-0.1,0c0,0-0.1,0-0.1-0.1C151.5,722,151.4,721.5,151.3,721.1z M152.3,723
			c0.3-0.6,0.5-1.1,0.6-1.7c0-0.2,0.1-0.4,0.1-0.6c0.3,0.1,0.5,0.1,0.8,0.2c0.1,0,0.2,0.1,0.2,0.1c0,0,0,0.1-0.1,0.1
			c0,0.1-0.1,0.2-0.1,0.3c-0.1,0.6-0.3,1.2-0.5,1.6c-0.1,0.1-0.1,0.2-0.1,0.2c0,0-0.1,0-0.2-0.1C152.7,723.2,152.5,723.1,152.3,723z
			 M152.5,719.5c0.3,0,0.5,0,0.5,0c0.1,0,0.1,0,0.2,0c0.2-0.2,0.3-0.4,0.5-0.6c-0.4-0.5-0.8-0.9-1.3-1.4c0,0-0.1-0.1-0.1-0.1
			c0,0,0-0.1,0.1-0.1l0.4-0.4c0,0,0.1-0.1,0.1-0.1s0.1,0,0.1,0.1l0.2,0.2c0.2-0.2,0.3-0.6,0.5-1c0.1-0.2,0.2-0.4,0.2-0.6
			c0.3,0.1,0.6,0.2,0.8,0.4c0.1,0,0.1,0.1,0.1,0.1c0,0,0,0.1-0.1,0.1c-0.1,0-0.1,0.1-0.2,0.2c-0.3,0.5-0.5,0.9-0.8,1.3
			c0.2,0.2,0.3,0.3,0.4,0.5c0.3-0.4,0.5-0.8,0.7-1.1c0.1-0.2,0.2-0.4,0.3-0.6c0.3,0.1,0.5,0.3,0.8,0.4c0.1,0,0.1,0.1,0.1,0.1
			c0,0.1,0,0.1-0.1,0.1c-0.1,0-0.2,0.2-0.3,0.4c-0.5,0.7-0.9,1.3-1.4,1.9c0.3,0,0.7,0,1.2-0.1c0,0-0.1-0.2-0.3-0.5c0,0,0,0,0-0.1
			c0,0,0-0.1,0.1-0.1l0.5-0.2c0,0,0.1,0,0.1,0c0,0,0.1,0,0.1,0.1c0.3,0.5,0.5,1.1,0.7,1.6c0,0,0,0,0,0.1c0,0,0,0.1-0.1,0.1l-0.5,0.2
			c0,0-0.1,0-0.1,0c0,0-0.1,0-0.1-0.1c0-0.2-0.1-0.3-0.1-0.4c-0.1,0-0.4,0-0.8,0.1v2.6l0,1c0,0,0,0.1,0,0.1c0,0,0,0-0.1,0h-0.7
			c0,0-0.1,0-0.1,0c0,0,0,0,0-0.1l0-1v-2.5l-0.8,0.1c-0.1,0-0.2,0-0.3,0.1c-0.1,0-0.1,0-0.1,0c-0.1,0-0.1,0-0.1-0.1
			C152.6,720.1,152.6,719.8,152.5,719.5z M156.8,722.9c-0.2,0.1-0.4,0.2-0.6,0.3c-0.1,0.1-0.2,0.1-0.2,0.1c0,0-0.1-0.1-0.1-0.2
			c-0.3-0.7-0.5-1.3-0.6-1.9c0,0,0-0.1,0-0.1c0,0,0-0.1,0.1-0.1l0.5-0.2c0,0,0.1,0,0.1,0c0,0,0.1,0,0.1,0.1
			C156.2,721.5,156.5,722.2,156.8,722.9z"/>
		<path class="st3" d="M159.5,723.9h-0.7c0,0-0.1,0-0.1,0c0,0,0,0,0-0.1l0-3.5v-1.8l0-2.5c0-0.1,0-0.1,0-0.1c0,0,0,0,0.1,0l1.2,0h5
			l1.2,0c0.1,0,0.1,0,0.1,0c0,0,0,0,0,0.1l0,2.2v2.1l0,3.5c0,0,0,0.1,0,0.1c0,0,0,0-0.1,0h-0.7c-0.1,0-0.1,0-0.1,0c0,0,0,0,0-0.1
			v-0.4h-5.7v0.4C159.6,723.9,159.6,723.9,159.5,723.9C159.6,723.9,159.6,723.9,159.5,723.9z M159.6,716.8v6h5.7v-6H159.6z
			 M164,721.1l1,0c0,0,0.1,0,0.1,0s0,0,0,0.1v0.4c0,0,0,0.1,0,0.1c0,0,0,0-0.1,0l-1,0v0.2c0,0.3-0.1,0.4-0.2,0.5
			c-0.2,0.1-0.5,0.2-1,0.2c-0.1,0-0.2,0-0.3,0c0,0-0.1-0.1-0.1-0.2c0-0.2-0.1-0.3-0.2-0.4c0.2,0,0.4,0,0.5,0c0.1,0,0.1,0,0.2,0
			c0.2,0,0.2-0.1,0.2-0.3v0h-1.6c0.2,0.2,0.3,0.3,0.5,0.5c0,0,0,0,0,0.1c0,0,0,0-0.1,0.1l-0.3,0.2c-0.1,0-0.1,0.1-0.1,0.1
			c0,0-0.1,0-0.1-0.1c-0.1-0.2-0.3-0.4-0.5-0.6c0,0,0-0.1,0-0.1c0,0,0,0,0.1-0.1l0.2-0.1l-1.2,0c0,0-0.1,0-0.1,0c0,0,0,0,0-0.1v-0.4
			c0,0,0-0.1,0-0.1c0,0,0,0,0.1,0l1.2,0h2c0-0.1,0-0.2,0-0.3c0.4,0,0.6,0,0.8,0c0.1,0,0.1,0,0.1,0.1C164,720.9,164,721,164,721.1
			C164,721,164,721.1,164,721.1z M159.9,720.2c0.4,0,0.6,0,0.9,0c0.6,0,1,0,1.3,0v-0.3h-0.5l-1.1,0c-0.1,0-0.1,0-0.1,0
			c0,0,0,0,0-0.1l0-0.5v-0.6l0-0.5c0,0,0-0.1,0-0.1s0,0,0.1,0l1.1,0h0.4v-0.3h-0.7l-1.2,0c0,0-0.1,0-0.1,0c0,0,0,0,0-0.1v-0.4
			c0,0,0-0.1,0-0.1c0,0,0,0,0.1,0l1.2,0h0.7c0-0.2,0-0.3,0-0.4c0.3,0,0.6,0,0.8,0.1c0.1,0,0.1,0,0.1,0.1c0,0,0,0.1,0,0.2l0,0.1h0.8
			l1.2,0c0.1,0,0.1,0,0.1,0c0,0,0,0,0,0.1v0.4c0,0,0,0.1,0,0.1c0,0,0,0-0.1,0l-1.2,0h-0.8v0.3h0.5l1.1,0c0.1,0,0.1,0,0.1,0
			c0,0,0,0,0,0.1l0,0.5v0.6l0,0.5c0,0.1,0,0.1,0,0.1c0.2,0.2,0.3,0.4,0.5,0.5c0,0,0,0.1,0,0.1c0,0,0,0.1-0.1,0.1l-0.3,0.2
			c0,0-0.1,0-0.1,0c0,0,0,0-0.1-0.1l-0.2-0.2c-1.1,0.1-2.3,0.1-3.5,0.2c-0.4,0-0.6,0-0.6,0.1c-0.1,0-0.1,0-0.1,0c0,0-0.1,0-0.1-0.1
			C160,720.7,159.9,720.5,159.9,720.2z M161.2,718.8h0.9v-0.3h-0.9V718.8z M161.2,719.5h0.9v-0.3h-0.9V719.5z M163.8,718.5h-1v0.3h1
			V718.5z M163.8,719.5v-0.3h-1v0.3H163.8z M162.8,719.9v0.3c0.3,0,0.6,0,1.1,0l-0.2-0.2H162.8z"/>
	</g>
	<path id="search" class="st4" d="M77.3,723.1l-1.8-1.8c0.5-0.5,0.7-1.2,0.7-1.9c0-1.7-1.4-3-3.1-3c-1.7,0-3.1,1.3-3.1,3
		c0,1.7,1.4,3,3.1,3c0.6,0,1.3-0.2,1.8-0.5l1.8,1.9c0.2,0.2,0.4,0.2,0.6,0C77.4,723.5,77.4,723.2,77.3,723.1
		C77.3,723.1,77.3,723.1,77.3,723.1z M73.1,717.1c1.2,0,2.3,1,2.3,2.2c0,1.2-1.1,2.2-2.3,2.2c-1.2,0-2.3-1-2.3-2.2
		C70.8,718,71.8,717.1,73.1,717.1z"/>
	<g class="st2">
		<path class="st1" d="M80.4,704.5c0.3,0,0.5,0,0.8-0.1c0,0,0.1,0,0.1,0v-2.5c-0.2,0-0.4,0-0.6,0c-0.1,0-0.2,0-0.2,0
			c0,0-0.1,0-0.1,0s0,0,0-0.1v-0.5c0,0,0-0.1,0-0.1s0,0,0.1,0l1,0h5.1l1,0c0.1,0,0.1,0,0.1,0.1v0.5c0,0.1,0,0.1-0.1,0.1l-1,0h-2.7
			v2.7l0,1c0,0,0,0.1,0,0.1s0,0-0.1,0h-0.6c0,0-0.1,0-0.1,0c0,0,0,0,0-0.1c0,0,0-0.1,0-0.3c0-0.2,0-0.4,0-0.5
			c-0.7,0.1-1.4,0.3-2.1,0.4c-0.1,0-0.2,0-0.3,0.1c-0.1,0-0.1,0-0.1,0c0,0-0.1,0-0.1-0.1C80.5,705,80.4,704.8,80.4,704.5z
			 M85.5,698.6l1.1,0c0,0,0.1,0,0.1,0c0,0,0,0,0,0.1l0,0.7v0.8l0,0.7c0,0,0,0.1,0,0.1c0,0,0,0-0.1,0l-1.1,0h-2.9l-1.1,0
			c0,0-0.1,0-0.1,0c0,0,0,0,0-0.1l0-0.7v-0.8l0-0.7c0,0,0-0.1,0-0.1c0,0,0,0,0.1,0l1.1,0H85.5z M82,702.3h1.1v-0.4H82V702.3z
			 M82,703.3h1.1v-0.4H82V703.3z M83.1,704.2v-0.4H82v0.6C82.6,704.3,83,704.2,83.1,704.2z M82.2,699.2v0.3h3.7v-0.3H82.2z
			 M85.9,700.4V700h-3.7v0.3H85.9z M83.9,704.9c0.5-0.1,0.9-0.3,1.3-0.6c-0.3-0.4-0.6-0.8-0.8-1.3c-0.1,0-0.2,0-0.2,0
			c0,0-0.1,0-0.1,0c0,0,0,0,0-0.1v-0.5c0,0,0-0.1,0-0.1c0,0,0,0,0.1,0l0.9,0h1.4c0,0,0.1,0,0.1,0c0.1,0,0.1,0,0.1,0
			c0.1,0,0.1,0.1,0.3,0.2c0.1,0.1,0.2,0.2,0.2,0.3c0,0.1,0,0.1-0.1,0.1c-0.1,0-0.1,0.1-0.2,0.3c-0.2,0.4-0.4,0.7-0.6,1
			c0.4,0.2,0.9,0.4,1.4,0.5c-0.1,0.2-0.2,0.4-0.3,0.5c0,0.1-0.1,0.2-0.1,0.2c0,0-0.1,0-0.2,0c-0.5-0.2-1-0.4-1.4-0.7
			c-0.4,0.3-0.8,0.5-1.2,0.7c-0.1,0-0.1,0.1-0.2,0.1c0,0-0.1-0.1-0.1-0.2C84.1,705.2,84,705,83.9,704.9z M85.7,703.8
			c0.2-0.2,0.4-0.5,0.6-0.8h-1.1C85.3,703.3,85.5,703.6,85.7,703.8z"/>
		<path class="st1" d="M90.3,701.7l-1,0c-0.1,0-0.1,0-0.1-0.1V701c0-0.1,0-0.1,0.1-0.1l1,0h1c0.1-0.2,0.2-0.5,0.3-0.8
			c0-0.1,0-0.2,0.1-0.4c0.1,0,0.2,0,0.4,0.1c0.2,0,0.3,0.1,0.3,0.1c0.1,0,0.1,0.1,0.1,0.1c0,0,0,0.1-0.1,0.1c0,0-0.1,0.1-0.1,0.2
			c-0.1,0.2-0.2,0.4-0.3,0.5l0.9,0c0,0,0.1,0,0.1,0s0,0,0,0.1v0.6c0,0,0,0.1,0,0.1s0,0-0.1,0l-1,0h-0.4c0,0,0,0.2,0,0.4v0.1h0.3l1,0
			c0,0,0.1,0,0.1,0s0,0,0,0.1v0.6c0,0,0,0.1,0,0.1s0,0-0.1,0l-1,0h-0.1c0.3,0.3,0.6,0.6,1,0.8c-0.1,0.1-0.2,0.3-0.3,0.5
			c0,0.1-0.1,0.1-0.1,0.1c0,0-0.1,0-0.2-0.1c-0.3-0.2-0.5-0.5-0.7-0.8c0,0.4,0,0.9,0,1.4c0,0.4,0,0.6,0,0.6c0,0,0,0.1,0,0.1
			c0,0,0,0-0.1,0h-0.6c0,0-0.1,0-0.1,0c0,0,0,0,0-0.1c0,0,0-0.3,0-0.7c0-0.4,0-0.8,0-1.1c-0.2,0.4-0.6,0.8-1,1.3
			c-0.1,0.1-0.1,0.1-0.2,0.1c0,0-0.1-0.1-0.1-0.2c-0.1-0.2-0.2-0.4-0.3-0.5c0.6-0.4,1-0.9,1.4-1.4h-0.2l-1,0c0,0-0.1,0-0.1,0
			s0,0,0-0.1v-0.6c0,0,0-0.1,0-0.1s0,0,0.1,0l1,0h0.4v-0.1c0-0.2,0-0.4,0-0.4H90.3z M91.8,699.7h-1.4l-0.9,0c0,0-0.1,0-0.1,0
			s0,0,0-0.1v-0.6c0,0,0-0.1,0-0.1s0,0,0.1,0l0.9,0h0.3v-0.2c0-0.2,0-0.4-0.1-0.5c0.4,0,0.6,0,0.8,0c0.1,0,0.1,0,0.1,0.1
			c0,0,0,0.1,0,0.1c0,0,0,0.1,0,0.3v0.2h0.3l0.9,0c0,0,0.1,0,0.1,0s0,0,0,0.1v0.6c0,0,0,0.1,0,0.1s0,0-0.1,0L91.8,699.7z
			 M89.9,700.1C89.9,700.1,89.9,700.1,89.9,700.1c0-0.1,0-0.1,0.1-0.1l0.4-0.1c0,0,0.1,0,0.1,0c0,0,0.1,0,0.1,0.1
			c0.1,0.2,0.2,0.4,0.3,0.7c0,0,0,0,0,0.1c0,0,0,0.1-0.1,0.1l-0.5,0.1c0,0-0.1,0-0.1,0c0,0-0.1,0-0.1-0.1
			C90.1,700.5,90,700.2,89.9,700.1z M92.3,705.2c0.4-0.5,0.7-1,0.8-1.6c0.1-0.4,0.2-1.2,0.2-2.3v-0.9c0-0.5,0-1,0-1.4
			c0.3,0,0.5,0.1,0.7,0.2c0.5-0.1,1-0.3,1.4-0.6c0.2-0.1,0.3-0.2,0.4-0.3c0.2,0.1,0.4,0.3,0.5,0.6c0,0.1,0.1,0.1,0.1,0.2
			c0,0.1,0,0.1-0.1,0.1c-0.1,0-0.2,0-0.3,0.1c-0.6,0.3-1.2,0.5-1.9,0.7v1h1.4l1.1,0c0,0,0.1,0,0.1,0s0,0,0,0.1v0.6c0,0,0,0.1,0,0.1
			s0,0-0.1,0c0,0,0,0-0.1,0c-0.2,0-0.4,0-0.7,0v2.8l0,1.1c0,0,0,0.1,0,0.1c0,0,0,0-0.1,0H95c0,0-0.1,0-0.1,0s0,0,0-0.1l0-1.1v-2.8
			H94c0,1-0.1,1.8-0.2,2.3c-0.1,0.6-0.4,1.1-0.7,1.5c-0.1,0.1-0.1,0.2-0.2,0.2c0,0-0.1,0-0.2-0.1C92.6,705.3,92.4,705.2,92.3,705.2z
			"/>
		<path class="st1" d="M103,704.4c0.5,0.3,1.3,0.4,2.2,0.5c-0.1,0.1-0.3,0.3-0.4,0.5c-0.1,0.1-0.1,0.2-0.2,0.2s-0.1,0-0.2,0
			c-0.4-0.1-0.8-0.2-1.2-0.3c-0.4-0.1-0.7-0.3-1-0.5c0,0,0,0,0-0.1c0,0,0,0,0.1-0.1l0.6-0.3h-2.7c0.2,0.1,0.4,0.2,0.7,0.3
			c0.1,0,0.1,0.1,0.1,0.1c0,0,0,0.1-0.1,0.1c-0.1,0-0.2,0.1-0.3,0.1c-0.5,0.3-1.1,0.5-1.8,0.6c-0.1,0-0.1,0-0.2,0
			c-0.1,0-0.1-0.1-0.2-0.2c-0.1-0.2-0.2-0.3-0.4-0.5c0.7-0.1,1.3-0.2,1.8-0.4c0.1-0.1,0.3-0.1,0.4-0.2l-1,0c0,0-0.1,0-0.1,0
			c0,0,0,0,0-0.1l0-0.8v-1.4l0-0.8c0,0,0-0.1,0-0.1s0,0,0.1,0l1,0c0,0,0-0.1-0.1-0.1c-0.1-0.2-0.2-0.3-0.3-0.4
			c0.6-0.1,1.1-0.3,1.4-0.5c0.3-0.2,0.5-0.5,0.6-0.8h-0.7c-0.2,0.2-0.3,0.4-0.5,0.5c-0.1,0.1-0.2,0.1-0.2,0.1c0,0-0.1-0.1-0.2-0.2
			c-0.1-0.1-0.2-0.2-0.4-0.3c0.5-0.3,0.8-0.7,1.1-1.1c0.1-0.1,0.1-0.2,0.2-0.4c0.2,0,0.5,0.1,0.6,0.1c0.1,0,0.1,0.1,0.1,0.1
			c0,0,0,0.1-0.1,0.1c-0.1,0-0.1,0.1-0.2,0.2l-0.1,0.2h2.4c0.1,0,0.2,0,0.2,0c0,0,0.1,0,0.1,0c0,0,0.1,0.1,0.3,0.2
			c0.2,0.1,0.3,0.2,0.3,0.3c0,0,0,0.1-0.1,0.1c-0.1,0-0.1,0.1-0.1,0.1c-0.1,0.1-0.2,0.3-0.4,0.6c-0.1,0.1-0.1,0.2-0.2,0.2
			c0,0-0.1,0-0.2-0.1c-0.2-0.1-0.3-0.1-0.4-0.2c0.2-0.2,0.3-0.4,0.5-0.5h-1.2c0.3,0.8,1.1,1.2,2.5,1.4c-0.1,0.1-0.2,0.3-0.2,0.5
			c0,0.1-0.1,0.2-0.1,0.2s0,0-0.1,0c0,0-0.1,0-0.2,0c-0.2,0-0.4-0.1-0.6-0.2c0,0.1,0,0.4,0,0.7v1.4l0,0.8c0,0,0,0.1,0,0.1s0,0-0.1,0
			L103,704.4L103,704.4z M100.1,699.9c0,0.1,0,0.2,0.1,0.5c0,0.1,0,0.2,0,0.2c0,0.1-0.1,0.1-0.2,0.2c-0.3,0.2-0.7,0.3-1.3,0.5
			c-0.1,0-0.2,0.1-0.2,0.1c0,0-0.1,0.1-0.1,0.1c0,0-0.1,0-0.1-0.1c-0.1-0.2-0.2-0.4-0.3-0.7c0.2,0,0.4-0.1,0.6-0.1
			C99.2,700.3,99.7,700.1,100.1,699.9z M98.9,698.5c0.4,0.1,0.7,0.4,1.1,0.6c0,0,0.1,0.1,0.1,0.1c0,0,0,0-0.1,0.1l-0.3,0.4
			c0,0-0.1,0.1-0.1,0.1c0,0,0,0-0.1,0c-0.4-0.3-0.7-0.5-1.1-0.7c0,0-0.1,0-0.1-0.1c0,0,0-0.1,0.1-0.1l0.3-0.3
			C98.7,698.5,98.8,698.5,98.9,698.5C98.8,698.5,98.8,698.5,98.9,698.5z M103.3,701.9h-3.4v0.3h3.4V701.9z M99.9,703h3.4v-0.3h-3.4
			V703z M103.3,703.9v-0.3h-3.4v0.3H103.3z M102.9,701.3c0.4,0,0.7,0,0.8,0c-0.6-0.3-1.1-0.6-1.3-1.1c-0.3,0.5-0.8,0.9-1.6,1.1
			H102.9z"/>
		<path class="st1" d="M107.7,700.4l-0.8,0c0,0-0.1,0-0.1,0s0,0,0-0.1v-0.6c0,0,0-0.1,0-0.1s0,0,0.1,0l0.8,0h0.9l0.8,0
			c0,0,0.1,0,0.1,0s0,0,0,0.1v0.6c0,0,0,0.1,0,0.1s0,0-0.1,0l-0.8,0H107.7z M111.4,701.4l0.7,0c0,0,0.1,0,0.1,0s0,0,0,0.1v0.6
			c0,0,0,0.1,0,0.1s0,0-0.1,0l-0.8,0c0,0.3-0.1,0.6-0.1,0.8c-0.2,0.9-0.5,1.7-1.1,2.4c-0.1,0.1-0.1,0.1-0.1,0.1c0,0-0.1,0-0.2-0.1
			c-0.2-0.2-0.3-0.3-0.5-0.4l0,0.4c0,0,0,0.1,0,0.1s0,0-0.1,0h-0.6c0,0-0.1,0-0.1,0s0,0,0-0.1v-0.3h-0.7v0.4c0,0,0,0.1,0,0.1
			s0,0-0.1,0h-0.6c0,0-0.1,0-0.1,0c0,0,0,0,0-0.1l0-1.2v-0.5l0-0.8c0,0,0-0.1,0-0.1s0,0,0.1,0l0.7,0h0.7l0.7,0c0,0,0.1,0,0.1,0
			s0,0,0,0.1l0,0.6v0.6c0,0.4,0,0.6,0,0.7c0.6-0.7,0.9-1.4,1.1-2.2c0-0.2,0.1-0.4,0.1-0.6h0l-0.8,0c0,0-0.1,0-0.1,0s0,0,0-0.1v-0.6
			c0,0,0-0.1,0-0.1s0,0,0.1,0l0.8,0h0.1c0-0.4,0-1.1,0-2l-0.7,0c0,0-0.1,0-0.1,0c0,0,0,0,0-0.1v-0.6c0,0,0-0.1,0-0.1s0,0,0.1,0
			l0.9,0h1.3l0.9,0c0.1,0,0.1,0,0.1,0c0,0,0,0,0,0.1c0,0.2,0,0.5,0,0.8c0,1.8,0,3.1,0.1,3.8c0,0.7,0.1,1.1,0.2,1.1
			c0.1,0,0.2-0.3,0.2-1c0.1,0.1,0.2,0.2,0.4,0.3c0.1,0.1,0.1,0.1,0.2,0.1c0,0,0,0.1,0,0.1c0,0,0,0.1,0,0.1c-0.1,0.9-0.4,1.4-0.8,1.4
			c-0.3,0-0.5-0.2-0.6-0.5c-0.1-0.3-0.2-0.6-0.3-1.1c-0.1-0.7-0.1-2.2-0.1-4.5h-0.9C111.4,700.2,111.4,700.9,111.4,701.4z
			 M107.9,699.3l-0.7,0c0,0-0.1,0-0.1,0s0,0,0-0.1v-0.5c0,0,0-0.1,0-0.1s0,0,0.1,0l0.7,0h0.7l0.7,0c0,0,0.1,0,0.1,0s0,0,0,0.1v0.5
			c0,0,0,0.1,0,0.1s0,0-0.1,0l-0.7,0H107.9z M108,701.5l-0.6,0c0,0-0.1,0-0.1,0c0,0,0,0,0-0.1v-0.5c0,0,0-0.1,0-0.1c0,0,0,0,0.1,0
			l0.6,0h0.6l0.6,0c0,0,0.1,0,0.1,0c0,0,0,0,0,0.1v0.5c0,0,0,0.1,0,0.1s0,0-0.1,0l-0.6,0H108z M108,702.6l-0.6,0c0,0-0.1,0-0.1,0
			c0,0,0,0,0-0.1V702c0,0,0-0.1,0-0.1c0,0,0,0,0.1,0l0.6,0h0.6l0.6,0c0,0,0.1,0,0.1,0c0,0,0,0,0,0.1v0.5c0,0,0,0.1,0,0.1s0,0-0.1,0
			l-0.6,0H108z M108.6,704.5v-0.8h-0.7v0.8H108.6z"/>
		<path class="st1" d="M116.9,699.6l-1,0c0,0-0.1,0-0.1,0c0,0,0,0,0-0.1v-0.6c0,0,0-0.1,0-0.1c0,0,0,0,0.1,0l1,0h4.8l1,0
			c0,0,0.1,0,0.1,0c0,0,0,0,0,0.1v0.6c0,0,0,0.1,0,0.1c0,0,0,0-0.1,0l-1,0H120c-0.1,0.3-0.3,0.5-0.4,0.7v4l0,1.2c0,0,0,0.1,0,0.1
			c0,0,0,0-0.1,0h-0.7c0,0-0.1,0-0.1,0c0,0,0,0,0-0.1l0-1.2v-2.8c-0.7,0.8-1.5,1.5-2.4,2c-0.1,0.1-0.2,0.1-0.2,0.1
			c0,0-0.1-0.1-0.2-0.2c-0.1-0.2-0.3-0.4-0.4-0.5c0.8-0.4,1.6-0.9,2.2-1.5c0.6-0.5,1-1.1,1.4-1.8H116.9z M123,702.9
			c-0.1,0.1-0.3,0.3-0.4,0.6c-0.1,0.1-0.1,0.2-0.2,0.2c0,0-0.1,0-0.2-0.1c-0.9-0.5-1.7-1.2-2.4-2.1c0,0,0-0.1,0-0.1
			c0,0,0-0.1,0.1-0.1l0.4-0.4c0,0,0.1,0,0.1,0c0,0,0,0,0.1,0c0.3,0.4,0.8,0.9,1.3,1.2C122.2,702.4,122.6,702.7,123,702.9z"/>
		<path class="st1" d="M126.8,698.6l0.8,0c0,0,0.1,0,0.1,0c0,0,0,0,0,0.1l0,0.8v1l0,0.8c0,0,0,0.1,0,0.1c0,0,0,0-0.1,0l-0.8,0h-1.3
			v2.6l0,1.7c0,0,0,0.1,0,0.1c0,0,0,0-0.1,0h-0.7c0,0-0.1,0-0.1,0c0,0,0,0,0-0.1l0-1.7v-3.5l0-1.7c0,0,0-0.1,0-0.1c0,0,0,0,0.1,0
			l0.9,0H126.8z M126.9,699.2h-1.4v0.5h1.4V699.2z M126.9,700.6v-0.5h-1.4v0.5H126.9z M127.2,705.1h-0.6c0,0-0.1,0-0.1,0s0,0,0-0.1
			l0-1.4v-0.7l0-1c0,0,0-0.1,0-0.1c0,0,0,0,0.1,0l0.9,0h1.1l0.9,0c0,0,0.1,0,0.1,0s0,0,0,0.1l0,0.9v0.8l0,1.4c0,0,0,0.1,0,0.1
			c0,0,0,0-0.1,0h-0.6c0,0-0.1,0-0.1,0s0,0,0-0.1v-0.2h-1.5L127.2,705.1C127.3,705,127.3,705,127.2,705.1
			C127.3,705,127.2,705.1,127.2,705.1z M127.3,702.4v0.5h1.5v-0.5H127.3z M127.3,704h1.5v-0.6h-1.5V704z M129.6,704.7
			c0.2,0,0.4,0,0.7,0c0.1,0,0.2,0,0.3-0.1c0,0,0.1-0.1,0.1-0.2v-3.2h-1.3l-0.9,0c0,0-0.1,0-0.1,0c0,0,0,0,0-0.1l0-0.7v-1.1l0-0.7
			c0,0,0-0.1,0-0.1c0,0,0,0,0.1,0l0.9,0h1.2l0.9,0c0,0,0.1,0,0.1,0c0,0,0,0,0,0.1l0,1.1v3.3l0,1.6c0,0.4-0.1,0.6-0.2,0.7
			c-0.1,0.1-0.2,0.1-0.4,0.2c-0.2,0-0.4,0-0.8,0c-0.1,0-0.2,0-0.2,0c0,0,0-0.1-0.1-0.2C129.7,705,129.6,704.8,129.6,704.7z
			 M130.6,699.2h-1.5v0.5h1.5V699.2z M129.1,700.6h1.5v-0.5h-1.5V700.6z"/>
		<path class="st1" d="M137.3,700C137.4,699.9,137.4,699.9,137.3,700c0.1,0,0.1,0,0.1,0c0.1,0.2,0.2,0.4,0.3,0.7c0,0,0,0,0,0
			c0,0,0,0-0.1,0.1l-0.2,0.1c0,0-0.1,0-0.1,0c0,0,0,0-0.1-0.1c0-0.1,0-0.1-0.1-0.2c-0.1,0-0.4,0.1-0.8,0.1c-0.2,0-0.2,0-0.3,0.1
			c0,0-0.1,0-0.1,0c0,0-0.1,0-0.1-0.1l-0.3,0.1c0,0-0.1,0-0.1,0c0,0,0,0-0.1-0.1l0-0.1c-0.3,0.1-0.5,0.1-0.8,0.1
			c-0.1,0-0.2,0-0.3,0.1c0,0-0.1,0-0.1,0c0,0-0.1,0-0.1-0.1c-0.1-0.2-0.1-0.3-0.1-0.4l0.1,0c0,0,0,0,0.1,0c0,0,0.1-0.2,0.3-0.4
			c-0.2-0.3-0.4-0.5-0.5-0.7v1.8h2.4l1,0c0,0,0.1,0,0.1,0c0,0,0,0,0,0.1v0.5c0,0,0,0.1,0,0.1c0,0,0,0-0.1,0l-1,0h-2.4v0.9l0.2-0.2
			c0,0,0.1,0,0.1,0s0,0,0.1,0l0.1,0.1c0.1-0.2,0.2-0.3,0.2-0.4c0-0.1,0.1-0.2,0.1-0.3c0.2,0.1,0.3,0.1,0.4,0.2c0,0,0.1,0.1,0.1,0.1
			c0,0,0,0.1-0.1,0.1c0,0-0.1,0.1-0.1,0.2c-0.2,0.3-0.3,0.5-0.3,0.5c0,0,0.1,0.1,0.1,0.1c0,0.1,0.1,0.1,0.1,0.1l0.2-0.4
			c0-0.1,0.1-0.2,0.1-0.3c0.2,0.1,0.3,0.1,0.4,0.2l0.2-0.2c0,0,0.1-0.1,0.1-0.1s0,0,0.1,0l0.1,0.1c0.1-0.1,0.1-0.2,0.2-0.4
			c0-0.1,0.1-0.2,0.1-0.3c0.2,0.1,0.3,0.1,0.4,0.2c0.1,0,0.1,0.1,0.1,0.1c0,0,0,0.1-0.1,0.1c0,0-0.1,0.1-0.1,0.1
			c-0.1,0.2-0.2,0.4-0.3,0.5l0.2,0.2c0.1-0.1,0.1-0.2,0.2-0.4c0-0.1,0.1-0.2,0.1-0.3c0.2,0.1,0.3,0.2,0.4,0.2c0,0,0.1,0.1,0.1,0.1
			s0,0.1-0.1,0.1c0,0-0.1,0.1-0.2,0.2c-0.2,0.2-0.4,0.5-0.6,0.8c0.1,0,0.2,0,0.5-0.1l-0.1-0.3c0,0,0,0,0,0c0,0,0,0,0.1-0.1l0.2-0.1
			c0,0,0.1,0,0.1,0c0,0,0,0,0.1,0.1c0.1,0.2,0.2,0.4,0.2,0.5c0-0.1,0.1-0.3,0.1-0.4c0.1-0.5,0.1-1.2,0.1-2.2v-0.9c0-0.6,0-1,0-1.4
			c0.2,0,0.4,0.1,0.7,0.2c0.4-0.1,0.7-0.2,1-0.4c0.1-0.1,0.3-0.2,0.4-0.3c0.2,0.1,0.3,0.3,0.5,0.6c0,0.1,0.1,0.1,0.1,0.2
			c0,0.1,0,0.1-0.1,0.1c-0.1,0-0.2,0-0.3,0.1c-0.4,0.2-0.9,0.4-1.4,0.5v1h1l0.9,0c0.1,0,0.1,0,0.1,0.1v0.6c0,0.1,0,0.1-0.1,0.1
			c-0.1,0-0.3,0-0.6,0v3l0,1c0,0,0,0.1,0,0.1c0,0,0,0-0.1,0h-0.6c0,0-0.1,0-0.1,0s0,0,0-0.1l0-1v-3h-0.6c0,1-0.1,1.7-0.2,2.3
			c-0.1,0.5-0.3,1-0.6,1.5c0,0.1-0.1,0.1-0.1,0.1c0,0-0.1,0-0.1-0.1c-0.1-0.1-0.2-0.2-0.3-0.3c0,0,0,0.1,0,0.1c0,0,0,0-0.1,0l-0.9,0
			h-2.1v0.3c0,0,0,0.1,0,0.1c0,0,0,0-0.1,0h-0.6c0,0-0.1,0-0.1,0s0,0,0-0.1l0-1.1v-4.6c0-0.5,0-0.8,0-1.1c0.3,0,0.5,0,0.7,0
			c0.1,0,0.1,0,0.1,0.1c0,0,0,0.1,0,0.2c0,0,0,0.1,0,0.3l0.2-0.2c0,0,0.1-0.1,0.1-0.1s0,0,0.1,0l0.1,0.1c0.1-0.1,0.2-0.3,0.3-0.5
			c0-0.1,0.1-0.2,0.1-0.3c0.2,0.1,0.3,0.1,0.4,0.2c0,0,0.1,0.1,0.1,0.1c0,0,0,0.1-0.1,0.1c0,0-0.1,0.1-0.1,0.2
			c-0.1,0.2-0.3,0.4-0.4,0.6l0.1,0.2c0.1-0.1,0.2-0.2,0.3-0.4c0-0.1,0.1-0.2,0.1-0.3c0.2,0.1,0.3,0.2,0.4,0.2l0.1-0.2
			c0,0,0.1-0.1,0.1-0.1s0,0,0.1,0l0.1,0.1c0.1-0.1,0.2-0.3,0.3-0.5c0-0.1,0.1-0.2,0.1-0.3c0.2,0.1,0.4,0.2,0.4,0.2
			c0.1,0,0.1,0.1,0.1,0.1c0,0,0,0.1-0.1,0.1c0,0-0.1,0.1-0.1,0.1c-0.1,0.2-0.2,0.4-0.4,0.6c0,0,0.1,0.1,0.2,0.2
			c0.1-0.2,0.2-0.3,0.3-0.4c0.1-0.1,0.1-0.2,0.2-0.3c0.2,0.1,0.3,0.2,0.4,0.2c0,0,0.1,0.1,0.1,0.1s0,0.1-0.1,0.1
			c0,0-0.1,0.1-0.2,0.2c-0.2,0.3-0.4,0.5-0.7,0.9c0.2,0,0.3,0,0.5-0.1l-0.1-0.2c0,0,0,0,0,0c0,0,0,0,0.1-0.1L137.3,700z
			 M134.2,703.8h0.2c0.1-0.1,0.2-0.2,0.3-0.4c-0.2-0.3-0.4-0.5-0.5-0.7l0,0v1.8h2.1l0.9,0c0,0,0.1,0,0.1,0s0,0,0,0.1v0.2
			c0.1-0.2,0.2-0.4,0.3-0.5l-0.1,0c0,0-0.1,0-0.1,0c0,0,0,0-0.1-0.1l0-0.1c-0.2,0-0.5,0.1-0.8,0.1c-0.2,0-0.2,0-0.3,0.1
			c0,0-0.1,0-0.1,0c0,0-0.1,0-0.1-0.1l-0.3,0.1c0,0-0.1,0-0.1,0c0,0,0,0-0.1-0.1l0-0.1c-0.3,0-0.5,0.1-0.8,0.1c-0.1,0-0.2,0-0.3,0.1
			c0,0-0.1,0-0.1,0c0,0-0.1,0-0.1-0.1C134.3,704.1,134.2,703.9,134.2,703.8z M135.7,699.9C135.7,699.9,135.7,699.9,135.7,699.9
			c0.1,0,0.1,0,0.1,0c0.1,0.2,0.1,0.4,0.1,0.4h0.1c0.1-0.1,0.2-0.2,0.3-0.4c-0.2-0.3-0.4-0.5-0.6-0.7c0,0-0.1,0.1-0.1,0.2
			c-0.2,0.3-0.4,0.6-0.6,0.9l0.5-0.1l-0.1-0.2c0,0,0,0,0,0c0,0,0,0,0.1-0.1L135.7,699.9z M135.7,703.3
			C135.7,703.3,135.7,703.3,135.7,703.3C135.8,703.3,135.8,703.3,135.7,703.3c0.1,0.1,0.1,0.1,0.1,0.2c0,0.1,0.1,0.2,0.1,0.3h0.1
			c0.1-0.1,0.2-0.3,0.3-0.4c-0.2-0.3-0.4-0.5-0.6-0.7c-0.1,0-0.1,0.1-0.2,0.2c-0.2,0.3-0.4,0.6-0.6,0.9l0.5-0.1c0,0,0-0.1,0-0.1
			c0,0,0-0.1,0-0.1c0,0,0,0,0,0c0,0,0,0,0.1-0.1L135.7,703.3z"/>
	</g>
</g>
</svg>
