<?xml version="1.0" encoding="utf-8"?>
<!-- Generator: Adobe Illustrator 24.1.1, SVG Export Plug-In . SVG Version: 6.00 Build 0)  -->
<svg version="1.1" id="圖層_1" xmlns="http://www.w3.org/2000/svg" xmlns:xlink="http://www.w3.org/1999/xlink" x="0px" y="0px"
	 viewBox="0 0 131 56" style="enable-background:new 0 0 131 56;" xml:space="preserve">
<style type="text/css">
	.st0{fill:url(#Path_2967_1_);}
	.st1{enable-background:new    ;}
	.st2{fill:#FFFFFF;}
	.st3{fill:#F33F46;}
	.st4{fill:#F33F46;stroke:#F33F46;stroke-width:0.25;}
</style>
<g id="Group_16159" transform="translate(-192 -676)">
	
		<linearGradient id="Path_2967_1_" gradientUnits="userSpaceOnUse" x1="116.4052" y1="844.5748" x2="117.5562" y2="843.5038" gradientTransform="matrix(131 0 0 -56 -15080 47965.0156)">
		<stop  offset="0" style="stop-color:#5442D6"/>
		<stop  offset="0.578" style="stop-color:#F01E42"/>
		<stop  offset="1" style="stop-color:#FEC053"/>
	</linearGradient>
	<path id="Path_2967" class="st0" d="M200,676h115c4.4,0,8,3.6,8,8v40c0,4.4-3.6,8-8,8H200c-4.4,0-8-3.6-8-8v-40
		C192,679.6,195.6,676,200,676z"/>
	<g class="st1">
		<path class="st2" d="M231.8,691.5h-1.2v-5.7h1.2V691.5z"/>
		<path class="st2" d="M234.7,687.3l0,0.5c0.3-0.4,0.7-0.6,1.2-0.6c0.4,0,0.8,0.1,1,0.4s0.3,0.7,0.3,1.2v2.7h-1.1v-2.7
			c0-0.2-0.1-0.4-0.2-0.5s-0.3-0.2-0.5-0.2c-0.3,0-0.6,0.1-0.7,0.4v3h-1.1v-4.2H234.7z"/>
		<path class="st2" d="M241.2,690.3c0-0.1-0.1-0.2-0.2-0.3s-0.4-0.2-0.7-0.2c-1-0.2-1.5-0.6-1.5-1.3c0-0.4,0.2-0.7,0.5-0.9
			s0.7-0.4,1.2-0.4c0.5,0,1,0.1,1.3,0.4s0.5,0.6,0.5,1h-1.1c0-0.2-0.1-0.3-0.2-0.4s-0.3-0.2-0.5-0.2c-0.2,0-0.3,0-0.4,0.1
			s-0.2,0.2-0.2,0.3c0,0.1,0.1,0.2,0.2,0.3s0.3,0.1,0.6,0.2s0.5,0.1,0.7,0.2c0.6,0.2,0.9,0.6,0.9,1.1c0,0.4-0.2,0.7-0.5,0.9
			s-0.8,0.4-1.3,0.4c-0.4,0-0.7-0.1-0.9-0.2s-0.5-0.3-0.6-0.5s-0.2-0.5-0.2-0.7h1.1c0,0.2,0.1,0.4,0.2,0.5s0.3,0.2,0.6,0.2
			c0.2,0,0.4,0,0.5-0.1S241.2,690.5,241.2,690.3z"/>
		<path class="st2" d="M245.2,686.2v1h0.7v0.8h-0.7v2.1c0,0.2,0,0.3,0.1,0.3s0.2,0.1,0.3,0.1c0.1,0,0.2,0,0.3,0v0.9
			c-0.2,0.1-0.4,0.1-0.7,0.1c-0.8,0-1.2-0.4-1.2-1.2v-2.3h-0.6v-0.8h0.6v-1H245.2z"/>
		<path class="st2" d="M249.8,691.5c-0.1-0.1-0.1-0.2-0.1-0.4c-0.3,0.3-0.6,0.5-1.1,0.5c-0.4,0-0.8-0.1-1-0.4s-0.4-0.5-0.4-0.9
			c0-0.4,0.2-0.8,0.5-1s0.8-0.4,1.4-0.4h0.5v-0.2c0-0.2-0.1-0.4-0.2-0.5s-0.3-0.2-0.5-0.2c-0.2,0-0.3,0-0.4,0.1s-0.2,0.2-0.2,0.4
			h-1.1c0-0.2,0.1-0.5,0.2-0.7s0.4-0.4,0.6-0.5s0.6-0.2,0.9-0.2c0.5,0,0.9,0.1,1.2,0.4s0.5,0.6,0.5,1.1v1.8c0,0.4,0.1,0.7,0.2,0.9
			v0.1H249.8z M248.8,690.7c0.2,0,0.3,0,0.5-0.1s0.2-0.2,0.3-0.3v-0.7h-0.4c-0.6,0-0.9,0.2-0.9,0.6l0,0.1c0,0.1,0,0.3,0.1,0.3
			S248.7,690.7,248.8,690.7z"/>
		<path class="st2" d="M252.2,689.4c0-0.6,0.2-1.2,0.5-1.6s0.7-0.6,1.2-0.6c0.5,0,0.8,0.2,1.1,0.5l0-0.4h1v4.1c0,0.4-0.1,0.7-0.3,1
			s-0.4,0.5-0.7,0.6s-0.7,0.2-1.1,0.2c-0.3,0-0.6-0.1-0.9-0.2s-0.5-0.3-0.7-0.5l0.5-0.7c0.3,0.3,0.6,0.5,1,0.5
			c0.3,0,0.5-0.1,0.7-0.2s0.3-0.4,0.3-0.7v-0.2c-0.3,0.3-0.6,0.4-1,0.4c-0.5,0-0.9-0.2-1.2-0.6S252.2,690.1,252.2,689.4L252.2,689.4
			z M253.4,689.4c0,0.4,0.1,0.7,0.2,0.9c0.2,0.2,0.4,0.3,0.6,0.3c0.3,0,0.6-0.1,0.7-0.4v-1.8c-0.2-0.3-0.4-0.4-0.7-0.4
			c-0.3,0-0.5,0.1-0.6,0.3S253.4,689,253.4,689.4z"/>
		<path class="st2" d="M260.1,688.3c-0.2,0-0.3,0-0.4,0c-0.4,0-0.7,0.1-0.8,0.4v2.8h-1.1v-4.2h1.1l0,0.5c0.2-0.4,0.5-0.6,0.9-0.6
			c0.1,0,0.2,0,0.4,0.1L260.1,688.3z"/>
		<path class="st2" d="M263.8,691.5c-0.1-0.1-0.1-0.2-0.1-0.4c-0.3,0.3-0.6,0.5-1.1,0.5c-0.4,0-0.8-0.1-1-0.4
			c-0.3-0.2-0.4-0.5-0.4-0.9c0-0.4,0.2-0.8,0.5-1s0.8-0.4,1.4-0.4h0.5v-0.2c0-0.2-0.1-0.4-0.2-0.5c-0.1-0.1-0.3-0.2-0.5-0.2
			c-0.2,0-0.3,0-0.4,0.1c-0.1,0.1-0.2,0.2-0.2,0.4h-1.1c0-0.2,0.1-0.5,0.2-0.7c0.2-0.2,0.4-0.4,0.6-0.5c0.3-0.1,0.6-0.2,0.9-0.2
			c0.5,0,0.9,0.1,1.2,0.4c0.3,0.3,0.5,0.6,0.5,1.1v1.8c0,0.4,0.1,0.7,0.2,0.9v0.1H263.8z M262.9,690.7c0.2,0,0.3,0,0.5-0.1
			s0.2-0.2,0.3-0.3v-0.7h-0.4c-0.6,0-0.9,0.2-0.9,0.6l0,0.1c0,0.1,0,0.3,0.1,0.3C262.6,690.7,262.7,690.7,262.9,690.7z"/>
		<path class="st2" d="M267.5,687.3l0,0.5c0.3-0.4,0.7-0.6,1.2-0.6c0.5,0,0.9,0.2,1.1,0.6c0.3-0.4,0.7-0.6,1.3-0.6
			c0.5,0,0.8,0.1,1,0.4c0.2,0.3,0.3,0.7,0.3,1.2v2.7h-1.1v-2.7c0-0.2,0-0.4-0.1-0.5s-0.3-0.2-0.5-0.2c-0.3,0-0.6,0.2-0.7,0.5l0,2.9
			h-1.1v-2.7c0-0.2,0-0.4-0.1-0.5c-0.1-0.1-0.3-0.2-0.5-0.2c-0.3,0-0.6,0.1-0.7,0.4v3h-1.1v-4.2H267.5z"/>
	</g>
	<g class="st1">
		<path class="st2" d="M231.8,705h-1.2v-5.7h1.2V705z"/>
		<path class="st2" d="M238.2,704.3c-0.2,0.3-0.5,0.4-0.9,0.6s-0.8,0.2-1.3,0.2c-0.5,0-0.9-0.1-1.3-0.3s-0.7-0.5-0.9-0.9
			s-0.3-0.9-0.3-1.4V702c0-0.6,0.1-1.1,0.3-1.5s0.5-0.7,0.8-1s0.8-0.3,1.3-0.3c0.7,0,1.2,0.2,1.6,0.5s0.6,0.8,0.7,1.4H237
			c-0.1-0.3-0.2-0.6-0.3-0.7s-0.4-0.2-0.7-0.2c-0.4,0-0.7,0.1-0.9,0.4s-0.3,0.7-0.3,1.3v0.4c0,0.6,0.1,1,0.3,1.4s0.6,0.5,1,0.5
			c0.4,0,0.8-0.1,0.9-0.3v-1H236V702h2.2V704.3z"/>
	</g>
	<g class="st1">
		<path class="st2" d="M241,698.5c0.3,0,0.5,0,0.8,0.1c0.1,0,0.1,0,0.1,0.1c0,0,0,0.1,0,0.2c0,0.1-0.1,0.4-0.1,0.8v1.5h0l0.8,0
			c0,0,0.1,0,0.1,0s0,0,0,0.1v0.1c0.5-0.6,0.8-1.3,1-2.2c0-0.2,0.1-0.4,0.1-0.6c0.3,0.1,0.5,0.1,0.7,0.2c0.1,0,0.1,0.1,0.1,0.1
			c0,0,0,0.1-0.1,0.1c0,0-0.1,0.1-0.1,0.3c-0.2,0.9-0.6,1.6-1,2.3h2c0.4,0,0.6,0,0.7,0c-0.5-0.8-0.9-1.7-1.2-2.7c0,0,0,0,0-0.1
			c0,0,0-0.1,0.1-0.1l0.5-0.2c0,0,0.1,0,0.1,0c0,0,0,0,0.1,0.1c0.3,1.2,0.8,2.1,1.4,2.8c-0.2,0.1-0.3,0.3-0.5,0.5
			c-0.1,0.1-0.1,0.1-0.2,0.1c0,0,0,0,0,0v0.3c0,1.1-0.1,1.9-0.2,2.5c-0.1,0.5-0.4,0.8-0.8,0.8c-0.2,0-0.4,0-0.7,0
			c-0.1,0-0.2,0-0.2,0c0,0,0-0.1-0.1-0.2c0-0.2-0.1-0.4-0.2-0.6c0.3,0,0.5,0.1,0.7,0.1c0,0,0.1,0,0.1,0c0.2,0,0.4-0.1,0.5-0.4
			c0.1-0.5,0.2-1.2,0.2-2.1h-1c0,0.8-0.2,1.5-0.5,2.1c-0.3,0.5-0.7,0.9-1.2,1.2c-0.1,0.1-0.2,0.1-0.2,0.1c0,0-0.1-0.1-0.2-0.2
			c-0.1-0.2-0.3-0.3-0.4-0.4c0.6-0.4,1.1-0.8,1.3-1.2c0.2-0.4,0.4-1,0.4-1.6c-0.2,0-0.4,0-0.5,0c-0.1,0-0.2,0-0.2,0c0,0-0.1,0-0.1,0
			c0,0,0,0,0-0.1V702l-0.1-0.1c-0.1-0.1-0.2-0.2-0.3-0.3v0.2c0,0.1,0,0.1-0.1,0.1l-0.8,0c0.3,0.5,0.6,1,1,1.4
			c-0.1,0.2-0.2,0.4-0.3,0.5c0,0.1-0.1,0.1-0.1,0.1c0,0-0.1,0-0.1-0.1c-0.2-0.3-0.5-0.7-0.6-1.2c0,0.7,0,1.4,0,2.2
			c0,0.2,0,0.4,0,0.7c0,0.1,0,0.2,0,0.2c0,0,0,0.1,0,0.1c0,0,0,0-0.1,0h-0.6c0,0-0.1,0-0.1,0c0,0,0,0,0-0.1c0,0,0-0.2,0-0.5
			c0-0.9,0-1.7,0-2.4c-0.2,0.6-0.5,1.3-0.9,1.8c0,0.1-0.1,0.1-0.1,0.1c0,0-0.1,0-0.1-0.1c-0.1-0.2-0.2-0.4-0.3-0.5
			c0.6-0.7,1-1.5,1.3-2.3h-0.2l-0.8,0c-0.1,0-0.1,0-0.1-0.1v-0.6c0-0.1,0-0.1,0.1-0.1l0.8,0h0.3v-1.4
			C241.1,699.2,241.1,698.8,241,698.5z M240.4,699.1C240.4,699.1,240.4,699.1,240.4,699.1c0.1,0,0.1,0,0.1,0.1
			c0.2,0.4,0.3,0.8,0.4,1.3c0,0,0,0,0,0.1c0,0,0,0.1-0.1,0.1l-0.3,0.1c0,0-0.1,0-0.1,0c0,0,0,0-0.1-0.1c-0.1-0.5-0.2-0.9-0.4-1.3
			c0,0,0,0,0-0.1c0,0,0-0.1,0.1-0.1L240.4,699.1z M242,700.6c0.2-0.4,0.3-0.8,0.4-1.2c0-0.1,0.1-0.3,0.1-0.4
			c0.2,0.1,0.4,0.2,0.6,0.3c0.1,0,0.1,0.1,0.1,0.1c0,0,0,0.1,0,0.1c0,0-0.1,0.1-0.1,0.2c-0.1,0.4-0.3,0.7-0.4,1
			c0,0.1-0.1,0.2-0.1,0.2c0,0-0.1,0-0.2-0.1C242.1,700.6,242,700.6,242,700.6z"/>
		<path class="st2" d="M248.5,705c0.2-0.5,0.4-1,0.5-1.5c0-0.2,0-0.3,0-0.5c0.2,0,0.4,0.1,0.7,0.2c0.1,0,0.1,0.1,0.1,0.1
			c0,0,0,0.1,0,0.1c0,0.1-0.1,0.1-0.1,0.3c-0.1,0.6-0.2,1.1-0.4,1.5c0,0.1-0.1,0.2-0.1,0.2c0,0-0.1,0-0.2-0.1
			C248.8,705.2,248.7,705.1,248.5,705z M251.6,701c0.2,0.5,0.4,1,0.6,1.4c0,0,0,0,0,0.1c0,0,0,0.1-0.1,0.1l-0.4,0.2c0,0-0.1,0-0.1,0
			c0,0-0.1,0-0.1-0.1c0,0,0-0.1,0-0.2c0-0.1,0-0.1,0-0.1l-0.6,0.1v2.3l0,0.9c0,0,0,0.1,0,0.1s0,0-0.1,0h-0.6c0,0-0.1,0-0.1,0
			s0,0,0-0.1l0-0.9v-2.2c-0.4,0-0.7,0.1-0.8,0.1c-0.1,0-0.2,0-0.3,0.1c-0.1,0-0.1,0-0.1,0c-0.1,0-0.1,0-0.1-0.1
			c0-0.2-0.1-0.4-0.1-0.7c0.2,0,0.4,0,0.7,0h0.2c0.1-0.2,0.3-0.3,0.4-0.5c-0.3-0.4-0.7-0.8-1.1-1.2c0,0,0-0.1,0-0.1
			c0,0,0-0.1,0.1-0.1l0.3-0.4c0,0,0.1-0.1,0.1-0.1c0,0,0,0,0.1,0c0,0,0.1,0.1,0.2,0.2c0.2-0.3,0.3-0.5,0.4-0.8
			c0.1-0.2,0.1-0.3,0.2-0.5c0.3,0.1,0.5,0.2,0.7,0.3c0.1,0,0.1,0.1,0.1,0.1c0,0,0,0.1-0.1,0.1c-0.1,0-0.1,0.1-0.2,0.2
			c-0.3,0.5-0.5,0.8-0.7,1.1c0.1,0.1,0.2,0.3,0.4,0.4c0.1-0.2,0.3-0.5,0.6-1c0.1-0.2,0.2-0.4,0.2-0.6c0.3,0.1,0.5,0.3,0.7,0.4
			c0.1,0,0.1,0.1,0.1,0.1c0,0.1,0,0.1-0.1,0.1c-0.1,0-0.2,0.1-0.3,0.3c-0.4,0.6-0.8,1.2-1.2,1.7l0.9-0.1l-0.2-0.5c0,0,0,0,0-0.1
			c0,0,0-0.1,0.1-0.1l0.4-0.2C251.5,701,251.5,701,251.6,701C251.5,701,251.6,701,251.6,701z M251,703.3
			C251,703.3,251,703.2,251,703.3c0-0.1,0-0.1,0.1-0.1l0.4-0.1c0,0,0.1,0,0.1,0c0,0,0,0,0.1,0.1c0.2,0.4,0.3,0.9,0.4,1.3
			c0,0,0,0,0,0.1c0,0,0,0.1-0.1,0.1l-0.5,0.2c0,0-0.1,0-0.1,0c0,0-0.1,0-0.1-0.1C251.3,704.1,251.2,703.7,251,703.3z M252,705
			c0.2-0.5,0.4-1,0.5-1.5c0-0.2,0-0.4,0-0.5c0.3,0,0.5,0.1,0.7,0.2c0.1,0,0.1,0.1,0.1,0.1c0,0,0,0.1,0,0.1c0,0.1-0.1,0.2-0.1,0.3
			c-0.1,0.5-0.2,1-0.4,1.5c0,0.1-0.1,0.2-0.1,0.2c0,0-0.1,0-0.2-0.1C252.3,705.2,252.1,705.1,252,705z M252.2,701.9
			c0.3,0,0.4,0,0.5,0c0.1,0,0.1,0,0.2,0c0.2-0.2,0.3-0.3,0.4-0.5c-0.3-0.4-0.7-0.8-1.1-1.2c0,0,0,0,0-0.1c0,0,0-0.1,0.1-0.1l0.3-0.4
			c0,0,0.1-0.1,0.1-0.1s0,0,0.1,0.1l0.2,0.2c0.1-0.2,0.3-0.5,0.5-0.9c0.1-0.2,0.1-0.3,0.2-0.5c0.3,0.1,0.5,0.2,0.7,0.3
			c0.1,0,0.1,0.1,0.1,0.1c0,0,0,0.1-0.1,0.1c0,0-0.1,0.1-0.1,0.2c-0.2,0.4-0.5,0.8-0.7,1.1c0.1,0.2,0.3,0.3,0.4,0.4
			c0.3-0.4,0.5-0.7,0.6-1c0.1-0.1,0.2-0.3,0.3-0.5c0.2,0.1,0.5,0.2,0.7,0.4c0.1,0,0.1,0.1,0.1,0.1c0,0.1,0,0.1-0.1,0.1
			c-0.1,0-0.2,0.1-0.3,0.3c-0.4,0.6-0.8,1.2-1.3,1.7c0.3,0,0.6,0,1.1-0.1c0,0-0.1-0.2-0.3-0.5c0,0,0,0,0-0.1c0,0,0-0.1,0.1-0.1
			l0.4-0.2c0,0,0.1,0,0.1,0c0,0,0,0,0.1,0.1c0.3,0.5,0.5,0.9,0.6,1.4c0,0,0,0,0,0.1c0,0,0,0.1-0.1,0.1l-0.5,0.2c0,0-0.1,0-0.1,0
			c0,0-0.1,0-0.1-0.1c0-0.1-0.1-0.3-0.1-0.3c-0.1,0-0.3,0-0.7,0.1v2.3l0,0.9c0,0,0,0.1,0,0.1s0,0-0.1,0h-0.6c0,0-0.1,0-0.1,0
			s0,0,0-0.1l0-0.9v-2.2l-0.8,0c-0.1,0-0.2,0-0.3,0.1c-0.1,0-0.1,0-0.1,0c-0.1,0-0.1,0-0.1-0.1C252.2,702.4,252.2,702.2,252.2,701.9
			z M256,704.9c-0.2,0.1-0.3,0.1-0.5,0.2c-0.1,0.1-0.2,0.1-0.2,0.1c0,0-0.1-0.1-0.1-0.2c-0.2-0.6-0.4-1.2-0.5-1.7c0,0,0-0.1,0-0.1
			c0,0,0-0.1,0.1-0.1l0.5-0.2c0,0,0,0,0.1,0c0,0,0,0,0.1,0.1C255.5,703.7,255.7,704.3,256,704.9z"/>
		<path class="st2" d="M257.6,704.9c0.2,0,0.4,0,0.6,0c0.2,0,0.3-0.1,0.3-0.3v-1.5c-0.2,0.1-0.3,0.1-0.4,0.1c0,0-0.1,0.1-0.3,0.1
			c-0.1,0-0.1,0.1-0.1,0.1c0,0-0.1,0-0.1-0.1c-0.1-0.2-0.1-0.5-0.1-0.8c0.2,0,0.5-0.1,0.7-0.1l0.3-0.1v-1.5h-0.1l-0.8,0
			c0,0-0.1,0-0.1,0c0,0,0,0,0-0.1v-0.6c0,0,0-0.1,0-0.1s0,0,0.1,0l0.8,0h0.1v-0.4c0-0.5,0-0.9-0.1-1.1c0.3,0,0.6,0,0.8,0.1
			c0.1,0,0.1,0,0.1,0.1c0,0,0,0.1-0.1,0.2c0,0.1,0,0.3,0,0.8v0.4l0.8,0c0,0,0.1,0,0.1,0s0,0,0,0.1v0.6c0,0,0,0.1,0,0.1
			c0,0,0,0-0.1,0l-0.8,0v1.2c0.3-0.1,0.5-0.2,0.7-0.3c0,0.1,0,0.3,0,0.6c0,0.1,0,0.2,0,0.2c0,0-0.1,0.1-0.2,0.1l-0.5,0.2v0.4l0,1.6
			c0,0.2,0,0.4-0.1,0.5c0,0.1-0.1,0.2-0.2,0.3c-0.2,0.1-0.5,0.2-0.9,0.2c-0.1,0-0.2,0-0.2,0c0,0,0-0.1-0.1-0.2
			C257.7,705.3,257.6,705.1,257.6,704.9z M263.6,699.6h-1.3c0,0.6-0.2,1.1-0.5,1.6c-0.3,0.4-0.6,0.7-1.1,1c-0.1,0.1-0.2,0.1-0.2,0.1
			c0,0-0.1-0.1-0.2-0.2c-0.1-0.2-0.2-0.3-0.4-0.4c0.5-0.2,0.9-0.5,1.2-0.9c0.2-0.3,0.3-0.7,0.4-1.2h-0.3l-1,0c0,0-0.1,0-0.1,0
			c0,0,0,0,0-0.1v-0.6c0,0,0-0.1,0-0.1c0,0,0,0,0.1,0l1,0h2.1l1.1,0c0.1,0,0.1,0,0.1,0.1c0,0,0,0,0,0c0,0.1,0,0.2,0,0.3
			c0,0.2,0,0.2,0,0.3c0,1-0.1,1.7-0.3,2c-0.1,0.2-0.3,0.3-0.5,0.4c-0.2,0-0.5,0-0.8,0c-0.1,0-0.2,0-0.2,0c0,0,0-0.1-0.1-0.2
			c0-0.2-0.1-0.4-0.2-0.6c0.3,0,0.5,0.1,0.7,0.1c0.2,0,0.3-0.1,0.4-0.2C263.5,700.9,263.6,700.4,263.6,699.6z M261.1,705.8h-0.6
			c-0.1,0-0.1,0-0.1-0.1l0-1.5v-0.7l0-1c0,0,0-0.1,0-0.1c0,0,0,0,0.1,0l1,0h1.7l1,0c0,0,0.1,0,0.1,0c0,0,0,0,0,0.1l0,0.9v0.8l0,1.5
			c0,0,0,0.1,0,0.1c0,0,0,0-0.1,0h-0.7c0,0-0.1,0-0.1,0s0,0,0-0.1v-0.3h-2.2L261.1,705.8C261.2,705.8,261.1,705.8,261.1,705.8z
			 M261.2,703.2v1.5h2.2v-1.5H261.2z"/>
		<path class="st2" d="M266.1,704c0.8-0.2,1.4-0.5,1.9-0.8h-0.6l-1,0c-0.1,0-0.1,0-0.1-0.1v-0.5c0-0.1,0-0.1,0.1-0.1l1,0h1.3
			c0.1-0.1,0.2-0.3,0.3-0.4h-0.4l-1.1,0c0,0-0.1,0-0.1,0c0,0,0,0,0-0.1l0-0.6v-0.7l0-0.6c0,0,0-0.1,0-0.1c0,0,0,0,0.1,0l1.1,0h2.6
			l1.1,0c0,0,0.1,0,0.1,0s0,0,0,0.1l0,0.6v0.7l0,0.6c0,0,0,0.1,0,0.1c0,0,0,0-0.1,0l-1.1,0h-1.7l0.3,0.1c0.1,0,0.1,0.1,0.1,0.1
			s0,0.1-0.1,0.1c-0.1,0-0.1,0.1-0.2,0.1h2.8l1,0c0,0,0.1,0,0.1,0c0,0,0,0,0,0.1v0.5c0,0,0,0.1,0,0.1c0,0,0,0-0.1,0l-1,0h-0.6
			c0.4,0.3,1,0.5,1.9,0.6c-0.1,0.1-0.2,0.3-0.3,0.5c-0.1,0.1-0.1,0.2-0.2,0.2c0,0-0.1,0-0.2,0c-0.3-0.1-0.6-0.2-0.9-0.4
			c0,0.2,0,0.4-0.1,0.5c0,0.3-0.1,0.6-0.2,0.8c-0.2,0.3-0.4,0.4-0.9,0.4c-0.2,0-0.3,0-0.5,0c-0.1,0-0.2,0-0.2,0c0,0,0-0.1-0.1-0.2
			c0-0.2-0.1-0.3-0.2-0.5c0.3,0,0.6,0.1,0.8,0.1c0.2,0,0.3-0.1,0.3-0.2c0-0.1,0.1-0.3,0.1-0.5h-1.3c-0.2,0.3-0.4,0.6-0.7,0.8
			c-0.4,0.3-1,0.5-1.7,0.6c-0.1,0-0.1,0-0.2,0c-0.1,0-0.1-0.1-0.2-0.2c0-0.1-0.1-0.3-0.3-0.4c0.9-0.1,1.5-0.2,1.9-0.5
			c0.1-0.1,0.2-0.2,0.3-0.3H269l-1,0c0,0-0.1,0-0.1,0c0,0,0,0,0-0.1v-0.3c-0.3,0.2-0.6,0.3-1,0.5c-0.1,0-0.2,0.1-0.2,0.1
			c0,0-0.1-0.1-0.2-0.2C266.3,704.2,266.2,704.1,266.1,704z M268.2,698.5c0.3,0,0.6,0,0.8,0c0.1,0,0.1,0,0.1,0.1c0,0,0,0.1,0,0.1
			c0,0.1,0,0.2,0,0.3h1.6c0-0.2,0-0.4,0-0.5c0.3,0,0.6,0,0.8,0c0.1,0,0.1,0,0.1,0.1c0,0,0,0.1,0,0.1c0,0.1,0,0.2,0,0.3h0.9l1,0
			c0,0,0.1,0,0.1,0c0,0,0,0,0,0.1v0.5c0,0,0,0.1,0,0.1c0,0,0,0-0.1,0l-1,0h-0.9c0,0,0,0.1,0,0.2c0,0,0,0.1,0,0.1c0,0,0,0.1,0,0.1
			c0,0,0,0-0.1,0h-0.6c0,0-0.1,0-0.1,0c0,0,0,0,0-0.1l0-0.3H269c0,0,0,0.1,0,0.2c0,0,0,0.1,0,0.1c0,0,0,0.1,0,0.1c0,0,0,0-0.1,0
			h-0.6c0,0-0.1,0-0.1,0c0,0,0,0,0-0.1l0-0.3h-0.9l-1,0c0,0-0.1,0-0.1,0c0,0,0,0,0-0.1v-0.5c0,0,0-0.1,0-0.1c0,0,0,0,0.1,0l1,0h0.9
			C268.3,698.8,268.3,698.6,268.2,698.5z M271.5,700.6h-3.3v0.3h3.3V700.6z M271.5,701.7v-0.3h-3.3v0.3H271.5z M270.1,703.8h1.4
			c-0.3-0.2-0.5-0.4-0.7-0.6H269c-0.2,0.2-0.5,0.4-0.8,0.6h1.1c0-0.2,0.1-0.3,0.1-0.4c0,0,0,0,0-0.1c0.1,0,0.2,0,0.4,0
			c0.2,0,0.3,0,0.3,0c0.1,0,0.1,0,0.1,0.1c0,0,0,0.1-0.1,0.1C270.2,703.6,270.1,703.7,270.1,703.8z"/>
		<path class="st2" d="M278.1,698.5c0.4,0,0.7,0,0.9,0.1c0.1,0,0.1,0,0.1,0.1c0,0.1,0,0.1,0,0.2c0,0.1-0.1,0.3-0.1,0.6v0.6h1.6
			l1.1,0c0,0,0.1,0,0.1,0s0,0,0,0.1l0,1v0.9l0,1.6c0,0,0,0.1,0,0.1c0,0,0,0-0.1,0H281c0,0-0.1,0-0.1,0c0,0,0,0,0-0.1v-0.3H279v1
			l0,1.5c0,0,0,0.1,0,0.1c0,0,0,0-0.1,0h-0.7c0,0-0.1,0-0.1,0s0,0,0-0.1l0-1.5v-1h-1.8v0.4c0,0,0,0.1,0,0.1c0,0,0,0-0.1,0h-0.7
			c0,0-0.1,0-0.1,0c0,0,0,0,0-0.1l0-1.6v-0.8l0-1.1c0,0,0-0.1,0-0.1c0,0,0,0,0.1,0l1.1,0h1.4v-0.5
			C278.2,699.1,278.1,698.7,278.1,698.5z M276.4,700.8v1.7h1.8v-1.7H276.4z M280.9,700.8H279v1.7h1.9V700.8z"/>
	</g>
	<g id="Group_16153" transform="translate(-197.489 596.433)">
		<g id="Group_16144" transform="translate(404.463 94.386)">
			<g>
				<path id="Path_2959_1_" class="st2" d="M5.2,10.4c2.9,0,5.2-2.3,5.2-5.2S8,0,5.2,0S0,2.3,0,5.2C0,8,2.3,10.4,5.2,10.4z M1.3,5.2
					C1.3,3,3,1.3,5.2,1.3c2.2,0,3.9,1.8,3.9,3.9S7.3,9.1,5.2,9.1l0,0C3,9.1,1.3,7.3,1.3,5.2L1.3,5.2z"/>
				<path class="st2" d="M5.2,10.6L5.2,10.6c-3,0-5.4-2.4-5.4-5.4c0-3,2.4-5.4,5.4-5.4c0,0,0,0,0,0c3,0,5.4,2.4,5.4,5.4
					C10.6,8.2,8.2,10.6,5.2,10.6z M5.2,0.3C5.2,0.3,5.2,0.3,5.2,0.3c-2.7,0-4.9,2.2-4.9,4.9c0,2.7,2.2,4.9,4.9,4.9
					c2.7,0,4.9-2.2,4.9-4.9C10.1,2.5,7.9,0.3,5.2,0.3z M5.2,9.4C2.9,9.4,1,7.5,1,5.2v0C1,2.9,2.9,1,5.2,1c2.3,0,4.2,1.9,4.2,4.2
					C9.4,7.5,7.5,9.4,5.2,9.4z M1.5,5.2c0,2,1.7,3.7,3.7,3.7c2,0,3.7-1.6,3.7-3.7S7.2,1.5,5.2,1.5S1.5,3.2,1.5,5.2L1.5,5.2z"/>
			</g>
		</g>
		<g>
			<path id="Path_2960_1_" class="st2" d="M415.9,110h-12.5c-2.4,0-4.3-1.9-4.3-4.3V93.4c0-2.4,1.9-4.3,4.3-4.3h12.5
				c2.4,0,4.3,1.9,4.3,4.3v12.3C420.2,108.1,418.3,110,415.9,110z M403.4,90.7c-1.5,0-2.7,1.2-2.7,2.7v12.3c0,1.5,1.2,2.7,2.7,2.7
				h12.5c1.5,0,2.7-1.2,2.7-2.7V93.4c0-1.5-1.2-2.7-2.7-2.7H403.4z"/>
			<path class="st2" d="M415.9,110.2h-12.5c-2.5,0-4.5-2-4.5-4.5V93.4c0-2.5,2-4.5,4.5-4.5h12.5c2.5,0,4.5,2,4.5,4.5v12.3
				C420.4,108.2,418.4,110.2,415.9,110.2z M403.4,89.4c-2.2,0-4,1.8-4,4v12.3c0,2.2,1.8,4,4,4h12.5c2.2,0,4-1.8,4-4V93.4
				c0-2.2-1.8-4-4-4H403.4z M415.9,108.7h-12.5c-1.6,0-3-1.3-3-3V93.4c0-1.6,1.3-3,3-3h12.5c1.6,0,3,1.3,3,2.9v12.3
				C418.9,107.4,417.5,108.7,415.9,108.7z M403.4,91c-1.4,0-2.5,1.1-2.5,2.5v12.3c0,1.4,1.1,2.5,2.5,2.5h12.5c1.4,0,2.5-1.1,2.5-2.5
				V93.4c0-1.3-1.1-2.4-2.5-2.5H403.4L403.4,91z"/>
		</g>
	</g>
	<path id="Path_2968" class="st2" d="M205,712h106c2.2,0,4,1.8,4,4v7c0,2.2-1.8,4-4,4H205c-2.2,0-4-1.8-4-4v-7
		C201,713.8,202.8,712,205,712z"/>
	<g class="st1">
		<path class="st3" d="M224.5,722.1c0.2,0,0.4-0.1,0.6-0.2s0.2-0.3,0.2-0.5h1.2c0,0.3-0.1,0.6-0.3,0.9c-0.2,0.3-0.4,0.5-0.7,0.6
			c-0.3,0.1-0.6,0.2-1,0.2c-0.7,0-1.2-0.2-1.6-0.6c-0.4-0.4-0.6-1-0.6-1.8v-0.1c0-0.7,0.2-1.3,0.6-1.8s0.9-0.7,1.6-0.7
			c0.6,0,1.1,0.2,1.4,0.5c0.4,0.3,0.5,0.8,0.5,1.4h-1.2c0-0.2-0.1-0.4-0.2-0.6s-0.3-0.2-0.6-0.2c-0.3,0-0.5,0.1-0.7,0.3
			s-0.2,0.6-0.2,1v0.1c0,0.5,0.1,0.8,0.2,1.1C224,722,224.2,722.1,224.5,722.1z"/>
		<path class="st3" d="M228.1,717c0-0.2,0.1-0.3,0.2-0.5c0.1-0.1,0.3-0.2,0.5-0.2c0.2,0,0.4,0.1,0.5,0.2s0.2,0.3,0.2,0.5
			c0,0.2-0.1,0.4-0.2,0.5s-0.3,0.2-0.5,0.2s-0.4-0.1-0.5-0.2C228.2,717.4,228.1,717.2,228.1,717z M229.5,723h-1.3v-4.8h1.3V723z"/>
		<path class="st3" d="M232.9,717.1v1.2h0.8v0.9h-0.8v2.4c0,0.2,0,0.3,0.1,0.4s0.2,0.1,0.4,0.1c0.1,0,0.3,0,0.4,0v1
			c-0.2,0.1-0.5,0.1-0.8,0.1c-0.9,0-1.3-0.4-1.4-1.3v-2.6H231v-0.9h0.7v-1.2H232.9z"/>
		<path class="st3" d="M237.1,721.2l0.9-3h1.4l-1.9,5.5l-0.1,0.3c-0.3,0.6-0.8,0.9-1.4,0.9c-0.2,0-0.4,0-0.6-0.1v-1l0.2,0
			c0.2,0,0.4,0,0.5-0.1c0.1-0.1,0.2-0.2,0.3-0.4l0.1-0.4l-1.7-4.8h1.4L237.1,721.2z"/>
		<path class="st3" d="M245.1,720.7c0,0.8-0.2,1.4-0.5,1.8c-0.3,0.4-0.8,0.6-1.4,0.6c-0.5,0-0.9-0.2-1.2-0.6l-0.1,0.5h-1.1v-6.8h1.3
			v2.4c0.3-0.3,0.7-0.5,1.2-0.5c0.6,0,1,0.2,1.4,0.6C244.9,719.2,245.1,719.8,245.1,720.7L245.1,720.7z M243.8,720.6
			c0-0.5-0.1-0.8-0.2-1.1c-0.2-0.2-0.4-0.3-0.7-0.3c-0.4,0-0.7,0.2-0.8,0.5v1.9c0.2,0.3,0.4,0.5,0.8,0.5c0.4,0,0.7-0.2,0.8-0.6
			C243.8,721.3,243.8,721,243.8,720.6z"/>
		<path class="st3" d="M249.5,723c-0.1-0.1-0.1-0.3-0.1-0.4c-0.3,0.3-0.7,0.5-1.2,0.5c-0.5,0-0.9-0.1-1.2-0.4s-0.5-0.6-0.5-1
			c0-0.5,0.2-0.9,0.6-1.2c0.4-0.3,0.9-0.4,1.6-0.4h0.6v-0.3c0-0.2-0.1-0.4-0.2-0.5c-0.1-0.1-0.3-0.2-0.5-0.2c-0.2,0-0.4,0.1-0.5,0.2
			s-0.2,0.2-0.2,0.4h-1.3c0-0.3,0.1-0.5,0.3-0.8c0.2-0.2,0.4-0.4,0.7-0.6c0.3-0.1,0.7-0.2,1-0.2c0.6,0,1.1,0.1,1.4,0.4
			c0.3,0.3,0.5,0.7,0.5,1.2v2.1c0,0.5,0.1,0.8,0.2,1v0.1H249.5z M248.5,722.1c0.2,0,0.4,0,0.5-0.1c0.2-0.1,0.3-0.2,0.4-0.3v-0.8
			h-0.5c-0.6,0-1,0.2-1,0.7l0,0.1c0,0.2,0.1,0.3,0.2,0.4S248.3,722.1,248.5,722.1z"/>
		<path class="st3" d="M253.6,718.2l0,0.5c0.3-0.4,0.8-0.6,1.4-0.6c0.5,0,0.9,0.1,1.1,0.4s0.4,0.7,0.4,1.3v3.1h-1.3v-3
			c0-0.3-0.1-0.5-0.2-0.6c-0.1-0.1-0.3-0.2-0.6-0.2c-0.4,0-0.6,0.2-0.8,0.5v3.4h-1.3v-4.8H253.6z"/>
		<path class="st3" d="M261.2,723c-0.1-0.1-0.1-0.3-0.1-0.4c-0.3,0.3-0.7,0.5-1.2,0.5c-0.5,0-0.9-0.1-1.2-0.4
			c-0.3-0.3-0.5-0.6-0.5-1c0-0.5,0.2-0.9,0.6-1.2c0.4-0.3,0.9-0.4,1.6-0.4h0.6v-0.3c0-0.2-0.1-0.4-0.2-0.5c-0.1-0.1-0.3-0.2-0.5-0.2
			c-0.2,0-0.4,0.1-0.5,0.2c-0.1,0.1-0.2,0.2-0.2,0.4h-1.3c0-0.3,0.1-0.5,0.3-0.8c0.2-0.2,0.4-0.4,0.7-0.6c0.3-0.1,0.7-0.2,1-0.2
			c0.6,0,1.1,0.1,1.4,0.4c0.3,0.3,0.5,0.7,0.5,1.2v2.1c0,0.5,0.1,0.8,0.2,1v0.1H261.2z M260.1,722.1c0.2,0,0.4,0,0.5-0.1
			c0.2-0.1,0.3-0.2,0.4-0.3v-0.8h-0.5c-0.6,0-1,0.2-1,0.7l0,0.1c0,0.2,0.1,0.3,0.2,0.4S259.9,722.1,260.1,722.1z"/>
		<path class="st3" d="M265.3,718.2l0,0.5c0.3-0.4,0.8-0.6,1.4-0.6c0.5,0,0.9,0.1,1.1,0.4s0.4,0.7,0.4,1.3v3.1H267v-3
			c0-0.3-0.1-0.5-0.2-0.6c-0.1-0.1-0.3-0.2-0.6-0.2c-0.4,0-0.6,0.2-0.8,0.5v3.4h-1.3v-4.8H265.3z"/>
		<path class="st3" d="M272.8,723c-0.1-0.1-0.1-0.3-0.1-0.4c-0.3,0.3-0.7,0.5-1.2,0.5c-0.5,0-0.9-0.1-1.2-0.4
			c-0.3-0.3-0.5-0.6-0.5-1c0-0.5,0.2-0.9,0.6-1.2c0.4-0.3,0.9-0.4,1.6-0.4h0.6v-0.3c0-0.2-0.1-0.4-0.2-0.5c-0.1-0.1-0.3-0.2-0.5-0.2
			c-0.2,0-0.4,0.1-0.5,0.2c-0.1,0.1-0.2,0.2-0.2,0.4H270c0-0.3,0.1-0.5,0.3-0.8c0.2-0.2,0.4-0.4,0.7-0.6c0.3-0.1,0.7-0.2,1-0.2
			c0.6,0,1.1,0.1,1.4,0.4c0.3,0.3,0.5,0.7,0.5,1.2v2.1c0,0.5,0.1,0.8,0.2,1v0.1H272.8z M271.8,722.1c0.2,0,0.4,0,0.5-0.1
			c0.2-0.1,0.3-0.2,0.4-0.3v-0.8h-0.5c-0.6,0-1,0.2-1,0.7l0,0.1c0,0.2,0.1,0.3,0.2,0.4S271.6,722.1,271.8,722.1z"/>
		<path class="st3" d="M277.3,717.1v1.2h0.8v0.9h-0.8v2.4c0,0.2,0,0.3,0.1,0.4s0.2,0.1,0.4,0.1c0.1,0,0.3,0,0.4,0v1
			c-0.2,0.1-0.5,0.1-0.8,0.1c-0.9,0-1.3-0.4-1.4-1.3v-2.6h-0.7v-0.9h0.7v-1.2H277.3z"/>
		<path class="st3" d="M283.9,721.3l0.6-3h1.2l-1.2,4.8h-1.1l-0.9-3l-0.9,3h-1.1l-1.2-4.8h1.2l0.6,3l0.9-3h0.9L283.9,721.3z"/>
	</g>
	<path id="search" class="st4" d="M216.3,723.1l-1.8-1.8c0.5-0.5,0.7-1.2,0.7-1.9c0-1.7-1.4-3-3.1-3c-1.7,0-3.1,1.3-3.1,3
		c0,1.7,1.4,3,3.1,3c0.6,0,1.3-0.2,1.8-0.5l1.8,1.9c0.2,0.2,0.4,0.2,0.6,0C216.4,723.5,216.4,723.2,216.3,723.1
		C216.3,723.1,216.3,723.1,216.3,723.1z M212.1,717.1c1.2,0,2.3,1,2.3,2.2c0,1.2-1.1,2.2-2.3,2.2c-1.2,0-2.3-1-2.3-2.2
		C209.8,718,210.8,717.1,212.1,717.1z"/>
</g>
</svg>
