<?xml version="1.0" encoding="utf-8"?>
<!-- Generator: Adobe Illustrator 25.0.1, SVG Export Plug-In . SVG Version: 6.00 Build 0)  -->
<svg version="1.1" id="App_store" xmlns="http://www.w3.org/2000/svg" xmlns:xlink="http://www.w3.org/1999/xlink" x="0px" y="0px"
	 viewBox="0 0 144.3 61.7" style="enable-background:new 0 0 144.3 61.7;" xml:space="preserve">
<style type="text/css">
	.st0{fill:url(#Path_2963_1_);}
	.st1{fill:#FFFFFF;}
	.st2{fill:url(#Path_11612_1_);}
	.st3{fill:url(#Path_11613_1_);}
	.st4{fill:url(#Path_11614_1_);}
	.st5{fill:url(#Path_11615_1_);}
	.st6{fill:url(#Path_11616_1_);}
	.st7{fill:url(#Path_11617_1_);}
	.st8{fill:url(#Path_11618_1_);}
	.st9{fill:url(#Path_11619_1_);}
	.st10{fill:url(#Path_11620_1_);}
	.st11{fill:url(#Path_11621_1_);}
	.st12{fill:url(#search_1_);}
</style>
<g id="Group_16160">
	
		<linearGradient id="Path_2963_1_" gradientUnits="userSpaceOnUse" x1="-435.9441" y1="410.2528" x2="-434.9771" y2="409.3388" gradientTransform="matrix(144.275 0 0 -61.6749 62897.7305 25304.7695)">
		<stop  offset="0" style="stop-color:#FF5733"/>
		<stop  offset="1" style="stop-color:#FB3C9C"/>
	</linearGradient>
	<path id="Path_2963" class="st0" d="M8.8,0h126.7c4.9,0,8.8,4,8.8,8.8v44.1c0,4.9-4,8.8-8.8,8.8H8.8c-4.9,0-8.8-4-8.8-8.8V8.8
		C0,4,4,0,8.8,0z"/>
	<path id="Path_2964" class="st1" d="M14.3,39.6h116.7c2.4,0,4.4,2,4.4,4.4v7.7c0,2.4-2,4.4-4.4,4.4H14.3c-2.4,0-4.4-2-4.4-4.4v-7.7
		C9.9,41.6,11.9,39.7,14.3,39.6z"/>
	<g id="Group_16174" transform="translate(33.591 44.384)">
		
			<linearGradient id="Path_11612_1_" gradientUnits="userSpaceOnUse" x1="-396.0718" y1="322.7248" x2="-395.0718" y2="322.7248" gradientTransform="matrix(5.7371 0 0 -7.274 2272.3022 2351.3701)">
			<stop  offset="0" style="stop-color:#FF5733"/>
			<stop  offset="1" style="stop-color:#FB3C9C"/>
		</linearGradient>
		<path id="Path_11612" class="st2" d="M5.7,5.1c0,0.7-0.3,1.4-0.9,1.8c-0.6,0.4-1.3,0.7-2,0.7c-0.8,0-1.6-0.3-2.1-0.9
			C0.2,5.9-0.1,5,0,4.1V3.6C0,3,0.1,2.4,0.3,1.9c0.2-0.5,0.6-0.9,1-1.2c0.5-0.3,1-0.5,1.5-0.4c0.7,0,1.4,0.2,2,0.7
			C5.4,1.4,5.7,2,5.7,2.8H4.3c0-0.7-0.6-1.3-1.4-1.3C2.5,1.4,2.1,1.6,1.9,2C1.6,2.5,1.5,3.1,1.5,3.6v0.6c0,0.6,0.1,1.1,0.3,1.7
			C2.1,6.2,2.5,6.4,3,6.4c0.6,0.1,1.2-0.4,1.3-1c0-0.1,0-0.2,0-0.3L5.7,5.1z"/>
		
			<linearGradient id="Path_11613_1_" gradientUnits="userSpaceOnUse" x1="-198.2157" y1="323.5999" x2="-197.2157" y2="323.5999" gradientTransform="matrix(1.6 0 0 -7.408 324.6339 2400.9097)">
			<stop  offset="0" style="stop-color:#FF5733"/>
			<stop  offset="1" style="stop-color:#FB3C9C"/>
		</linearGradient>
		<path id="Path_11613" class="st3" d="M7.5,0.8c0-0.2,0.1-0.3,0.2-0.6c0.3-0.3,0.8-0.3,1.1,0c0.3,0.3,0.3,0.8,0,1.1
			c-0.3,0.3-0.8,0.3-1.1,0C7.6,1.2,7.5,1,7.5,0.8z M9,7.4H7.6V2.1H9V7.4z"/>
		
			<linearGradient id="Path_11614_1_" gradientUnits="userSpaceOnUse" x1="-335.0601" y1="318.7705" x2="-334.0601" y2="318.7705" gradientTransform="matrix(3.192 0 0 -6.7245 1080.1978 2147.8308)">
			<stop  offset="0" style="stop-color:#FF5733"/>
			<stop  offset="1" style="stop-color:#FB3C9C"/>
		</linearGradient>
		<path id="Path_11614" class="st4" d="M12.8,0.9v1.3h1v1h-0.9v2.6c0,0.2,0,0.3,0.1,0.4s0.2,0.1,0.4,0.1h0.4v1.1
			c-0.3,0.1-0.6,0.1-0.9,0.1c-1,0-1.4-0.4-1.5-1.4V3.3h-0.8v-1h0.8V1h1.3V0.9L12.8,0.9z"/>
		
			<linearGradient id="Path_11615_1_" gradientUnits="userSpaceOnUse" x1="-385.9348" y1="324.1586" x2="-384.9348" y2="324.1586" gradientTransform="matrix(5.066 0 0 -7.4962 1970.0112 2435.6731)">
			<stop  offset="0" style="stop-color:#FF5733"/>
			<stop  offset="1" style="stop-color:#FB3C9C"/>
		</linearGradient>
		<path id="Path_11615" class="st5" d="M17.4,5.4l1-3.3h1.5l-2.1,6.1l-0.1,0.3c-0.3,0.6-0.9,1-1.5,1c-0.2,0-0.5,0-0.7-0.1V8.3h0.2
			c0.2,0,0.4,0,0.6-0.1c0.1-0.1,0.2-0.3,0.3-0.4l0.1-0.4L14.9,2h1.5L17.4,5.4z"/>
		
			<linearGradient id="Path_11616_1_" gradientUnits="userSpaceOnUse" x1="-389.6051" y1="321.2882" x2="-388.6051" y2="321.2882" gradientTransform="matrix(5.2901 0 0 -7.0643 2082.6182 2273.5342)">
			<stop  offset="0" style="stop-color:#FF5733"/>
			<stop  offset="1" style="stop-color:#FB3C9C"/>
		</linearGradient>
		<path id="Path_11616" class="st6" d="M21.6,7.4v-7H24c0.7-0.1,1.4,0.1,2,0.4c0.5,0.3,0.7,0.9,0.7,1.4c0,0.3-0.1,0.6-0.2,0.9
			c-0.2,0.2-0.5,0.4-0.8,0.6c0.3,0.1,0.7,0.3,0.9,0.6c0.2,0.3,0.3,0.6,0.3,1c0,0.6-0.2,1.2-0.7,1.5c-0.5,0.4-1.2,0.6-1.9,0.6
			L21.6,7.4L21.6,7.4z M23,3.3h1.1c0.8,0,1.1-0.3,1.1-0.9c0-0.3-0.1-0.5-0.3-0.7c-0.3-0.2-0.6-0.2-0.9-0.2h-1L23,3.3L23,3.3z
			 M23,4.3v1.9h1.2c0.3,0,0.5-0.1,0.8-0.2c0.2-0.2,0.3-0.4,0.3-0.7c0.1-0.5-0.3-0.9-0.7-1c-0.1,0-0.2,0-0.2,0H23z"/>
		
			<linearGradient id="Path_11617_1_" gradientUnits="userSpaceOnUse" x1="-377.7658" y1="307.3939" x2="-376.7658" y2="307.3939" gradientTransform="matrix(4.6296 0 0 -5.524 1777.4126 1702.7765)">
			<stop  offset="0" style="stop-color:#FF5733"/>
			<stop  offset="1" style="stop-color:#FB3C9C"/>
		</linearGradient>
		<path id="Path_11617" class="st7" d="M31.8,7.4c-0.1-0.1-0.1-0.3-0.1-0.4c-0.3,0.4-0.8,0.6-1.3,0.6c-0.5,0-1-0.1-1.3-0.4
			c-0.3-0.3-0.5-0.7-0.6-1.1c0-0.5,0.2-1,0.7-1.3c0.5-0.3,1.1-0.5,1.8-0.4h0.7V3.9c0-0.4-0.4-0.8-0.8-0.8c-0.2,0-0.4,0.1-0.5,0.2
			c-0.1,0.1-0.2,0.3-0.2,0.4h-1.4c0-0.3,0.1-0.6,0.3-0.9c0.2-0.2,0.5-0.5,0.8-0.7C30.1,2.1,30.5,2,30.8,2c0.6-0.1,1.1,0.1,1.5,0.4
			c0.4,0.3,0.6,0.8,0.6,1.3v2.3c0,0.4,0.1,0.8,0.2,1.1v0.1h-1.3V7.4z M30.6,6.4c0.2,0,0.4,0,0.6-0.1c0.2-0.1,0.3-0.2,0.4-0.3V5.1
			h-0.6c-0.7,0-1.1,0.2-1.1,0.8V6c0,0.2,0.1,0.3,0.2,0.4C30.3,6.5,30.4,6.4,30.6,6.4L30.6,6.4z"/>
		
			<linearGradient id="Path_11618_1_" gradientUnits="userSpaceOnUse" x1="-377.6962" y1="306.0921" x2="-376.6962" y2="306.0921" gradientTransform="matrix(4.6262 0 0 -5.4134 1782.2007 1661.6714)">
			<stop  offset="0" style="stop-color:#FF5733"/>
			<stop  offset="1" style="stop-color:#FB3C9C"/>
		</linearGradient>
		<path id="Path_11618" class="st8" d="M36.3,2.1v0.6c0.4-0.5,1-0.7,1.5-0.7c0.5-0.1,0.9,0.1,1.2,0.4c0.3,0.4,0.4,0.9,0.4,1.4v3.4
			h-1.4V4c0.1-0.4-0.2-0.8-0.7-0.9c-0.1,0-0.1,0-0.2,0c-0.4,0-0.7,0.2-0.9,0.6v3.7h-1.4V2.1H36.3z"/>
		
			<linearGradient id="Path_11619_1_" gradientUnits="userSpaceOnUse" x1="-377.7656" y1="307.3939" x2="-376.7656" y2="307.3939" gradientTransform="matrix(4.6296 0 0 -5.524 1790.184 1702.7765)">
			<stop  offset="0" style="stop-color:#FF5733"/>
			<stop  offset="1" style="stop-color:#FB3C9C"/>
		</linearGradient>
		<path id="Path_11619" class="st9" d="M44.6,7.4c-0.1-0.1-0.1-0.3-0.1-0.4c-0.3,0.4-0.8,0.6-1.3,0.6c-0.5,0-1-0.1-1.3-0.4
			c-0.3-0.3-0.5-0.7-0.6-1.1c0-0.5,0.2-1,0.7-1.3c0.5-0.3,1.1-0.5,1.8-0.4h0.7V3.9c0-0.4-0.4-0.8-0.8-0.8c-0.2,0-0.4,0.1-0.5,0.2
			c-0.1,0.1-0.2,0.3-0.2,0.4h-1.4c0-0.3,0.1-0.6,0.3-0.9c0.2-0.2,0.5-0.5,0.8-0.7C42.9,2.1,43.2,2,43.6,2c0.6-0.1,1.1,0.1,1.5,0.4
			c0.4,0.3,0.6,0.8,0.6,1.3v2.3c0,0.4,0.1,0.8,0.2,1.1v0.1h-1.3V7.4z M43.5,6.4c0.2,0,0.4,0,0.6-0.1c0.2-0.1,0.3-0.2,0.4-0.3V5.1
			h-0.6c-0.7,0-1.1,0.2-1.1,0.8V6c0,0.2,0.1,0.3,0.2,0.4C43.2,6.5,43.3,6.4,43.5,6.4L43.5,6.4z"/>
		
			<linearGradient id="Path_11620_1_" gradientUnits="userSpaceOnUse" x1="-375.3848" y1="306.0921" x2="-374.3848" y2="306.0921" gradientTransform="matrix(4.5162 0 0 -5.4134 1743.2113 1661.6714)">
			<stop  offset="0" style="stop-color:#FF5733"/>
			<stop  offset="1" style="stop-color:#FB3C9C"/>
		</linearGradient>
		<path id="Path_11620" class="st10" d="M49.2,2.1v0.6c0.4-0.5,1-0.7,1.5-0.7c0.5-0.1,0.9,0.1,1.2,0.4c0.3,0.4,0.4,0.9,0.4,1.4v3.4
			H51V4c0.1-0.4-0.2-0.8-0.7-0.9c-0.1,0-0.1,0-0.2,0c-0.4,0-0.7,0.2-0.9,0.6v3.7h-1.3V2.1H49.2z"/>
		
			<linearGradient id="Path_11621_1_" gradientUnits="userSpaceOnUse" x1="-377.7659" y1="307.3939" x2="-376.7659" y2="307.3939" gradientTransform="matrix(4.6296 0 0 -5.524 1803.0771 1702.7765)">
			<stop  offset="0" style="stop-color:#FF5733"/>
			<stop  offset="1" style="stop-color:#FB3C9C"/>
		</linearGradient>
		<path id="Path_11621" class="st11" d="M57.5,7.4c-0.1-0.1-0.1-0.3-0.1-0.4c-0.3,0.4-0.8,0.6-1.3,0.6c-0.5,0-1-0.1-1.3-0.4
			c-0.3-0.3-0.5-0.7-0.6-1.1c0-0.5,0.2-1,0.7-1.3c0.5-0.3,1.1-0.5,1.8-0.4h0.7V3.9c0-0.4-0.4-0.8-0.8-0.8c-0.2,0-0.4,0.1-0.5,0.2
			c-0.1,0.1-0.2,0.3-0.2,0.4h-1.4c0-0.3,0.1-0.6,0.3-0.9c0.2-0.2,0.5-0.5,0.8-0.7C55.8,2.1,56.1,2,56.5,2C57,1.9,57.6,2.1,58,2.4
			c0.4,0.3,0.6,0.8,0.6,1.3v2.3c0,0.4,0.1,0.8,0.2,1.1v0.1h-1.3V7.4z M56.4,6.4c0.2,0,0.4,0,0.6-0.1c0.2-0.1,0.3-0.2,0.4-0.3V5.1
			h-0.6c-0.7,0-1.1,0.2-1.1,0.8V6c0,0.2,0.1,0.3,0.2,0.4C56.1,6.5,56.2,6.4,56.4,6.4L56.4,6.4z"/>
	</g>
	
		<linearGradient id="search_1_" gradientUnits="userSpaceOnUse" x1="-384.9879" y1="374.2791" x2="-383.9879" y2="374.2791" gradientTransform="matrix(8.1278 0 0 -8.5394 3147.8318 3244.646)">
		<stop  offset="0" style="stop-color:#FF5733"/>
		<stop  offset="1" style="stop-color:#FB3C9C"/>
	</linearGradient>
	<path id="search" class="st12" d="M26.8,51.9l-2-2c0.5-0.6,0.8-1.3,0.8-2.1c0.1-1.9-1.4-3.5-3.3-3.5c-1.9-0.1-3.5,1.4-3.5,3.3
		c-0.1,1.9,1.4,3.5,3.3,3.5c0,0,0.1,0,0.1,0c0.7,0,1.4-0.2,2-0.6l2,2.1c0.1,0.2,0.4,0.2,0.6,0.1c0,0,0.1-0.1,0.1-0.1
		C26.9,52.4,26.9,52.1,26.8,51.9L26.8,51.9z M22.1,45.3c1.3,0.1,2.4,1.2,2.3,2.5s-1.2,2.4-2.5,2.3c-1.3-0.1-2.3-1.1-2.3-2.4
		c0-1.3,1-2.4,2.4-2.4C22,45.3,22.1,45.3,22.1,45.3z"/>
</g>
<path id="Path_11608" class="st1" d="M26.1,21.9c0-1.8,1-3.5,2.5-4.5c-1-1.4-2.6-2.3-4.4-2.3c-1.9-0.2-3.6,1.1-4.5,1.1
	c-1,0-2.4-1.1-4-1.1c-2,0.1-3.8,1.2-4.8,3c-2.1,3.6-0.6,9,1.4,12c1,1.4,2.2,3.1,3.7,3s2.1-1,3.9-1s2.3,1,4,0.9
	c1.7,0,2.6-1.4,3.6-2.9c0.8-1,1.3-2.2,1.7-3.4C27.3,25.8,26.1,24,26.1,21.9z M23.1,13c0.9-1.1,1.3-2.5,1.2-3.9
	c-1.4,0.1-2.6,0.8-3.5,1.8c-0.9,1-1.3,2.3-1.2,3.6C21,14.7,22.3,14.1,23.1,13L23.1,13z"/>
<g id="Group_16175" transform="translate(38.987 10.573)">
	<path id="Path_11622" class="st1" d="M3.7,5.1H1.9L1.5,6.5H0L2,0h1.9l2,6.5H4.2L3.7,5.1z M3.4,3.9L3.3,3.3C3.1,2.6,3,1.9,2.7,1.2
		l0,0C2.6,1.9,2.4,2.6,2.3,3.3L2.2,3.9L3.4,3.9z"/>
	<path id="Path_11623" class="st1" d="M6.4,0.1h2.3c1.4,0,2.6,0.6,2.6,2.1s-1.2,2.2-2.5,2.2H8v2.1H6.5V0.1H6.4z M8.7,3.2
		c0.8,0,1.1-0.3,1.1-1S9.4,1.3,8.6,1.3H7.9v1.9H8.7z"/>
	<path id="Path_11624" class="st1" d="M12.3,0.1h2.3c1.4,0,2.6,0.6,2.6,2.1s-1.2,2.2-2.5,2.2H14v2.1h-1.5V0.1H12.3z M14.6,3.2
		c0.8,0,1.1-0.3,1.1-1s-0.4-0.9-1.2-0.9h-0.7v1.9H14.6z"/>
	<path id="Path_11625" class="st1" d="M19.9,5.7l0.9-1.1c0.4,0.4,1,0.6,1.5,0.7c0.6,0,0.9-0.2,0.9-0.6S22.9,4.3,22.4,4l-0.9-0.2
		c-0.8-0.3-1.3-1-1.3-1.8c0.1-1.2,1.1-2.1,2.3-2c0,0,0,0,0,0c0.8,0,1.5,0.3,2.1,0.9l-0.8,1c-0.4-0.3-0.8-0.5-1.3-0.4
		c-0.4,0-0.8,0.2-0.8,0.6s0.4,0.4,1,0.8l0.8,0.3c0.8,0.2,1.3,1,1.3,1.8c0,1.1-0.9,2-2.4,2C21.4,6.7,20.6,6.4,19.9,5.7z"/>
	<path id="Path_11626" class="st1" d="M25.7,4.7V2.9H25V1.8l0.8-0.1L26,0.3h1.3v1.3h1.2v1.2h-1.2v1.9c0,0.6,0.2,0.8,0.7,0.8
		c0.2,0,0.3,0,0.4-0.1l0.2,1.1c-0.3,0.1-0.7,0.2-1.1,0.2C26.2,6.7,25.7,5.9,25.7,4.7z"/>
	<path id="Path_11627" class="st1" d="M28.9,4.1c-0.1-1.3,0.9-2.5,2.2-2.6c1.3-0.1,2.5,0.9,2.6,2.2c0,0.1,0,0.3,0,0.4
		c0.1,1.3-0.9,2.5-2.2,2.6c-1.3,0.1-2.5-0.9-2.6-2.2C28.8,4.4,28.8,4.2,28.9,4.1z M32.2,4.1c0-0.8-0.2-1.3-0.9-1.3
		c-0.6,0-0.9,0.6-0.9,1.3s0.2,1.3,0.9,1.3C31.8,5.4,32.2,5,32.2,4.1z"/>
	<path id="Path_11628" class="st1" d="M34.7,1.7h1.2L36,2.5l0,0c0.2-0.6,0.8-1,1.4-1c0.3,0,0.4,0,0.6,0.1L37.8,3
		c-0.2,0-0.3-0.1-0.6-0.1c-0.3,0-0.8,0.2-1.1,0.9v2.9h-1.5v-5H34.7z"/>
	<path id="Path_11629" class="st1" d="M38.3,4.1c-0.1-1.3,0.9-2.5,2.2-2.6c0,0,0.1,0,0.1,0c1.4,0,2.1,1,2.1,2.4c0,0.2,0,0.6-0.1,0.7
		h-2.9c0.1,0.6,0.6,1,1.2,1c0.4,0,0.7-0.1,1-0.3l0.6,0.9c-0.5,0.3-1.1,0.5-1.8,0.6c-1.3,0.1-2.3-0.9-2.4-2.1
		C38.3,4.3,38.3,4.2,38.3,4.1z M41.5,3.5c0.1-0.4-0.2-0.8-0.7-0.9c0,0-0.1,0-0.1,0c-0.4,0-0.8,0.2-0.9,0.9H41.5z"/>
</g>
<g id="Group_16176" transform="translate(38.877 24.45)">
	<path id="Path_11630" class="st1" d="M4.2,1.9v1.2l0.2-0.2c1,0.5,1.9,1.1,2.9,1.7L6.4,5.6C5.7,5.1,5,4.6,4.3,4.2v3.7H3V1.8H0V0.6
		h7.6v1.2H4.2V1.9z"/>
	<path id="Path_11631" class="st1" d="M15.8,3.4c-0.3,1-0.7,2-1.2,2.9c0.1,0.3,0.2,0.6,0.4,0.6c0.1,0,0.2-0.3,0.2-1.1
		c0.3,0.3,0.6,0.5,0.9,0.7C15.9,7.7,15.5,8,14.8,8c-0.5,0-0.9-0.3-1.1-0.7c-0.3,0.3-0.6,0.5-0.9,0.8c-0.2-0.2-0.3-0.5-0.6-0.7H11
		v0.7H9.9V7.5H8.3V6.6h1.7V6.4H8.5V4.2h1.4V4H8.4V3.1h1.5V2.8H11v0.3h1.5V4H11v0.2h1.3v2.1H11v0.2h1.5v0.2l0.7-0.7
		C13,5,12.8,3.9,12.8,2.8H8.2v-1h1.8V1.4H8.6V0.6h1.3V0h1.2v0.6h1.3v0.9h-1.3v0.3h1.7V0H14v1.8h0.9C14.6,1.4,14.3,1,14,0.6L14.9,0
		c0.4,0.4,0.7,0.8,1,1.2L15,1.8h0.9v1h-2c0,0.7,0.1,1.3,0.1,1.8c0.2-0.4,0.3-0.9,0.6-1.4L15.8,3.4z M9.5,5h0.7V4.7H9.5V5z M9.5,5.7
		h0.7V5.5H9.5V5.7z M11.6,4.7H11V5h0.6V4.7z M11.6,5.5H11v0.2h0.6V5.5z"/>
	<path id="Path_11632" class="st1" d="M16.7,4.2c-0.1-1.7,1.1-3.2,2.8-3.3c0.1,0,0.1,0,0.2,0c0.7,0,1.4,0.3,1.9,0.8l-0.8,1
		c-0.3-0.3-0.7-0.5-1.1-0.4c-0.8,0-1.4,0.8-1.4,2s0.6,2,1.4,2c0.5,0,0.9-0.2,1.2-0.6l0.8,1c-0.5,0.6-1.3,0.9-2.1,0.9
		C17.9,7.4,16.6,5.9,16.7,4.2z"/>
	<path id="Path_11633" class="st1" d="M22.5,1c-0.1-0.5,0.3-0.9,0.8-1s0.9,0.3,1,0.8s-0.3,0.9-0.8,1c0,0-0.1,0-0.1,0
		C22.9,1.8,22.5,1.5,22.5,1C22.5,1,22.5,1,22.5,1z M22.6,2.4h1.5v4.8h-1.5V2.4z"/>
	<path id="Path_11634" class="st1" d="M25.4,5.5V3.6h-0.7V2.5l0.8-0.1l0.2-1.3H27v1.3h1.1v1.2H27v1.9c0,0.6,0.2,0.8,0.7,0.8
		c0.2,0,0.3,0,0.4-0.1l0.2,1.1c-0.3,0.2-0.7,0.2-1.1,0.2c-1,0-1.8-0.8-1.8-1.8C25.4,5.6,25.4,5.6,25.4,5.5z"/>
	<path id="Path_11635" class="st1" d="M29,9l0.2-1.1c0.1,0,0.2,0.1,0.3,0.1c0.4,0,0.7-0.2,0.8-0.6l0.1-0.2l-1.9-4.6h1.5l0.7,2
		l0.3,1.3l0,0l0.3-1.3l0.6-2h1.4l-1.7,4.8c-0.4,1.2-1,1.9-2.1,1.9C29.3,9.1,29.2,9,29,9z"/>
	<path id="Path_11636" class="st1" d="M34.3,1h2.2c1.3,0,2.3,0.3,2.3,1.5c0,0.6-0.3,1.1-0.8,1.3l0,0c0.7,0.2,1.1,0.8,1.1,1.4
		c0,1.3-1.1,1.9-2.4,1.9h-2.4V1z M36.5,3.5c0.7,0,0.9-0.3,0.9-0.7c0-0.4-0.3-0.7-0.9-0.7h-0.7v1.3L36.5,3.5z M36.6,6.1
		c0.8,0,1.1-0.2,1.1-0.8s-0.3-0.8-1.1-0.8h-0.8v1.5H36.6z"/>
	<path id="Path_11637" class="st1" d="M39.8,5.9c0-1,0.8-1.5,2.6-1.8c0-0.4-0.2-0.7-0.8-0.7c-0.4,0-0.9,0.2-1.2,0.4l-0.6-1
		c0.6-0.4,1.4-0.6,2.1-0.7c1.2,0,2,0.7,2,2.2v2.8h-1.2l-0.1-0.4l0,0c-0.4,0.3-0.9,0.5-1.4,0.6C40.4,7.4,39.8,6.8,39.8,5.9
		C39.8,6,39.8,6,39.8,5.9z M42.5,5.8V5.1c-1,0.1-1.2,0.4-1.2,0.8s0.2,0.4,0.6,0.4C42.1,6.2,42.3,6,42.5,5.8z"/>
	<path id="Path_11638" class="st1" d="M45.2,2.4h1.2L46.5,3l0,0c0.4-0.5,0.9-0.7,1.5-0.8c1.1,0,1.5,0.8,1.5,2v3H48V4.4
		c0-0.7-0.2-0.9-0.6-0.9c-0.3,0-0.7,0.2-0.9,0.4v3.2H45V2.4H45.2z"/>
	<path id="Path_11639" class="st1" d="M50.4,5.9c0-1,0.8-1.5,2.6-1.8c0-0.4-0.2-0.7-0.8-0.7c-0.4,0-0.9,0.2-1.2,0.4l-0.6-1
		c0.6-0.4,1.4-0.6,2.1-0.7c1.2,0,2,0.7,2,2.2v2.8h-1.2l-0.1-0.4l0,0c-0.4,0.3-0.9,0.5-1.4,0.6C51.1,7.4,50.5,6.8,50.4,5.9
		C50.4,6,50.4,6,50.4,5.9z M53.2,5.8V5.1c-1,0.1-1.2,0.4-1.2,0.8s0.2,0.4,0.6,0.4C52.8,6.2,53,6,53.2,5.8z"/>
	<path id="Path_11640" class="st1" d="M55.8,2.4H57L57.2,3l0,0c0.4-0.5,0.9-0.7,1.5-0.8c1.1,0,1.5,0.8,1.5,2v3h-1.5V4.4
		c0-0.7-0.2-0.9-0.6-0.9c-0.3,0-0.7,0.2-0.9,0.4v3.2h-1.4V2.4z"/>
	<path id="Path_11641" class="st1" d="M61.1,5.9c0-1,0.8-1.5,2.6-1.8c0-0.4-0.2-0.7-0.8-0.7c-0.4,0-0.9,0.2-1.2,0.4l-0.4-1
		c0.6-0.4,1.4-0.6,2.1-0.7c1.2,0,2,0.7,2,2.2v2.8h-1.2l-0.1-0.4l0,0c-0.4,0.3-0.9,0.5-1.4,0.6c-0.8,0.1-1.5-0.5-1.5-1.3
		C61.1,6,61.1,6,61.1,5.9z M63.9,5.8V5.1c-1,0.1-1.2,0.4-1.2,0.8s0.2,0.4,0.6,0.4C63.5,6.2,63.7,6,63.9,5.8z"/>
	<path id="Path_11642" class="st1" d="M71.5,5.8h-1.9l-0.3,1.4h-1.5l2-6.3h1.8l2,6.3h-1.5L71.5,5.8z M71.3,4.6l-0.1-0.6
		c-0.2-0.7-0.3-1.4-0.6-2l0,0c-0.1,0.7-0.3,1.4-0.4,2L70,4.6H71.3z"/>
	<path id="Path_11643" class="st1" d="M74.1,1h2.2c1.4,0,2.5,0.4,2.5,2.1c0,1.5-1.2,2.2-2.5,2.2h-0.7v2.1h-1.5V1z M76.3,4
		c0.8,0,1.1-0.3,1.1-1S77,2.1,76.3,2.1h-0.7v1.8h0.7V4z"/>
	<path id="Path_11644" class="st1" d="M80,1h2.2c1.4,0,2.5,0.4,2.5,2.1c0,1.5-1.2,2.2-2.5,2.2h-0.8v2.1h-1.5V1H80z M82.2,4
		c0.8,0,1.1-0.3,1.1-1s-0.4-0.9-1.1-0.9h-0.7v1.8h0.7V4z"/>
</g>
</svg>
