<svg id="download-on-the-app-store-apple-logo-svgrepo-com" xmlns="http://www.w3.org/2000/svg" xmlns:xlink="http://www.w3.org/1999/xlink" width="144.329" height="42.765" viewBox="0 0 144.329 42.765">
  <defs>
    <linearGradient id="linear-gradient" x1="-0.036" x2="1" y2="1" gradientUnits="objectBoundingBox">
      <stop offset="0" stop-color="#ff5733"/>
      <stop offset="1" stop-color="#fb3c9c"/>
    </linearGradient>
  </defs>
  <path id="Path_11605" data-name="Path 11605" d="M145.983,40.325a4.1,4.1,0,0,1-4.1,4.1H7.668a4.1,4.1,0,0,1-4.107-4.1V7.662a4.107,4.107,0,0,1,4.107-4.1H141.88a4.1,4.1,0,0,1,4.1,4.1V40.325Z" transform="translate(-2.61 -2.609)" fill="#fff"/>
  <path id="Path_11606" data-name="Path 11606" d="M139.272,42.765H5.059A5.059,5.059,0,0,1,0,37.717V5.054A5.062,5.062,0,0,1,5.059,0H139.271a5.064,5.064,0,0,1,5.059,5.054V37.716a5.058,5.058,0,0,1-5.057,5.049Z" transform="translate(0 0)" fill="none"/>
  <path id="Path_11607" data-name="Path 11607" d="M145.983,40.325a4.1,4.1,0,0,1-4.1,4.1H7.668a4.1,4.1,0,0,1-4.107-4.1V7.662a4.107,4.107,0,0,1,4.107-4.1H141.88a4.1,4.1,0,0,1,4.1,4.1V40.325Z" transform="translate(-2.61 -2.609)" fill="url(#linear-gradient)"/>
  <path id="Path_11608" data-name="Path 11608" d="M69.739,39.383a6.2,6.2,0,0,1,2.953-5.2,6.352,6.352,0,0,0-5-2.7c-2.1-.221-4.145,1.259-5.217,1.259-1.093,0-2.744-1.237-4.523-1.2a6.659,6.659,0,0,0-5.605,3.418c-2.424,4.2-.616,10.36,1.706,13.752,1.162,1.662,2.519,3.515,4.3,3.45,1.738-.071,2.388-1.107,4.485-1.107,2.078,0,2.688,1.107,4.5,1.065,1.866-.029,3.04-1.668,4.161-3.344A13.705,13.705,0,0,0,73.4,44.9,6,6,0,0,1,69.739,39.383ZM66.316,29.248a6.1,6.1,0,0,0,1.4-4.373,6.218,6.218,0,0,0-4.02,2.079,5.806,5.806,0,0,0-1.433,4.211A5.136,5.136,0,0,0,66.316,29.248Z" transform="translate(-37.512 -18.226)" fill="#fff"/>
  <g id="Group_16172" data-name="Group 16172" transform="translate(45.387 19.248)">
    <path id="Path_11610" data-name="Path 11610" d="M181.83,86.458H179.4l-1.331-4.18h-4.625l-1.268,4.18h-2.365L174.4,72.226h2.83Zm-4.161-5.934-1.2-3.716q-.191-.569-.718-2.681H175.7q-.212.908-.676,2.681l-1.183,3.716Zm15.926.677a5.81,5.81,0,0,1-1.423,4.138,4.172,4.172,0,0,1-3.164,1.352,3.168,3.168,0,0,1-2.931-1.455v5.384H183.8V79.569q0-1.644-.085-3.373h2.006l.127,1.627h.043a4.058,4.058,0,0,1,6.494-.4A5.674,5.674,0,0,1,193.594,81.2Zm-2.323.083a4.229,4.229,0,0,0-.676-2.471,2.337,2.337,0,0,0-1.985-1.013,2.372,2.372,0,0,0-1.531.559,2.594,2.594,0,0,0-.9,1.468,2.977,2.977,0,0,0-.106.694v1.712a2.745,2.745,0,0,0,.687,1.891,2.28,2.28,0,0,0,1.784.771,2.338,2.338,0,0,0,2.006-.992A4.367,4.367,0,0,0,191.271,81.284ZM205.4,81.2a5.81,5.81,0,0,1-1.423,4.138,4.174,4.174,0,0,1-3.165,1.352,3.168,3.168,0,0,1-2.931-1.455v5.384H195.6V79.569q0-1.644-.084-3.373h2.006l.127,1.627h.043a4.059,4.059,0,0,1,6.5-.4A5.679,5.679,0,0,1,205.4,81.2Zm-2.324.083a4.23,4.23,0,0,0-.677-2.471,2.333,2.333,0,0,0-1.983-1.013,2.382,2.382,0,0,0-1.533.559,2.593,2.593,0,0,0-.9,1.468,3.045,3.045,0,0,0-.107.694v1.712a2.754,2.754,0,0,0,.686,1.891,2.285,2.285,0,0,0,1.786.771,2.335,2.335,0,0,0,2.006-.992A4.367,4.367,0,0,0,203.076,81.284ZM218.6,82.466a3.8,3.8,0,0,1-1.265,2.957,5.61,5.61,0,0,1-3.878,1.246,6.77,6.77,0,0,1-3.686-.887l.527-1.9a6.346,6.346,0,0,0,3.295.888,3.109,3.109,0,0,0,2.006-.581,1.9,1.9,0,0,0,.72-1.551,1.987,1.987,0,0,0-.593-1.458,5.494,5.494,0,0,0-1.964-1.1q-3.739-1.394-3.74-4.077a3.6,3.6,0,0,1,1.32-2.871,5.22,5.22,0,0,1,3.5-1.12,6.91,6.91,0,0,1,3.232.676L217.5,74.55a5.651,5.651,0,0,0-2.735-.654,2.782,2.782,0,0,0-1.887.591,1.692,1.692,0,0,0-.572,1.29,1.743,1.743,0,0,0,.656,1.393,7.387,7.387,0,0,0,2.069,1.1,7.014,7.014,0,0,1,2.7,1.73,3.606,3.606,0,0,1,.87,2.468Zm7.56-4.559h-2.514V82.89q0,1.9,1.331,1.9a4.006,4.006,0,0,0,1.013-.106l.063,1.731a5.168,5.168,0,0,1-1.774.252,2.734,2.734,0,0,1-2.113-.825,4.043,4.043,0,0,1-.761-2.767V77.9h-1.5V76.192h1.5V74.313l2.24-.676v2.555h2.514Zm11.319,3.335a5.628,5.628,0,0,1-1.352,3.885,4.82,4.82,0,0,1-3.759,1.562,4.6,4.6,0,0,1-3.6-1.5,5.458,5.458,0,0,1-1.341-3.779,5.583,5.583,0,0,1,1.383-3.905,4.8,4.8,0,0,1,3.729-1.521,4.691,4.691,0,0,1,3.632,1.5A5.387,5.387,0,0,1,237.479,81.243Zm-2.364.052a4.594,4.594,0,0,0-.611-2.421,2.257,2.257,0,0,0-2.05-1.222,2.29,2.29,0,0,0-2.091,1.222,4.67,4.67,0,0,0-.612,2.464,4.581,4.581,0,0,0,.612,2.422,2.339,2.339,0,0,0,4.122-.02,4.613,4.613,0,0,0,.63-2.445ZM244.9,78.2a3.972,3.972,0,0,0-.719-.063,2.153,2.153,0,0,0-1.859.909,3.423,3.423,0,0,0-.569,2.027v5.384h-2.281v-7.03q0-1.616-.066-3.231h1.986l.083,1.963h.063a3.52,3.52,0,0,1,1.14-1.627,2.758,2.758,0,0,1,1.648-.55,3.664,3.664,0,0,1,.57.042Zm10.2,2.64a5.351,5.351,0,0,1-.083,1.034H248.17a2.976,2.976,0,0,0,.993,2.325,3.4,3.4,0,0,0,2.238.717,7.569,7.569,0,0,0,2.768-.484l.357,1.582a8.561,8.561,0,0,1-3.441.634,4.989,4.989,0,0,1-3.75-1.4,5.187,5.187,0,0,1-1.362-3.769,5.877,5.877,0,0,1,1.269-3.863,4.371,4.371,0,0,1,3.589-1.646,3.826,3.826,0,0,1,3.36,1.646,5.537,5.537,0,0,1,.9,3.227Zm-2.175-.591a3.086,3.086,0,0,0-.443-1.753,1.992,1.992,0,0,0-1.816-.952,2.162,2.162,0,0,0-1.815.929,3.405,3.405,0,0,0-.675,1.773Z" transform="translate(-169.812 -72.016)" fill="#fff"/>
  </g>
  <g id="Group_16173" data-name="Group 16173" transform="translate(46.722 7.008)">
    <path id="Path_11611" data-name="Path 11611" d="M176.446,33.639a14.567,14.567,0,0,1-1.64-.083V26.675a12.418,12.418,0,0,1,1.931-.145c2.615,0,3.82,1.286,3.82,3.384C180.557,32.332,179.134,33.639,176.446,33.639Zm.383-6.227a4.577,4.577,0,0,0-.9.073v5.23a5.92,5.92,0,0,0,.757.031,2.478,2.478,0,0,0,2.689-2.8A2.282,2.282,0,0,0,176.829,27.412Zm7.481,6.28a2.4,2.4,0,0,1-2.429-2.594,2.457,2.457,0,0,1,2.513-2.667,2.382,2.382,0,0,1,2.429,2.585A2.471,2.471,0,0,1,184.31,33.691Zm.043-4.442c-.81,0-1.329.757-1.329,1.816,0,1.038.53,1.8,1.318,1.8s1.318-.81,1.318-1.817C185.66,30.017,185.142,29.249,184.353,29.249Zm10.876-.715-1.578,5.043h-1.028l-.654-2.19a16.6,16.6,0,0,1-.405-1.629h-.021a10.919,10.919,0,0,1-.4,1.629l-.7,2.19H189.4l-1.485-5.043h1.152l.571,2.4q.2.857.342,1.619h.021c.082-.425.217-.955.415-1.608l.717-2.407h.914l.686,2.356c.166.571.3,1.131.405,1.661h.03a14.508,14.508,0,0,1,.342-1.661l.613-2.356h1.1Zm5.808,5.043h-1.121v-2.9c0-.892-.342-1.339-1.017-1.339a1.164,1.164,0,0,0-1.121,1.235v3h-1.121v-3.6c0-.446-.011-.924-.042-1.443h.986l.052.779h.031a1.812,1.812,0,0,1,1.6-.881c1.059,0,1.754.81,1.754,2.127v3.02Zm3.091,0h-1.122V26.219h1.122Zm4.087.114a2.4,2.4,0,0,1-2.429-2.594A2.456,2.456,0,0,1,208.3,28.43a2.381,2.381,0,0,1,2.429,2.585A2.47,2.47,0,0,1,208.216,33.691Zm.042-4.442c-.81,0-1.329.757-1.329,1.816,0,1.038.531,1.8,1.317,1.8s1.318-.81,1.318-1.817C209.565,30.017,209.047,29.249,208.258,29.249Zm6.89,4.328L215.066,33h-.03a1.722,1.722,0,0,1-1.475.7,1.467,1.467,0,0,1-1.546-1.484c0-1.245,1.079-1.889,2.948-1.889v-.093c0-.664-.352-1-1.047-1a2.361,2.361,0,0,0-1.318.374l-.228-.737a3.225,3.225,0,0,1,1.732-.436c1.318,0,1.983.7,1.983,2.086v1.858a7.617,7.617,0,0,0,.073,1.2h-1.011Zm-.154-2.512c-1.245,0-1.87.3-1.87,1.017a.715.715,0,0,0,.769.788,1.073,1.073,0,0,0,1.1-1.027Zm6.536,2.512-.052-.81h-.031a1.691,1.691,0,0,1-1.62.924,2.3,2.3,0,0,1-2.117-2.574c0-1.577.934-2.688,2.209-2.688a1.516,1.516,0,0,1,1.423.685h.022V26.219h1.122v6c0,.488.012.944.042,1.359Zm-.166-2.968a1.22,1.22,0,0,0-1.181-1.308c-.831,0-1.339.737-1.339,1.774,0,1.017.527,1.713,1.317,1.713a1.259,1.259,0,0,0,1.2-1.339Zm8.237,3.082a2.4,2.4,0,0,1-2.428-2.594,2.456,2.456,0,0,1,2.512-2.667,2.381,2.381,0,0,1,2.429,2.585A2.47,2.47,0,0,1,229.6,33.691Zm.042-4.442c-.809,0-1.327.757-1.327,1.816,0,1.038.529,1.8,1.317,1.8s1.318-.81,1.318-1.817C230.951,30.017,230.432,29.249,229.642,29.249Zm8.5,4.328H237.02v-2.9c0-.892-.342-1.339-1.017-1.339a1.163,1.163,0,0,0-1.12,1.235v3H233.76v-3.6c0-.446-.011-.924-.042-1.443h.986l.052.779h.031a1.811,1.811,0,0,1,1.6-.882c1.059,0,1.755.81,1.755,2.127Zm7.542-4.2h-1.233v2.449c0,.623.216.935.653.935a2.209,2.209,0,0,0,.5-.052l.031.851a2.484,2.484,0,0,1-.87.125c-.884,0-1.412-.488-1.412-1.765V29.374h-.736v-.841h.736v-.924l1.1-.333v1.255h1.233Zm5.935,4.2H250.5V30.7c0-.9-.341-1.359-1.017-1.359a1.1,1.1,0,0,0-1.122,1.193v3.04h-1.12V26.219h1.12v3.03h.022a1.7,1.7,0,0,1,1.517-.82c1.068,0,1.72.83,1.72,2.148Zm6.08-2.252h-3.364a1.448,1.448,0,0,0,1.59,1.494,3.789,3.789,0,0,0,1.36-.238l.174.779a4.212,4.212,0,0,1-1.692.311,2.342,2.342,0,0,1-2.512-2.542,2.463,2.463,0,0,1,2.385-2.709,2.118,2.118,0,0,1,2.1,2.4,2.159,2.159,0,0,1-.039.508Zm-1.028-.8c0-.779-.393-1.328-1.109-1.328a1.33,1.33,0,0,0-1.226,1.328Z" transform="translate(-174.806 -26.219)" fill="#fff"/>
  </g>
</svg>
