<?xml version="1.0" encoding="utf-8"?>
<!-- Generator: Adobe Illustrator 25.2.1, SVG Export Plug-In . SVG Version: 6.00 Build 0)  -->
<svg version="1.1" id="圖層_1" xmlns="http://www.w3.org/2000/svg" xmlns:xlink="http://www.w3.org/1999/xlink" x="0px" y="0px"
	 viewBox="0 0 720.9 721" style="enable-background:new 0 0 720.9 721;" xml:space="preserve">
<style type="text/css">
	.st0{fill:none;stroke:#EA5638;stroke-width:4;stroke-linecap:round;stroke-linejoin:round;stroke-miterlimit:10;}
	.st1{fill:#EA5638;}
	.st2{fill:#FFFFFF;}
	.st3{fill:#FFFFFF;stroke:#EA5638;stroke-width:4;stroke-linecap:round;stroke-linejoin:round;stroke-miterlimit:10;}
</style>
<path class="st0" d="M-1311.1,324.5"/>
<g>
	<path class="st1" d="M660.4,370.7"/>
	<circle class="st1" cx="360.4" cy="360.4" r="349.8"/>
	<path class="st2" d="M365.3,366.5L365.3,366.5H164.3c-2.1,0-4.2-1.2-5.2-3c-1.1-1.9-1.1-4.2,0-6.1L357.5,13.6c1.1-1.8,3.1-3,5.2-3
		c2.1,0,4.2,1.2,5.2,3l87.9,152.3c1.7,2.9,0.7,6.6-2.2,8.3c-2,1.2-4.4,1.1-6.2-0.1c-14.8-2.3-109.8-14-132.7,66.5
		c-17,59.7,42.2,106.2,52.4,113.7h183.4l-34.5-62.6c-1.7-2.9-0.7-6.7,2.2-8.3c2.9-1.6,6.6-0.7,8.3,2.2l39.7,71.7
		c1.1,1.9,1.1,4.2,0,6.1s-3.1,3-5.2,3L365.3,366.5L365.3,366.5z M174.9,354.3h172.9c-21.9-19.4-60.2-62.4-44.6-117.1
		c22-77.6,104.3-78.8,136-76.3l-76.4-132L174.9,354.3z"/>
	<path class="st2" d="M360.3,354.5L360.3,354.5h200.9c2.1,0,4.2,1.2,5.2,3c1.1,1.9,1.1,4.2,0,6.1L368.1,707.3c-1.1,1.9-3.1,3-5.2,3
		s-4.2-1.2-5.2-3L269.6,555c-1.7-2.9-0.7-6.6,2.2-8.3c2-1.2,4.4-1.1,6.2,0.1c14.8,2.3,109.8,14,132.7-66.5
		c17-59.7-42.2-106.2-52.4-113.7H174.9l34.5,62.6c1.7,2.9,0.7,6.6-2.2,8.3c-2.9,1.7-6.7,0.7-8.3-2.2l-39.7-71.7
		c-1.1-1.9-1.1-4.2,0-6.1s3.1-3,5.2-3L360.3,354.5C360.2,354.5,360.3,354.5,360.3,354.5z M550.6,366.6H377.8
		C399.7,386,438,429,422.4,483.7c-22,77.6-104.3,78.8-136,76.3l76.3,132.1L550.6,366.6z"/>
	<path class="st3" d="M387.6,365.4"/>
	<path class="st3" d="M214,365.4"/>
	<path class="st3" d="M533.9,365.4"/>
	<path class="st3" d="M360.4,365.4"/>
	<path class="st3" d="M533.9,365.4"/>
	<path class="st3" d="M214,365.4"/>
	<path class="st3" d="M214,365.4"/>
	<path class="st3" d="M533.9,365.4"/>
	<path class="st3" d="M360.4,365.4"/>
	<path class="st3" d="M533.9,365.4"/>
	<path class="st3" d="M214,365.4"/>
	<path class="st3" d="M387.6,365.4"/>
	<path class="st3" d="M191.4,419.6"/>
	<path class="st3" d="M511.4,419.6"/>
	<polygon class="st2" points="362.7,20.9 431.5,135.9 446,167.8 406.3,164.7 338.6,188.6 308.3,231.6 304.2,244.3 308.2,282.9 
		325.3,319.9 349.9,348 348.9,357.7 171.7,357.7 	"/>
	<path class="st2" d="M286.4,559.9L362.7,692l187.9-325.4H377.8c21.9,19.4,60.2,62.4,44.6,117.1
		C400.4,561.1,318.1,562.4,286.4,559.9z"/>
	<polygon class="st2" points="362.7,699.9 293.9,585 279.5,553 319.2,556.1 387,532.3 417.3,489.2 421.4,476.6 417.4,438 400.3,401 
		375.5,372.9 376.6,363.1 553.7,363.1 	"/>
</g>
</svg>
