<?xml version="1.0" encoding="utf-8"?>
<!-- Generator: Adobe Illustrator 25.2.1, SVG Export Plug-In . SVG Version: 6.00 Build 0)  -->
<svg version="1.1" id="圖層_1" xmlns="http://www.w3.org/2000/svg" xmlns:xlink="http://www.w3.org/1999/xlink" x="0px" y="0px"
	 viewBox="0 0 282.4 483.1" style="enable-background:new 0 0 282.4 483.1;" xml:space="preserve">
<style type="text/css">
	.st0{fill:#DE5638;}
</style>
<path class="st0" d="M282.3,241.1c-0.1-0.6-0.2-1.1-0.5-1.6L254.4,190c-1.2-2-3.7-2.7-5.8-1.5c-2,1.2-2.7,3.7-1.5,5.8l23.8,43.2
	H144.2c-7-5.2-47.9-37.3-36.2-78.5c15.8-55.5,81.4-47.5,91.6-45.9c1.3,0.8,2.9,0.9,4.3,0c2-1.2,2.7-3.7,1.5-5.7L144.7,2.1
	c-0.8-1.3-2.1-2.1-3.6-2.1s-2.9,0.8-3.6,2.1L0.5,239.4c-0.5,0.8-0.6,1.8-0.5,2.7c0.1,0.6,0.2,1.1,0.5,1.6l27.4,49.5
	c1.2,2,3.7,2.7,5.8,1.5c2-1.2,2.7-3.7,1.5-5.8l-23.8-43.2h126.7c7,5.2,47.9,37.3,36.2,78.5c-15.8,55.5-81.4,47.5-91.6,45.9
	c-1.3-0.8-2.9-0.9-4.3,0c-2,1.2-2.7,3.7-1.5,5.7L137.6,481c0.8,1.3,2.1,2.1,3.6,2.1s2.9-0.8,3.6-2.1l137-237.3
	C282.2,242.9,282.4,242,282.3,241.1z"/>
</svg>
