<?xml version="1.0" encoding="utf-8"?>
<!-- Generator: Adobe Illustrator 25.2.1, SVG Export Plug-In . SVG Version: 6.00 Build 0)  -->
<svg version="1.1" id="圖層_1" xmlns="http://www.w3.org/2000/svg" xmlns:xlink="http://www.w3.org/1999/xlink" x="0px" y="0px"
	 viewBox="0 0 720.8 720.8" style="enable-background:new 0 0 720.8 720.8;" xml:space="preserve">
<style type="text/css">
	.st0{fill:none;stroke:#EA5638;stroke-width:4;stroke-linecap:round;stroke-linejoin:round;stroke-miterlimit:10;}
	.st1{fill:#FFFFFF;}
	.st2{fill:#EA5638;}
	.st3{fill:#FFFFFF;stroke:#EA5638;stroke-width:4;stroke-linecap:round;stroke-linejoin:round;stroke-miterlimit:10;}
</style>
<path class="st0" d="M-599.2,383.1"/>
<path class="st0" d="M-590,387.5"/>
<g>
	<circle class="st1" cx="360.4" cy="360.4" r="360.4"/>
	<g>
		<path class="st2" d="M661.2,370.7"/>
		<path class="st2" d="M360.4,720.8C161.7,720.8,0,559.1,0,360.4S161.7,0,360.4,0s360.4,161.7,360.4,360.4S559.1,720.8,360.4,720.8z
			 M360.4,19.1C172.2,19.1,19,172.2,19,360.4s153.1,341.3,341.4,341.3s341.3-153.1,341.3-341.3S548.6,19.1,360.4,19.1z"/>
		<path class="st2" d="M365.2,366.5C365.2,366.5,365.2,366.5,365.2,366.5H163.7c-2.2,0-4.2-1.2-5.3-3.1s-1.1-4.2,0-6.1l199-344.8
			c1.1-1.9,3.1-3.1,5.3-3.1s4.2,1.2,5.3,3.1l88.2,152.8c1.7,2.9,0.7,6.7-2.2,8.4c-2,1.2-4.4,1.1-6.3-0.1
			c-14.8-2.3-110.1-14-133.1,66.6c-17,59.8,42.3,106.5,52.5,114h184l-34.5-62.8c-1.7-2.9-0.7-6.7,2.2-8.4c2.9-1.7,6.7-0.7,8.4,2.2
			l39.8,71.9c1.1,1.9,1.1,4.2,0,6.1c-1.1,1.9-3.1,3.1-5.3,3.1L365.2,366.5C365.2,366.5,365.2,366.5,365.2,366.5z M174.3,354.3h173.4
			c-22-19.5-60.4-62.6-44.8-117.4c22.1-77.8,104.6-79.1,136.4-76.5L362.7,27.9L174.3,354.3z"/>
		<path class="st2" d="M360.2,354.4C360.3,354.4,360.3,354.4,360.2,354.4h201.5c2.2,0,4.2,1.2,5.3,3.1s1.1,4.2,0,6.1L368,708.3
			c-1.1,1.9-3.1,3.1-5.3,3.1s-4.2-1.2-5.3-3.1l-88.2-152.8c-1.7-2.9-0.7-6.7,2.2-8.3c2-1.2,4.4-1.1,6.3,0.1
			c14.8,2.3,110.1,14,133.1-66.7c17-59.8-42.3-106.5-52.5-114h-184l34.5,62.8c1.7,2.9,0.7,6.7-2.2,8.4c-2.9,1.7-6.7,0.7-8.4-2.2
			l-39.8-71.9c-1.1-1.9-1.1-4.2,0-6.1c1.1-1.9,3.1-3.1,5.3-3.1L360.2,354.4C360.2,354.4,360.2,354.4,360.2,354.4z M551.2,366.6
			H377.8c22,19.5,60.3,62.6,44.8,117.4c-22.1,77.8-104.6,79.1-136.4,76.5L362.7,693L551.2,366.6z"/>
		<path class="st2" d="M387.6,365.3"/>
		<path class="st3" d="M213.6,365.3"/>
		<path class="st2" d="M534.5,365.3"/>
		<path class="st2" d="M360.4,365.3"/>
		<path class="st2" d="M534.5,365.3"/>
		<path class="st3" d="M213.6,365.3"/>
		<path class="st3" d="M213.6,365.3"/>
		<path class="st2" d="M534.5,365.3"/>
		<path class="st2" d="M360.4,365.3"/>
		<path class="st2" d="M534.5,365.3"/>
		<path class="st3" d="M213.6,365.3"/>
		<path class="st2" d="M387.6,365.3"/>
		<path class="st3" d="M190.9,419.8"/>
		<path class="st2" d="M511.8,419.8"/>
		<polygon class="st2" points="362.7,19.9 431.8,135.2 446.2,167.2 406.4,164.1 338.4,188 308,231.2 304,243.9 308,282.7 
			325.1,319.8 349.9,347.9 348.8,357.7 171.2,357.7 		"/>
		<path class="st2" d="M286.2,560.4l76.5,132.5l188.4-326.4H377.8c22,19.5,60.3,62.6,44.8,117.4
			C400.4,561.7,317.9,562.9,286.2,560.4z"/>
		<polygon class="st2" points="362.7,700.9 293.7,585.6 279.3,553.6 319.1,556.7 387,532.8 417.4,489.6 421.5,476.9 417.5,438.1 
			400.4,401 375.6,372.9 376.6,363.1 554.3,363.1 		"/>
	</g>
</g>
</svg>
