<?xml version="1.0" encoding="utf-8"?>
<!-- Generator: Adobe Illustrator 25.2.1, SVG Export Plug-In . SVG Version: 6.00 Build 0)  -->
<svg version="1.1" id="圖層_1" xmlns="http://www.w3.org/2000/svg" xmlns:xlink="http://www.w3.org/1999/xlink" x="0px" y="0px"
	 viewBox="0 0 720.7 720.9" style="enable-background:new 0 0 720.7 720.9;" xml:space="preserve">
<style type="text/css">
	.st0{fill:#EA5638;}
</style>
<g>
	<path class="st0" d="M357.3,717.8l-90.6-156.9c-1.7-3-0.7-6.8,2.3-8.6c2.1-1.2,4.5-1.1,6.4,0.1c15.2,2.4,113.1,14.4,136.7-68.5
		c17.5-61.5-43.5-109.4-54-117.1h-189l35.5,64.5c1.7,3,0.7,6.8-2.3,8.6c-3,1.7-6.9,0.7-8.6-2.3l-40.9-73.9c-0.4-0.8-0.7-1.6-0.8-2.5
		c-0.2-1.4,0.1-2.7,0.8-4l204.5-354c1.1-1.9,3.2-3.1,5.4-3.1c-0.8,0-1.6,0-2.3,0C161.3,0.1,0,161.5,0,360.5s161.2,360.4,360.3,360.4
		c0.4,0,0.8,0,1.3,0C359.8,720.5,358.2,719.4,357.3,717.8z"/>
	<path class="st0" d="M362.8,0c2.2,0,4.2,1.2,5.4,3.1L458.8,160c1.7,3,0.7,6.8-2.3,8.6c-2.1,1.2-4.5,1.1-6.4-0.1
		c-15.2-2.4-113.1-14.4-136.7,68.5c-17.5,61.5,43.5,109.4,54,117.1h189l-35.5-64.5c-1.7-3-0.7-6.8,2.3-8.6c3-1.7,6.8-0.7,8.6,2.3
		l40.9,73.9c0.4,0.8,0.7,1.6,0.8,2.5c0.2,1.4-0.1,2.7-0.8,4L368.1,717.8c-0.9,1.6-2.5,2.7-4.2,3c197.4-1.9,356.8-162.6,356.8-360.4
		C720.7,162.2,560.7,1.4,362.8,0z"/>
</g>
</svg>
