<?xml version="1.0" encoding="utf-8"?>
<!-- Generator: Adobe Illustrator 26.0.1, SVG Export Plug-In . SVG Version: 6.00 Build 0)  -->
<svg version="1.1" id="圖層_1" xmlns="http://www.w3.org/2000/svg" xmlns:xlink="http://www.w3.org/1999/xlink" x="0px" y="0px"
	 viewBox="0 0 926.9 154.1" style="enable-background:new 0 0 926.9 154.1;" xml:space="preserve">
<style type="text/css">
	.st0{fill:#EA5638;}
	.st1{fill:none;stroke:#EA5638;stroke-width:4;stroke-linecap:round;stroke-linejoin:round;stroke-miterlimit:10;}
	.st2{fill:#FFFFFF;}
	.st3{fill:#FFFFFF;stroke:#EA5638;stroke-width:4;stroke-linecap:round;stroke-linejoin:round;stroke-miterlimit:10;}
	.st4{display:none;}
	.st5{display:inline;}
</style>
<g id="圖層_1_1_">
	<g id="圖層_5" transform="translate(21.56 2.202)">
		<g id="Group_1925" transform="translate(0 0)">
			<path id="Path_2747" class="st0" d="M170.2,71c1.6-26.3,24.2-46.3,50.5-44.7c12.3,0.8,23.8,6.2,32.1,15.2l-12.9,11.9
				c-5.4-6.5-13.4-10.2-21.8-10.1c-15.3,0-27.7,12.4-27.7,27.7c0,15.3,12.4,27.7,27.7,27.7c8.4,0.1,16.5-3.7,21.8-10.3l12.9,11.9
				c-17.7,19.4-47.8,20.7-67.2,3C176.4,94.9,170.9,83.3,170.2,71L170.2,71z"/>
			<path id="Path_2748" class="st0" d="M262.5,27.8c0.1-6.1,5.2-10.9,11.2-10.8c0.2,0,0.5,0,0.8,0c6-0.6,11.3,3.6,11.9,9.6
				c0,0.3,0,0.5,0.1,0.8c-0.4,6.6-6.1,11.7-12.7,11.3C267.8,38.3,263,33.7,262.5,27.8L262.5,27.8L262.5,27.8L262.5,27.8z
				 M264.8,47.8h19.3v66.5h-19.3V47.8z"/>
			<path id="Path_2749" class="st0" d="M345,111.1c-4.7,3-10.2,4.4-15.7,4.2c-12,1.7-23.1-6.7-24.8-18.7c-0.2-1.7-0.3-3.5-0.1-5.2
				V64.1h-10.3V49.3h10.3V33.1h19.3v16.2h16.6v14.8h-16.6v27.1c-0.6,4.2,2.4,8.1,6.6,8.7c0.5,0.1,1.1,0.1,1.6,0
				c2.8,0,5.5-0.8,7.8-2.5L345,111.1z"/>
			<path id="Path_2750" class="st0" d="M420.6,47.8l-30,70.6c-6.4,16.1-15.6,20.9-27.6,20.9c-6.7,0.1-13.2-2-18.5-6.1l7-13.7
				c3,2.6,6.9,4.1,10.9,4.2c5.3,0,8.3-2.3,10.9-8.3l0.2-0.6l-28.8-67h19.9l18.7,45.1l18.8-45.1L420.6,47.8z"/>
			<path id="Path_2751" class="st0" d="M509.3,90.7c0,15-11.9,23.6-34.6,23.6h-44.8V27.8h42.3c21.6,0,32.8,9,32.8,22.5
				c0.2,8-4.3,15.4-11.5,19C503.1,71.9,509.6,80.7,509.3,90.7z M449.8,42.8v20.5h19.9c9.8,0,15.1-3.5,15.1-10.3
				c0-6.8-5.3-10.1-15.1-10.1L449.8,42.8z M489.1,88.6c0-7.3-5.6-10.8-16-10.8h-23.4v21.4h23.4C483.6,99.2,489.1,96,489.1,88.6
				L489.1,88.6z"/>
			<path id="Path_2752" class="st0" d="M582,76.3v37.9h-18V106c-4.5,6.6-12.3,10.1-20.3,9.3c-15.6,0-24.8-8.7-24.8-20.1
				c0-11.8,8.3-19.9,28.6-19.9h15.3c0-8.3-4.9-13.1-15.3-13.1c-6.9,0-13.6,2.1-19.2,6.2l-6.9-13.5c8.6-5.5,18.5-8.2,28.7-8
				C570.2,46.8,582,56.2,582,76.3z M562.7,93.2v-6.8h-13.2c-9,0-11.9,3.3-11.9,7.8c0,4.8,4.1,8,10.9,8
				C554.6,102.7,560.4,99,562.7,93.2L562.7,93.2z"/>
			<path id="Path_2753" class="st0" d="M667.4,76.2v38.1h-19.3V79.2c0-10.8-4.9-15.7-13.5-15.7c-9.3,0-16,5.7-16,17.9v32.9h-19.3
				V47.8h18.4v7.8c5.8-5.9,13.8-9.1,22-8.8C655.6,46.8,667.4,55.9,667.4,76.2z"/>
			<path id="Path_2754" class="st0" d="M743.7,76.3v37.9h-18V106c-4.5,6.6-12.3,10.1-20.3,9.3c-15.6,0-24.8-8.7-24.8-20.1
				c0-11.8,8.3-19.9,28.6-19.9h15.3c0-8.3-4.9-13.1-15.3-13.1c-6.9,0-13.6,2.1-19.2,6.2L683,54.9c8.6-5.5,18.5-8.2,28.7-8
				C731.9,46.8,743.7,56.2,743.7,76.3z M724.4,93.2v-6.8h-13.2c-9,0-11.9,3.3-11.9,7.8c0,4.8,4.1,8,10.9,8
				C716.3,102.7,722.1,99.1,724.4,93.2L724.4,93.2L724.4,93.2L724.4,93.2z"/>
			<path id="Path_2755" class="st0" d="M829.1,76.2v38.1h-19.3V79.2c0-10.8-4.9-15.7-13.5-15.7c-9.3,0-16,5.7-16,17.9v32.9h-19.3
				V47.8h18.4v7.8c5.8-5.9,13.8-9.1,22-8.8C817.2,46.8,829.1,55.9,829.1,76.2z"/>
			<path id="Path_2756" class="st0" d="M905.4,76.3v37.9h-18V106c-4.5,6.6-12.3,10.1-20.3,9.3c-15.6,0-24.8-8.7-24.8-20.1
				c0-11.8,8.3-19.9,28.6-19.9h15.3c0-8.3-4.9-13.1-15.3-13.1c-6.9,0-13.6,2.1-19.2,6.2l-6.9-13.5c8.5-5.5,18.5-8.2,28.7-8
				C893.6,46.8,905.4,56.2,905.4,76.3z M886.1,93.2v-6.8h-13.2c-9,0-11.9,3.3-11.9,7.8c0,4.8,4.1,8,10.9,8
				C878.1,102.7,883.8,99,886.1,93.2L886.1,93.2z"/>
		</g>
	</g>
	<path class="st0" d="M143.1,79.3"/>
	<path class="st1" d="M2.8,73.4"/>
	<circle class="st0" cx="77" cy="77" r="77"/>
	<path class="st2" d="M78.1,78.4L78.1,78.4H33.8c-0.5,0-0.9-0.3-1.2-0.7c-0.2-0.4-0.2-0.9,0-1.3L76.4,0.7C76.6,0.2,77.1,0,77.5,0
		s0.9,0.3,1.2,0.7l19.4,33.5c0.4,0.6,0.1,1.5-0.5,1.8c-0.4,0.3-1,0.2-1.4,0C93,35.5,72,32.9,67,50.7c-3.7,13.1,9.3,23.4,11.5,25
		h40.4l-7.6-13.8c-0.4-0.6-0.1-1.5,0.5-1.8c0.6-0.4,1.5-0.1,1.8,0.5l8.7,15.8c0.2,0.4,0.2,0.9,0,1.3c-0.2,0.4-0.7,0.7-1.2,0.7
		L78.1,78.4C78.1,78.4,78.1,78.4,78.1,78.4z M36.2,75.7h38.1c-4.8-4.3-13.2-13.8-9.8-25.8c4.9-17.1,23-17.4,29.9-16.8L77.5,4
		L36.2,75.7z"/>
	<path class="st2" d="M77,75.7C77,75.7,77,75.7,77,75.7h44.3c0.5,0,0.9,0.3,1.2,0.7c0.2,0.4,0.2,0.9,0,1.3l-43.7,75.7
		c-0.2,0.4-0.7,0.7-1.2,0.7s-0.9-0.3-1.2-0.7L57,119.9c-0.4-0.6-0.2-1.5,0.5-1.8c0.4-0.3,1-0.2,1.4,0c3.2,0.5,24.2,3.1,29.2-14.6
		c3.7-13.1-9.3-23.4-11.5-25H36.2l7.6,13.8c0.4,0.6,0.2,1.5-0.5,1.8c-0.6,0.4-1.5,0.1-1.8-0.5l-8.7-15.8c-0.2-0.4-0.2-0.9,0-1.3
		c0.2-0.4,0.7-0.7,1.2-0.7L77,75.7C77,75.7,77,75.7,77,75.7z M118.9,78.4H80.8c4.8,4.3,13.2,13.8,9.8,25.8
		c-4.9,17.1-23,17.4-29.9,16.8l16.8,29.1L118.9,78.4z"/>
	<path class="st3" d="M83,78.1"/>
	<path class="st3" d="M44.8,78.1"/>
	<path class="st3" d="M115.2,78.1"/>
	<path class="st3" d="M77,78.1"/>
	<path class="st3" d="M115.2,78.1"/>
	<path class="st3" d="M44.8,78.1"/>
	<path class="st3" d="M44.8,78.1"/>
	<path class="st3" d="M115.2,78.1"/>
	<path class="st3" d="M77,78.1"/>
	<path class="st3" d="M115.2,78.1"/>
	<path class="st3" d="M44.8,78.1"/>
	<path class="st3" d="M83,78.1"/>
	<path class="st3" d="M39.8,90.1"/>
	<path class="st3" d="M110.3,90.1"/>
	<polygon class="st2" points="77.5,2.3 92.7,27.6 95.9,34.6 87.1,33.9 72.2,39.2 65.5,48.7 64.6,51.5 65.5,60 69.3,68.1 74.7,74.3 
		74.5,76.4 35.5,76.4 	"/>
	<path class="st2" d="M60.8,120.9L77.5,150l41.4-71.7H80.8c4.8,4.3,13.2,13.8,9.8,25.8C85.8,121.2,67.7,121.5,60.8,120.9z"/>
	<polygon class="st2" points="77.5,151.8 62.4,126.5 59.2,119.4 68,120.1 82.9,114.9 89.5,105.4 90.4,102.6 89.6,94.1 85.8,86 
		80.4,79.8 80.6,77.6 119.6,77.6 	"/>
</g>
<g id="圖層_2_1_" class="st4">
	<g class="st5">
		<path class="st0" d="M-1218.4,117.2c0-31.3,24-53.7,56.4-53.7c17.9,0,32.9,6.5,42.7,18.4l-15.4,14.2c-7-8-15.7-12.2-26.1-12.2
			c-19.4,0-33.2,13.7-33.2,33.2c0,19.6,13.8,33.2,33.2,33.2c10.4,0,19.1-4.2,26.1-12.3l15.4,14.2c-9.8,12-24.8,18.5-42.9,18.5
			C-1194.4,170.9-1218.4,148.5-1218.4,117.2z"/>
		<path class="st0" d="M-1107.6,65.3c0-7.3,5.8-12.9,14.4-12.9c8.6,0,14.4,5.3,14.4,12.5c0,7.7-5.8,13.3-14.4,13.3
			C-1101.8,78.2-1107.6,72.5-1107.6,65.3z M-1104.8,89.3h23.1v79.8h-23.1V89.3z"/>
		<path class="st0" d="M-1008.6,165.3c-4.8,3.4-11.7,5-18.8,5c-18.8,0-29.8-9.6-29.8-28.6v-32.8h-12.3V91.1h12.3V71.6h23.1v19.4
			h19.9v17.8h-19.9v32.5c0,6.8,3.7,10.5,9.9,10.5c3.4,0,6.8-1,9.4-3L-1008.6,165.3z"/>
		<path class="st0" d="M-917.8,89.3l-36.1,84.7c-7.7,19.3-18.7,25.1-33.1,25.1c-8.2,0-17.1-2.7-22.3-7.3l8.5-16.5
			c3.6,3.1,8.5,5,13.1,5c6.4,0,9.9-2.8,13.1-9.9l0.3-0.7l-34.6-80.4h23.9l22.4,54.2l22.5-54.2L-917.8,89.3L-917.8,89.3L-917.8,89.3z
			"/>
		<path class="st0" d="M-811.4,140.8c0,18-14.2,28.3-41.5,28.3h-53.7V65.3h50.8c26,0,39.3,10.8,39.3,27c0,10.4-5.3,18.4-13.8,22.8
			C-818.9,118.8-811.4,127.7-811.4,140.8z M-882.8,83.4v24.5h23.9c11.7,0,18.1-4.2,18.1-12.3c0-8.2-6.4-12.2-18.1-12.2L-882.8,83.4
			L-882.8,83.4L-882.8,83.4z M-835.6,138.3c0-8.8-6.7-12.9-19.1-12.9h-28V151h28C-842.3,151-835.6,147.2-835.6,138.3z"/>
		<path class="st0" d="M-724.2,123.6v45.5h-21.7v-9.9c-4.3,7.3-12.6,11.1-24.3,11.1c-18.7,0-29.8-10.4-29.8-24.2
			c0-14.1,9.9-23.9,34.3-23.9h18.4c0-9.9-5.9-15.7-18.4-15.7c-8.5,0-17.2,2.8-23,7.4l-8.3-16.2c8.8-6.2,21.7-9.6,34.4-9.6
			C-738.3,88.1-724.2,99.4-724.2,123.6z M-747.3,143.9v-8.2h-15.9c-10.8,0-14.2,4-14.2,9.3c0,5.8,4.9,9.6,13.1,9.6
			C-756.7,154.7-750,151.2-747.3,143.9z"/>
		<path class="st0" d="M-621.7,123.4v45.7h-23.2V127c0-12.9-5.9-18.8-16.2-18.8c-11.1,0-19.1,6.8-19.1,21.5v39.5h-23.2V89.3h22.1
			v9.3c6.2-6.8,15.6-10.5,26.4-10.5C-635.9,88.1-621.7,99.1-621.7,123.4z"/>
		<path class="st0" d="M-530.1,123.6v45.5h-21.7v-9.9c-4.3,7.3-12.6,11.1-24.3,11.1c-18.7,0-29.8-10.4-29.8-24.2
			c0-14.1,9.9-23.9,34.3-23.9h18.4c0-9.9-5.9-15.7-18.4-15.7c-8.5,0-17.2,2.8-23,7.4l-8.3-16.2c8.8-6.2,21.7-9.6,34.4-9.6
			C-544.2,88.1-530.1,99.4-530.1,123.6z M-553.3,143.9v-8.2h-15.9c-10.8,0-14.2,4-14.2,9.3c0,5.8,4.9,9.6,13.1,9.6
			C-562.6,154.7-555.9,151.2-553.3,143.9z"/>
		<path class="st0" d="M-427.6,123.4v45.7h-23.1V127c0-12.9-5.9-18.8-16.2-18.8c-11.1,0-19.1,6.8-19.1,21.5v39.5h-23.2V89.3h22.1
			v9.3c6.2-6.8,15.6-10.5,26.4-10.5C-441.8,88.1-427.6,99.1-427.6,123.4z"/>
		<path class="st0" d="M-336,123.6v45.5h-21.7v-9.9c-4.3,7.3-12.6,11.1-24.3,11.1c-18.7,0-29.8-10.4-29.8-24.2
			c0-14.1,9.9-23.9,34.3-23.9h18.4c0-9.9-5.9-15.7-18.4-15.7c-8.5,0-17.2,2.8-23,7.4l-8.3-16.2c8.8-6.2,21.7-9.6,34.4-9.6
			C-350.1,88.1-336,99.4-336,123.6z M-359.2,143.9v-8.2h-15.9c-10.8,0-14.2,4-14.2,9.3c0,5.8,4.9,9.6,13.1,9.6
			C-368.5,154.7-361.9,151.2-359.2,143.9z"/>
	</g>
</g>
</svg>
